M48
;DRILL file {Pcbnew (2013-07-07 BZR 4022)-stable} date 3/12/2014 4:41:26 PM
;FORMAT={-:-/ absolute / inch / decimal}
FMAT,2
INCH,TZ
T1C0.025
T2C0.032
T3C0.120
%
G90
G05
M72
T1
X6.49Y-6.805
X6.51Y-6.73
X6.55Y-6.805
X6.61Y-6.805
X6.61Y-6.865
X6.86Y-6.73
X6.905Y-6.52
X7.085Y-7.08
X7.17Y-6.895
T2
X6.79Y-6.93
X6.79Y-7.03
X6.98Y-6.43
X7.01Y-6.93
X7.01Y-7.03
X7.08Y-6.43
X7.35Y-6.64
X7.35Y-6.74
T3
X6.12Y-6.385
X6.12Y-6.995
X7.405Y-6.355
X7.405Y-7.025
T0
M30
