G04 (created by PCBNEW (2013-06-11 BZR 4021)-stable) date Wed 19 Feb 2014 03:26:36 AM CST*
%MOIN*%
G04 Gerber Fmt 3.4, Leading zero omitted, Abs format*
%FSLAX34Y34*%
G01*
G70*
G90*
G04 APERTURE LIST*
%ADD10C,0.00590551*%
%ADD11C,0.011811*%
%ADD12C,0.0065*%
%ADD13C,0.006*%
%ADD14C,0.005*%
%ADD15C,0.0047*%
%ADD16C,0.008*%
%ADD17C,0.0039*%
%ADD18C,0.01*%
%ADD19C,0.015*%
%ADD20C,0.0051*%
%ADD21C,0.003*%
%ADD22C,0.0043*%
%ADD23C,0.012*%
G04 APERTURE END LIST*
G54D10*
G54D11*
X72664Y-66674D02*
X72664Y-66225D01*
X72425Y-67414D02*
X72874Y-67414D01*
X72650Y-67639D02*
X72650Y-67189D01*
G54D12*
X71700Y-66200D02*
X68700Y-66200D01*
X68700Y-67600D02*
X71700Y-67600D01*
X71700Y-66200D02*
X71700Y-67600D01*
G54D13*
X68700Y-67600D02*
X68700Y-66200D01*
G54D14*
X69041Y-67400D02*
G75*
G03X69041Y-67400I-141J0D01*
G74*
G01*
X68700Y-66650D02*
X69000Y-66650D01*
X69000Y-66650D02*
X69000Y-67150D01*
X69000Y-67150D02*
X68700Y-67150D01*
G54D15*
X65250Y-68400D02*
X65250Y-69600D01*
X65250Y-69600D02*
X64950Y-69600D01*
X64950Y-69600D02*
X64950Y-68400D01*
X64950Y-68400D02*
X65250Y-68400D01*
G54D14*
X72000Y-70000D02*
X71800Y-70300D01*
X72000Y-69300D02*
X72000Y-70325D01*
X72000Y-70325D02*
X71400Y-70325D01*
X71400Y-70325D02*
X71400Y-69300D01*
X71400Y-69300D02*
X72000Y-69300D01*
G54D16*
X65800Y-62900D02*
X64600Y-62900D01*
X64600Y-62900D02*
X64600Y-65700D01*
X64600Y-65700D02*
X65800Y-65700D01*
X67000Y-62900D02*
X67300Y-62900D01*
X67300Y-62900D02*
X68200Y-63500D01*
X68200Y-63500D02*
X68200Y-65100D01*
X68200Y-65100D02*
X67300Y-65700D01*
X67300Y-65700D02*
X67000Y-65700D01*
G54D10*
X63800Y-66270D02*
X63800Y-67529D01*
X66478Y-66270D02*
X66478Y-67530D01*
X63722Y-66270D02*
X63722Y-67529D01*
X65571Y-67532D02*
X66471Y-67532D01*
X66471Y-66268D02*
X65571Y-66268D01*
X64627Y-66270D02*
X63722Y-66270D01*
X63722Y-67529D02*
X64627Y-67529D01*
G54D17*
X68200Y-67800D02*
G75*
G03X68200Y-67800I-50J0D01*
G74*
G01*
X67700Y-67800D02*
X68100Y-67800D01*
X68100Y-67800D02*
X68100Y-68400D01*
X68100Y-68400D02*
X67700Y-68400D01*
X67300Y-68400D02*
X66900Y-68400D01*
X66900Y-68400D02*
X66900Y-67800D01*
X66900Y-67800D02*
X67300Y-67800D01*
X68250Y-67550D02*
G75*
G03X68250Y-67550I-50J0D01*
G74*
G01*
X68200Y-67100D02*
X68200Y-67500D01*
X68200Y-67500D02*
X67600Y-67500D01*
X67600Y-67500D02*
X67600Y-67100D01*
X67600Y-66700D02*
X67600Y-66300D01*
X67600Y-66300D02*
X68200Y-66300D01*
X68200Y-66300D02*
X68200Y-66700D01*
X71200Y-71100D02*
G75*
G03X71200Y-71100I-50J0D01*
G74*
G01*
X71600Y-71100D02*
X71200Y-71100D01*
X71200Y-71100D02*
X71200Y-70500D01*
X71200Y-70500D02*
X71600Y-70500D01*
X72000Y-70500D02*
X72400Y-70500D01*
X72400Y-70500D02*
X72400Y-71100D01*
X72400Y-71100D02*
X72000Y-71100D01*
G54D18*
X73972Y-66900D02*
X73027Y-66900D01*
X73027Y-67923D02*
X73027Y-65876D01*
X73027Y-65876D02*
X73972Y-65876D01*
X73972Y-65876D02*
X73972Y-67923D01*
X73972Y-67923D02*
X73027Y-67923D01*
X67427Y-69800D02*
X68372Y-69800D01*
X68372Y-68776D02*
X68372Y-70823D01*
X68372Y-70823D02*
X67427Y-70823D01*
X67427Y-70823D02*
X67427Y-68776D01*
X67427Y-68776D02*
X68372Y-68776D01*
X70300Y-63827D02*
X70300Y-64772D01*
X71323Y-64772D02*
X69276Y-64772D01*
X69276Y-64772D02*
X69276Y-63827D01*
X69276Y-63827D02*
X71323Y-63827D01*
X71323Y-63827D02*
X71323Y-64772D01*
X69627Y-69800D02*
X70572Y-69800D01*
X70572Y-68776D02*
X70572Y-70823D01*
X70572Y-70823D02*
X69627Y-70823D01*
X69627Y-70823D02*
X69627Y-68776D01*
X69627Y-68776D02*
X70572Y-68776D01*
G54D19*
X62100Y-69950D02*
G75*
G03X62100Y-69950I-900J0D01*
G74*
G01*
X62100Y-63850D02*
G75*
G03X62100Y-63850I-900J0D01*
G74*
G01*
X74950Y-63550D02*
G75*
G03X74950Y-63550I-900J0D01*
G74*
G01*
X74950Y-70250D02*
G75*
G03X74950Y-70250I-900J0D01*
G74*
G01*
G54D14*
X71821Y-67128D02*
X72064Y-67128D01*
X72092Y-67114D01*
X72107Y-67100D01*
X72121Y-67071D01*
X72121Y-67014D01*
X72107Y-66985D01*
X72092Y-66971D01*
X72064Y-66957D01*
X71821Y-66957D01*
X71850Y-66828D02*
X71835Y-66814D01*
X71821Y-66785D01*
X71821Y-66714D01*
X71835Y-66685D01*
X71850Y-66671D01*
X71878Y-66657D01*
X71907Y-66657D01*
X71950Y-66671D01*
X72121Y-66842D01*
X72121Y-66657D01*
G54D20*
X65071Y-70050D02*
X65042Y-70035D01*
X65014Y-70007D01*
X64971Y-69964D01*
X64942Y-69950D01*
X64914Y-69950D01*
X64928Y-70021D02*
X64900Y-70007D01*
X64871Y-69978D01*
X64857Y-69921D01*
X64857Y-69821D01*
X64871Y-69764D01*
X64900Y-69735D01*
X64928Y-69721D01*
X64985Y-69721D01*
X65014Y-69735D01*
X65042Y-69764D01*
X65057Y-69821D01*
X65057Y-69921D01*
X65042Y-69978D01*
X65014Y-70007D01*
X64985Y-70021D01*
X64928Y-70021D01*
X65342Y-70021D02*
X65171Y-70021D01*
X65257Y-70021D02*
X65257Y-69721D01*
X65228Y-69764D01*
X65200Y-69792D01*
X65171Y-69807D01*
G54D21*
X70971Y-68821D02*
X70971Y-69064D01*
X70985Y-69092D01*
X71000Y-69107D01*
X71028Y-69121D01*
X71085Y-69121D01*
X71114Y-69107D01*
X71128Y-69092D01*
X71142Y-69064D01*
X71142Y-68821D01*
X71257Y-68821D02*
X71442Y-68821D01*
X71342Y-68935D01*
X71385Y-68935D01*
X71414Y-68950D01*
X71428Y-68964D01*
X71442Y-68992D01*
X71442Y-69064D01*
X71428Y-69092D01*
X71414Y-69107D01*
X71385Y-69121D01*
X71300Y-69121D01*
X71271Y-69107D01*
X71257Y-69092D01*
G54D16*
X68361Y-64604D02*
X68685Y-64604D01*
X68723Y-64585D01*
X68742Y-64566D01*
X68761Y-64528D01*
X68761Y-64452D01*
X68742Y-64414D01*
X68723Y-64395D01*
X68685Y-64376D01*
X68361Y-64376D01*
X68761Y-63976D02*
X68761Y-64204D01*
X68761Y-64090D02*
X68361Y-64090D01*
X68419Y-64128D01*
X68457Y-64166D01*
X68476Y-64204D01*
G54D14*
X66911Y-66945D02*
X66780Y-67037D01*
X66911Y-67103D02*
X66635Y-67103D01*
X66635Y-66998D01*
X66648Y-66972D01*
X66662Y-66959D01*
X66688Y-66945D01*
X66727Y-66945D01*
X66754Y-66959D01*
X66767Y-66972D01*
X66780Y-66998D01*
X66780Y-67103D01*
X66662Y-66840D02*
X66648Y-66827D01*
X66635Y-66801D01*
X66635Y-66735D01*
X66648Y-66709D01*
X66662Y-66696D01*
X66688Y-66683D01*
X66714Y-66683D01*
X66754Y-66696D01*
X66911Y-66853D01*
X66911Y-66683D01*
G54D22*
X67467Y-68304D02*
X67401Y-68210D01*
X67354Y-68304D02*
X67354Y-68107D01*
X67429Y-68107D01*
X67448Y-68117D01*
X67457Y-68126D01*
X67467Y-68145D01*
X67467Y-68173D01*
X67457Y-68192D01*
X67448Y-68201D01*
X67429Y-68210D01*
X67354Y-68210D01*
X67654Y-68304D02*
X67542Y-68304D01*
X67598Y-68304D02*
X67598Y-68107D01*
X67579Y-68135D01*
X67560Y-68154D01*
X67542Y-68164D01*
X67267Y-66610D02*
X67257Y-66620D01*
X67229Y-66629D01*
X67210Y-66629D01*
X67182Y-66620D01*
X67163Y-66601D01*
X67154Y-66582D01*
X67145Y-66545D01*
X67145Y-66517D01*
X67154Y-66479D01*
X67163Y-66460D01*
X67182Y-66442D01*
X67210Y-66432D01*
X67229Y-66432D01*
X67257Y-66442D01*
X67267Y-66451D01*
X67454Y-66629D02*
X67342Y-66629D01*
X67398Y-66629D02*
X67398Y-66432D01*
X67379Y-66460D01*
X67360Y-66479D01*
X67342Y-66489D01*
X72760Y-70832D02*
X72770Y-70842D01*
X72779Y-70870D01*
X72779Y-70889D01*
X72770Y-70917D01*
X72751Y-70936D01*
X72732Y-70945D01*
X72695Y-70954D01*
X72667Y-70954D01*
X72629Y-70945D01*
X72610Y-70936D01*
X72592Y-70917D01*
X72582Y-70889D01*
X72582Y-70870D01*
X72592Y-70842D01*
X72601Y-70832D01*
X72601Y-70757D02*
X72592Y-70748D01*
X72582Y-70729D01*
X72582Y-70682D01*
X72592Y-70663D01*
X72601Y-70654D01*
X72620Y-70645D01*
X72639Y-70645D01*
X72667Y-70654D01*
X72779Y-70767D01*
X72779Y-70645D01*
G54D23*
X69857Y-63519D02*
X69857Y-62919D01*
X70085Y-62919D01*
X70142Y-62947D01*
X70171Y-62976D01*
X70200Y-63033D01*
X70200Y-63119D01*
X70171Y-63176D01*
X70142Y-63204D01*
X70085Y-63233D01*
X69857Y-63233D01*
X70714Y-63119D02*
X70714Y-63519D01*
X70571Y-62890D02*
X70428Y-63319D01*
X70800Y-63319D01*
X69442Y-70242D02*
X68842Y-70242D01*
X68842Y-70014D01*
X68871Y-69957D01*
X68900Y-69928D01*
X68957Y-69900D01*
X69042Y-69900D01*
X69100Y-69928D01*
X69128Y-69957D01*
X69157Y-70014D01*
X69157Y-70242D01*
X68842Y-69357D02*
X68842Y-69642D01*
X69128Y-69671D01*
X69100Y-69642D01*
X69071Y-69585D01*
X69071Y-69442D01*
X69100Y-69385D01*
X69128Y-69357D01*
X69185Y-69328D01*
X69328Y-69328D01*
X69385Y-69357D01*
X69414Y-69385D01*
X69442Y-69442D01*
X69442Y-69585D01*
X69414Y-69642D01*
X69385Y-69671D01*
M02*
