G04 (created by PCBNEW (2013-06-11 BZR 4021)-stable) date Wed 19 Feb 2014 03:26:36 AM CST*
%MOIN*%
G04 Gerber Fmt 3.4, Leading zero omitted, Abs format*
%FSLAX34Y34*%
G01*
G70*
G90*
G04 APERTURE LIST*
%ADD10C,0.00590551*%
%ADD11R,0.016X0.05*%
%ADD12R,0.036X0.036*%
%ADD13R,0.0394X0.0276*%
%ADD14R,0.08X0.144*%
%ADD15R,0.08X0.04*%
%ADD16R,0.0709X0.1063*%
%ADD17R,0.035X0.055*%
%ADD18R,0.055X0.035*%
%ADD19R,0.055X0.055*%
%ADD20C,0.055*%
%ADD21C,0.16*%
G04 APERTURE END LIST*
G54D10*
G54D11*
X69050Y-67950D03*
X69300Y-67950D03*
X69560Y-67950D03*
X69820Y-67950D03*
X70070Y-67950D03*
X70330Y-67950D03*
X70590Y-67950D03*
X70840Y-67950D03*
X71100Y-67950D03*
X71350Y-67950D03*
X71350Y-65850D03*
X71100Y-65850D03*
X70840Y-65850D03*
X70590Y-65850D03*
X70330Y-65850D03*
X70070Y-65850D03*
X69820Y-65850D03*
X69560Y-65850D03*
X69300Y-65850D03*
X69050Y-65850D03*
G54D12*
X65500Y-68650D03*
X65500Y-69350D03*
X64700Y-69000D03*
G54D13*
X71200Y-70175D03*
X71200Y-69800D03*
X71200Y-69425D03*
X72200Y-69425D03*
X72200Y-69800D03*
X72200Y-70175D03*
G54D14*
X67700Y-64300D03*
G54D15*
X65100Y-64300D03*
X65100Y-65200D03*
X65100Y-63400D03*
G54D16*
X64155Y-66900D03*
X66045Y-66900D03*
G54D17*
X67875Y-68100D03*
X67125Y-68100D03*
G54D18*
X67900Y-67275D03*
X67900Y-66525D03*
G54D17*
X71425Y-70800D03*
X72175Y-70800D03*
G54D19*
X73500Y-66400D03*
G54D20*
X73500Y-67400D03*
G54D19*
X67900Y-70300D03*
G54D20*
X67900Y-69300D03*
G54D19*
X69800Y-64300D03*
G54D20*
X70800Y-64300D03*
G54D19*
X70100Y-70300D03*
G54D20*
X70100Y-69300D03*
G54D21*
X61200Y-69950D03*
X61200Y-63850D03*
X74050Y-63550D03*
X74050Y-70250D03*
M02*
