G04 #@! TF.FileFunction,Legend,Bot*
%FSLAX46Y46*%
G04 Gerber Fmt 4.6, Leading zero omitted, Abs format (unit mm)*
G04 Created by KiCad (PCBNEW (after 2015-mar-04 BZR unknown)-product) date Wed 25 Mar 2015 12:28:00 AM CDT*
%MOMM*%
G01*
G04 APERTURE LIST*
%ADD10C,0.150000*%
G04 APERTURE END LIST*
D10*
X170937421Y-163306000D02*
G75*
G03X170937421Y-163306000I-141421J0D01*
G01*
X170396000Y-160806000D02*
X171996000Y-160806000D01*
X171996000Y-160806000D02*
X171996000Y-163806000D01*
X171996000Y-163806000D02*
X170396000Y-163806000D01*
X170396000Y-163806000D02*
X170396000Y-160806000D01*
X162047421Y-163306000D02*
G75*
G03X162047421Y-163306000I-141421J0D01*
G01*
X161506000Y-160806000D02*
X163106000Y-160806000D01*
X163106000Y-160806000D02*
X163106000Y-163806000D01*
X163106000Y-163806000D02*
X161506000Y-163806000D01*
X161506000Y-163806000D02*
X161506000Y-160806000D01*
X173223421Y-178038000D02*
G75*
G03X173223421Y-178038000I-141421J0D01*
G01*
X172682000Y-175538000D02*
X174282000Y-175538000D01*
X174282000Y-175538000D02*
X174282000Y-178538000D01*
X174282000Y-178538000D02*
X172682000Y-178538000D01*
X172682000Y-178538000D02*
X172682000Y-175538000D01*
X221219607Y-166962000D02*
G75*
G03X221219607Y-166962000I-223607J0D01*
G01*
X223596000Y-167462000D02*
X223596000Y-164262000D01*
X223596000Y-164262000D02*
X220396000Y-164262000D01*
X220396000Y-164262000D02*
X220396000Y-167462000D01*
X220396000Y-167462000D02*
X223596000Y-167462000D01*
X196058000Y-176282000D02*
G75*
G03X196058000Y-176282000I-200000J0D01*
G01*
X199658000Y-176782000D02*
X199658000Y-170182000D01*
X199658000Y-170182000D02*
X195058000Y-170182000D01*
X195058000Y-170182000D02*
X195058000Y-176782000D01*
X195058000Y-176782000D02*
X199658000Y-176782000D01*
X174023421Y-172482000D02*
G75*
G03X174023421Y-172482000I-141421J0D01*
G01*
X174282000Y-174982000D02*
X172682000Y-174982000D01*
X172682000Y-174982000D02*
X172682000Y-171982000D01*
X172682000Y-171982000D02*
X174282000Y-171982000D01*
X174282000Y-171982000D02*
X174282000Y-174982000D01*
X220375421Y-175368000D02*
G75*
G03X220375421Y-175368000I-141421J0D01*
G01*
X222734000Y-174968000D02*
X222734000Y-176568000D01*
X222734000Y-176568000D02*
X219734000Y-176568000D01*
X219734000Y-176568000D02*
X219734000Y-174968000D01*
X219734000Y-174968000D02*
X222734000Y-174968000D01*
X184437421Y-163846000D02*
G75*
G03X184437421Y-163846000I-141421J0D01*
G01*
X184696000Y-166346000D02*
X183096000Y-166346000D01*
X183096000Y-166346000D02*
X183096000Y-163346000D01*
X183096000Y-163346000D02*
X184696000Y-163346000D01*
X184696000Y-163346000D02*
X184696000Y-166346000D01*
X216565421Y-175368000D02*
G75*
G03X216565421Y-175368000I-141421J0D01*
G01*
X218924000Y-174968000D02*
X218924000Y-176568000D01*
X218924000Y-176568000D02*
X215924000Y-176568000D01*
X215924000Y-176568000D02*
X215924000Y-174968000D01*
X215924000Y-174968000D02*
X218924000Y-174968000D01*
X230481143Y-175125143D02*
X230528762Y-175077524D01*
X230576381Y-174934667D01*
X230576381Y-174839429D01*
X230528762Y-174696571D01*
X230433524Y-174601333D01*
X230338286Y-174553714D01*
X230147810Y-174506095D01*
X230004952Y-174506095D01*
X229814476Y-174553714D01*
X229719238Y-174601333D01*
X229624000Y-174696571D01*
X229576381Y-174839429D01*
X229576381Y-174934667D01*
X229624000Y-175077524D01*
X229671619Y-175125143D01*
X230576381Y-176077524D02*
X230576381Y-175506095D01*
X230576381Y-175791809D02*
X229576381Y-175791809D01*
X229719238Y-175696571D01*
X229814476Y-175601333D01*
X229862095Y-175506095D01*
X229909714Y-176934667D02*
X230576381Y-176934667D01*
X229528762Y-176696571D02*
X230243048Y-176458476D01*
X230243048Y-177077524D01*
X171957905Y-164258381D02*
X171957905Y-165067905D01*
X171910286Y-165163143D01*
X171862667Y-165210762D01*
X171767429Y-165258381D01*
X171576952Y-165258381D01*
X171481714Y-165210762D01*
X171434095Y-165163143D01*
X171386476Y-165067905D01*
X171386476Y-164258381D01*
X170481714Y-164258381D02*
X170672191Y-164258381D01*
X170767429Y-164306000D01*
X170815048Y-164353619D01*
X170910286Y-164496476D01*
X170957905Y-164686952D01*
X170957905Y-165067905D01*
X170910286Y-165163143D01*
X170862667Y-165210762D01*
X170767429Y-165258381D01*
X170576952Y-165258381D01*
X170481714Y-165210762D01*
X170434095Y-165163143D01*
X170386476Y-165067905D01*
X170386476Y-164829810D01*
X170434095Y-164734571D01*
X170481714Y-164686952D01*
X170576952Y-164639333D01*
X170767429Y-164639333D01*
X170862667Y-164686952D01*
X170910286Y-164734571D01*
X170957905Y-164829810D01*
X163067905Y-164258381D02*
X163067905Y-165067905D01*
X163020286Y-165163143D01*
X162972667Y-165210762D01*
X162877429Y-165258381D01*
X162686952Y-165258381D01*
X162591714Y-165210762D01*
X162544095Y-165163143D01*
X162496476Y-165067905D01*
X162496476Y-164258381D01*
X161544095Y-164258381D02*
X162020286Y-164258381D01*
X162067905Y-164734571D01*
X162020286Y-164686952D01*
X161925048Y-164639333D01*
X161686952Y-164639333D01*
X161591714Y-164686952D01*
X161544095Y-164734571D01*
X161496476Y-164829810D01*
X161496476Y-165067905D01*
X161544095Y-165163143D01*
X161591714Y-165210762D01*
X161686952Y-165258381D01*
X161925048Y-165258381D01*
X162020286Y-165210762D01*
X162067905Y-165163143D01*
X170140381Y-176276095D02*
X170949905Y-176276095D01*
X171045143Y-176323714D01*
X171092762Y-176371333D01*
X171140381Y-176466571D01*
X171140381Y-176657048D01*
X171092762Y-176752286D01*
X171045143Y-176799905D01*
X170949905Y-176847524D01*
X170140381Y-176847524D01*
X170473714Y-177752286D02*
X171140381Y-177752286D01*
X170092762Y-177514190D02*
X170807048Y-177276095D01*
X170807048Y-177895143D01*
X220217905Y-163536381D02*
X220217905Y-164345905D01*
X220170286Y-164441143D01*
X220122667Y-164488762D01*
X220027429Y-164536381D01*
X219836952Y-164536381D01*
X219741714Y-164488762D01*
X219694095Y-164441143D01*
X219646476Y-164345905D01*
X219646476Y-163536381D01*
X219265524Y-163536381D02*
X218646476Y-163536381D01*
X218979810Y-163917333D01*
X218836952Y-163917333D01*
X218741714Y-163964952D01*
X218694095Y-164012571D01*
X218646476Y-164107810D01*
X218646476Y-164345905D01*
X218694095Y-164441143D01*
X218741714Y-164488762D01*
X218836952Y-164536381D01*
X219122667Y-164536381D01*
X219217905Y-164488762D01*
X219265524Y-164441143D01*
X198119905Y-168534381D02*
X198119905Y-169343905D01*
X198072286Y-169439143D01*
X198024667Y-169486762D01*
X197929429Y-169534381D01*
X197738952Y-169534381D01*
X197643714Y-169486762D01*
X197596095Y-169439143D01*
X197548476Y-169343905D01*
X197548476Y-168534381D01*
X197119905Y-168629619D02*
X197072286Y-168582000D01*
X196977048Y-168534381D01*
X196738952Y-168534381D01*
X196643714Y-168582000D01*
X196596095Y-168629619D01*
X196548476Y-168724857D01*
X196548476Y-168820095D01*
X196596095Y-168962952D01*
X197167524Y-169534381D01*
X196548476Y-169534381D01*
X174243905Y-170434381D02*
X174243905Y-171243905D01*
X174196286Y-171339143D01*
X174148667Y-171386762D01*
X174053429Y-171434381D01*
X173862952Y-171434381D01*
X173767714Y-171386762D01*
X173720095Y-171339143D01*
X173672476Y-171243905D01*
X173672476Y-170434381D01*
X172672476Y-171434381D02*
X173243905Y-171434381D01*
X172958191Y-171434381D02*
X172958191Y-170434381D01*
X173053429Y-170577238D01*
X173148667Y-170672476D01*
X173243905Y-170720095D01*
X207716381Y-176141143D02*
X207240190Y-175807809D01*
X207716381Y-175569714D02*
X206716381Y-175569714D01*
X206716381Y-175950667D01*
X206764000Y-176045905D01*
X206811619Y-176093524D01*
X206906857Y-176141143D01*
X207049714Y-176141143D01*
X207144952Y-176093524D01*
X207192571Y-176045905D01*
X207240190Y-175950667D01*
X207240190Y-175569714D01*
X207716381Y-177093524D02*
X207716381Y-176522095D01*
X207716381Y-176807809D02*
X206716381Y-176807809D01*
X206859238Y-176712571D01*
X206954476Y-176617333D01*
X207002095Y-176522095D01*
X207144952Y-177664952D02*
X207097333Y-177569714D01*
X207049714Y-177522095D01*
X206954476Y-177474476D01*
X206906857Y-177474476D01*
X206811619Y-177522095D01*
X206764000Y-177569714D01*
X206716381Y-177664952D01*
X206716381Y-177855429D01*
X206764000Y-177950667D01*
X206811619Y-177998286D01*
X206906857Y-178045905D01*
X206954476Y-178045905D01*
X207049714Y-177998286D01*
X207097333Y-177950667D01*
X207144952Y-177855429D01*
X207144952Y-177664952D01*
X207192571Y-177569714D01*
X207240190Y-177522095D01*
X207335429Y-177474476D01*
X207525905Y-177474476D01*
X207621143Y-177522095D01*
X207668762Y-177569714D01*
X207716381Y-177664952D01*
X207716381Y-177855429D01*
X207668762Y-177950667D01*
X207621143Y-177998286D01*
X207525905Y-178045905D01*
X207335429Y-178045905D01*
X207240190Y-177998286D01*
X207192571Y-177950667D01*
X207144952Y-177855429D01*
X183776857Y-178252381D02*
X184110191Y-177776190D01*
X184348286Y-178252381D02*
X184348286Y-177252381D01*
X183967333Y-177252381D01*
X183872095Y-177300000D01*
X183824476Y-177347619D01*
X183776857Y-177442857D01*
X183776857Y-177585714D01*
X183824476Y-177680952D01*
X183872095Y-177728571D01*
X183967333Y-177776190D01*
X184348286Y-177776190D01*
X182824476Y-178252381D02*
X183395905Y-178252381D01*
X183110191Y-178252381D02*
X183110191Y-177252381D01*
X183205429Y-177395238D01*
X183300667Y-177490476D01*
X183395905Y-177538095D01*
X182491143Y-177252381D02*
X181824476Y-177252381D01*
X182253048Y-178252381D01*
X215336381Y-169283143D02*
X214860190Y-168949809D01*
X215336381Y-168711714D02*
X214336381Y-168711714D01*
X214336381Y-169092667D01*
X214384000Y-169187905D01*
X214431619Y-169235524D01*
X214526857Y-169283143D01*
X214669714Y-169283143D01*
X214764952Y-169235524D01*
X214812571Y-169187905D01*
X214860190Y-169092667D01*
X214860190Y-168711714D01*
X215336381Y-170235524D02*
X215336381Y-169664095D01*
X215336381Y-169949809D02*
X214336381Y-169949809D01*
X214479238Y-169854571D01*
X214574476Y-169759333D01*
X214622095Y-169664095D01*
X214336381Y-171140286D02*
X214336381Y-170664095D01*
X214812571Y-170616476D01*
X214764952Y-170664095D01*
X214717333Y-170759333D01*
X214717333Y-170997429D01*
X214764952Y-171092667D01*
X214812571Y-171140286D01*
X214907810Y-171187905D01*
X215145905Y-171187905D01*
X215241143Y-171140286D01*
X215288762Y-171092667D01*
X215336381Y-170997429D01*
X215336381Y-170759333D01*
X215288762Y-170664095D01*
X215241143Y-170616476D01*
X229242857Y-163774381D02*
X229576191Y-163298190D01*
X229814286Y-163774381D02*
X229814286Y-162774381D01*
X229433333Y-162774381D01*
X229338095Y-162822000D01*
X229290476Y-162869619D01*
X229242857Y-162964857D01*
X229242857Y-163107714D01*
X229290476Y-163202952D01*
X229338095Y-163250571D01*
X229433333Y-163298190D01*
X229814286Y-163298190D01*
X228290476Y-163774381D02*
X228861905Y-163774381D01*
X228576191Y-163774381D02*
X228576191Y-162774381D01*
X228671429Y-162917238D01*
X228766667Y-163012476D01*
X228861905Y-163060095D01*
X227433333Y-163107714D02*
X227433333Y-163774381D01*
X227671429Y-162726762D02*
X227909524Y-163441048D01*
X227290476Y-163441048D01*
X214320381Y-163441143D02*
X213844190Y-163107809D01*
X214320381Y-162869714D02*
X213320381Y-162869714D01*
X213320381Y-163250667D01*
X213368000Y-163345905D01*
X213415619Y-163393524D01*
X213510857Y-163441143D01*
X213653714Y-163441143D01*
X213748952Y-163393524D01*
X213796571Y-163345905D01*
X213844190Y-163250667D01*
X213844190Y-162869714D01*
X214320381Y-164393524D02*
X214320381Y-163822095D01*
X214320381Y-164107809D02*
X213320381Y-164107809D01*
X213463238Y-164012571D01*
X213558476Y-163917333D01*
X213606095Y-163822095D01*
X213320381Y-164726857D02*
X213320381Y-165345905D01*
X213701333Y-165012571D01*
X213701333Y-165155429D01*
X213748952Y-165250667D01*
X213796571Y-165298286D01*
X213891810Y-165345905D01*
X214129905Y-165345905D01*
X214225143Y-165298286D01*
X214272762Y-165250667D01*
X214320381Y-165155429D01*
X214320381Y-164869714D01*
X214272762Y-164774476D01*
X214225143Y-164726857D01*
X222384857Y-172918381D02*
X222718191Y-172442190D01*
X222956286Y-172918381D02*
X222956286Y-171918381D01*
X222575333Y-171918381D01*
X222480095Y-171966000D01*
X222432476Y-172013619D01*
X222384857Y-172108857D01*
X222384857Y-172251714D01*
X222432476Y-172346952D01*
X222480095Y-172394571D01*
X222575333Y-172442190D01*
X222956286Y-172442190D01*
X221432476Y-172918381D02*
X222003905Y-172918381D01*
X221718191Y-172918381D02*
X221718191Y-171918381D01*
X221813429Y-172061238D01*
X221908667Y-172156476D01*
X222003905Y-172204095D01*
X220480095Y-172918381D02*
X221051524Y-172918381D01*
X220765810Y-172918381D02*
X220765810Y-171918381D01*
X220861048Y-172061238D01*
X220956286Y-172156476D01*
X221051524Y-172204095D01*
X225496381Y-168013143D02*
X225020190Y-167679809D01*
X225496381Y-167441714D02*
X224496381Y-167441714D01*
X224496381Y-167822667D01*
X224544000Y-167917905D01*
X224591619Y-167965524D01*
X224686857Y-168013143D01*
X224829714Y-168013143D01*
X224924952Y-167965524D01*
X224972571Y-167917905D01*
X225020190Y-167822667D01*
X225020190Y-167441714D01*
X225496381Y-168965524D02*
X225496381Y-168394095D01*
X225496381Y-168679809D02*
X224496381Y-168679809D01*
X224639238Y-168584571D01*
X224734476Y-168489333D01*
X224782095Y-168394095D01*
X224496381Y-169584571D02*
X224496381Y-169679810D01*
X224544000Y-169775048D01*
X224591619Y-169822667D01*
X224686857Y-169870286D01*
X224877333Y-169917905D01*
X225115429Y-169917905D01*
X225305905Y-169870286D01*
X225401143Y-169822667D01*
X225448762Y-169775048D01*
X225496381Y-169679810D01*
X225496381Y-169584571D01*
X225448762Y-169489333D01*
X225401143Y-169441714D01*
X225305905Y-169394095D01*
X225115429Y-169346476D01*
X224877333Y-169346476D01*
X224686857Y-169394095D01*
X224591619Y-169441714D01*
X224544000Y-169489333D01*
X224496381Y-169584571D01*
X217590666Y-167330381D02*
X217924000Y-166854190D01*
X218162095Y-167330381D02*
X218162095Y-166330381D01*
X217781142Y-166330381D01*
X217685904Y-166378000D01*
X217638285Y-166425619D01*
X217590666Y-166520857D01*
X217590666Y-166663714D01*
X217638285Y-166758952D01*
X217685904Y-166806571D01*
X217781142Y-166854190D01*
X218162095Y-166854190D01*
X217114476Y-167330381D02*
X216924000Y-167330381D01*
X216828761Y-167282762D01*
X216781142Y-167235143D01*
X216685904Y-167092286D01*
X216638285Y-166901810D01*
X216638285Y-166520857D01*
X216685904Y-166425619D01*
X216733523Y-166378000D01*
X216828761Y-166330381D01*
X217019238Y-166330381D01*
X217114476Y-166378000D01*
X217162095Y-166425619D01*
X217209714Y-166520857D01*
X217209714Y-166758952D01*
X217162095Y-166854190D01*
X217114476Y-166901810D01*
X217019238Y-166949429D01*
X216828761Y-166949429D01*
X216733523Y-166901810D01*
X216685904Y-166854190D01*
X216638285Y-166758952D01*
X161488381Y-175855334D02*
X161012190Y-175522000D01*
X161488381Y-175283905D02*
X160488381Y-175283905D01*
X160488381Y-175664858D01*
X160536000Y-175760096D01*
X160583619Y-175807715D01*
X160678857Y-175855334D01*
X160821714Y-175855334D01*
X160916952Y-175807715D01*
X160964571Y-175760096D01*
X161012190Y-175664858D01*
X161012190Y-175283905D01*
X160916952Y-176426762D02*
X160869333Y-176331524D01*
X160821714Y-176283905D01*
X160726476Y-176236286D01*
X160678857Y-176236286D01*
X160583619Y-176283905D01*
X160536000Y-176331524D01*
X160488381Y-176426762D01*
X160488381Y-176617239D01*
X160536000Y-176712477D01*
X160583619Y-176760096D01*
X160678857Y-176807715D01*
X160726476Y-176807715D01*
X160821714Y-176760096D01*
X160869333Y-176712477D01*
X160916952Y-176617239D01*
X160916952Y-176426762D01*
X160964571Y-176331524D01*
X161012190Y-176283905D01*
X161107429Y-176236286D01*
X161297905Y-176236286D01*
X161393143Y-176283905D01*
X161440762Y-176331524D01*
X161488381Y-176426762D01*
X161488381Y-176617239D01*
X161440762Y-176712477D01*
X161393143Y-176760096D01*
X161297905Y-176807715D01*
X161107429Y-176807715D01*
X161012190Y-176760096D01*
X160964571Y-176712477D01*
X160916952Y-176617239D01*
X226766381Y-159599334D02*
X226290190Y-159266000D01*
X226766381Y-159027905D02*
X225766381Y-159027905D01*
X225766381Y-159408858D01*
X225814000Y-159504096D01*
X225861619Y-159551715D01*
X225956857Y-159599334D01*
X226099714Y-159599334D01*
X226194952Y-159551715D01*
X226242571Y-159504096D01*
X226290190Y-159408858D01*
X226290190Y-159027905D01*
X225766381Y-159932667D02*
X225766381Y-160599334D01*
X226766381Y-160170762D01*
X226480666Y-179268381D02*
X226814000Y-178792190D01*
X227052095Y-179268381D02*
X227052095Y-178268381D01*
X226671142Y-178268381D01*
X226575904Y-178316000D01*
X226528285Y-178363619D01*
X226480666Y-178458857D01*
X226480666Y-178601714D01*
X226528285Y-178696952D01*
X226575904Y-178744571D01*
X226671142Y-178792190D01*
X227052095Y-178792190D01*
X225623523Y-178268381D02*
X225814000Y-178268381D01*
X225909238Y-178316000D01*
X225956857Y-178363619D01*
X226052095Y-178506476D01*
X226099714Y-178696952D01*
X226099714Y-179077905D01*
X226052095Y-179173143D01*
X226004476Y-179220762D01*
X225909238Y-179268381D01*
X225718761Y-179268381D01*
X225623523Y-179220762D01*
X225575904Y-179173143D01*
X225528285Y-179077905D01*
X225528285Y-178839810D01*
X225575904Y-178744571D01*
X225623523Y-178696952D01*
X225718761Y-178649333D01*
X225909238Y-178649333D01*
X226004476Y-178696952D01*
X226052095Y-178744571D01*
X226099714Y-178839810D01*
X224702666Y-173426381D02*
X225036000Y-172950190D01*
X225274095Y-173426381D02*
X225274095Y-172426381D01*
X224893142Y-172426381D01*
X224797904Y-172474000D01*
X224750285Y-172521619D01*
X224702666Y-172616857D01*
X224702666Y-172759714D01*
X224750285Y-172854952D01*
X224797904Y-172902571D01*
X224893142Y-172950190D01*
X225274095Y-172950190D01*
X223797904Y-172426381D02*
X224274095Y-172426381D01*
X224321714Y-172902571D01*
X224274095Y-172854952D01*
X224178857Y-172807333D01*
X223940761Y-172807333D01*
X223845523Y-172854952D01*
X223797904Y-172902571D01*
X223750285Y-172997810D01*
X223750285Y-173235905D01*
X223797904Y-173331143D01*
X223845523Y-173378762D01*
X223940761Y-173426381D01*
X224178857Y-173426381D01*
X224274095Y-173378762D01*
X224321714Y-173331143D01*
X214542666Y-173426381D02*
X214876000Y-172950190D01*
X215114095Y-173426381D02*
X215114095Y-172426381D01*
X214733142Y-172426381D01*
X214637904Y-172474000D01*
X214590285Y-172521619D01*
X214542666Y-172616857D01*
X214542666Y-172759714D01*
X214590285Y-172854952D01*
X214637904Y-172902571D01*
X214733142Y-172950190D01*
X215114095Y-172950190D01*
X214209333Y-172426381D02*
X213590285Y-172426381D01*
X213923619Y-172807333D01*
X213780761Y-172807333D01*
X213685523Y-172854952D01*
X213637904Y-172902571D01*
X213590285Y-172997810D01*
X213590285Y-173235905D01*
X213637904Y-173331143D01*
X213685523Y-173378762D01*
X213780761Y-173426381D01*
X214066476Y-173426381D01*
X214161714Y-173378762D01*
X214209333Y-173331143D01*
X179998666Y-173172381D02*
X180332000Y-172696190D01*
X180570095Y-173172381D02*
X180570095Y-172172381D01*
X180189142Y-172172381D01*
X180093904Y-172220000D01*
X180046285Y-172267619D01*
X179998666Y-172362857D01*
X179998666Y-172505714D01*
X180046285Y-172600952D01*
X180093904Y-172648571D01*
X180189142Y-172696190D01*
X180570095Y-172696190D01*
X179617714Y-172267619D02*
X179570095Y-172220000D01*
X179474857Y-172172381D01*
X179236761Y-172172381D01*
X179141523Y-172220000D01*
X179093904Y-172267619D01*
X179046285Y-172362857D01*
X179046285Y-172458095D01*
X179093904Y-172600952D01*
X179665333Y-173172381D01*
X179046285Y-173172381D01*
X161488381Y-178903334D02*
X161012190Y-178570000D01*
X161488381Y-178331905D02*
X160488381Y-178331905D01*
X160488381Y-178712858D01*
X160536000Y-178808096D01*
X160583619Y-178855715D01*
X160678857Y-178903334D01*
X160821714Y-178903334D01*
X160916952Y-178855715D01*
X160964571Y-178808096D01*
X161012190Y-178712858D01*
X161012190Y-178331905D01*
X161488381Y-179855715D02*
X161488381Y-179284286D01*
X161488381Y-179570000D02*
X160488381Y-179570000D01*
X160631238Y-179474762D01*
X160726476Y-179379524D01*
X160774095Y-179284286D01*
X222599238Y-177839619D02*
X222694476Y-177792000D01*
X222789714Y-177696762D01*
X222932571Y-177553905D01*
X223027810Y-177506286D01*
X223123048Y-177506286D01*
X223075429Y-177744381D02*
X223170667Y-177696762D01*
X223265905Y-177601524D01*
X223313524Y-177411048D01*
X223313524Y-177077714D01*
X223265905Y-176887238D01*
X223170667Y-176792000D01*
X223075429Y-176744381D01*
X222884952Y-176744381D01*
X222789714Y-176792000D01*
X222694476Y-176887238D01*
X222646857Y-177077714D01*
X222646857Y-177411048D01*
X222694476Y-177601524D01*
X222789714Y-177696762D01*
X222884952Y-177744381D01*
X223075429Y-177744381D01*
X222265905Y-176839619D02*
X222218286Y-176792000D01*
X222123048Y-176744381D01*
X221884952Y-176744381D01*
X221789714Y-176792000D01*
X221742095Y-176839619D01*
X221694476Y-176934857D01*
X221694476Y-177030095D01*
X221742095Y-177172952D01*
X222313524Y-177744381D01*
X221694476Y-177744381D01*
X184634095Y-162798381D02*
X184634095Y-161798381D01*
X184396000Y-161798381D01*
X184253142Y-161846000D01*
X184157904Y-161941238D01*
X184110285Y-162036476D01*
X184062666Y-162226952D01*
X184062666Y-162369810D01*
X184110285Y-162560286D01*
X184157904Y-162655524D01*
X184253142Y-162750762D01*
X184396000Y-162798381D01*
X184634095Y-162798381D01*
X183681714Y-161893619D02*
X183634095Y-161846000D01*
X183538857Y-161798381D01*
X183300761Y-161798381D01*
X183205523Y-161846000D01*
X183157904Y-161893619D01*
X183110285Y-161988857D01*
X183110285Y-162084095D01*
X183157904Y-162226952D01*
X183729333Y-162798381D01*
X183110285Y-162798381D01*
X216892095Y-177744381D02*
X216892095Y-176744381D01*
X216654000Y-176744381D01*
X216511142Y-176792000D01*
X216415904Y-176887238D01*
X216368285Y-176982476D01*
X216320666Y-177172952D01*
X216320666Y-177315810D01*
X216368285Y-177506286D01*
X216415904Y-177601524D01*
X216511142Y-177696762D01*
X216654000Y-177744381D01*
X216892095Y-177744381D01*
X215368285Y-177744381D02*
X215939714Y-177744381D01*
X215654000Y-177744381D02*
X215654000Y-176744381D01*
X215749238Y-176887238D01*
X215844476Y-176982476D01*
X215939714Y-177030095D01*
X176863143Y-161409143D02*
X176910762Y-161361524D01*
X176958381Y-161218667D01*
X176958381Y-161123429D01*
X176910762Y-160980571D01*
X176815524Y-160885333D01*
X176720286Y-160837714D01*
X176529810Y-160790095D01*
X176386952Y-160790095D01*
X176196476Y-160837714D01*
X176101238Y-160885333D01*
X176006000Y-160980571D01*
X175958381Y-161123429D01*
X175958381Y-161218667D01*
X176006000Y-161361524D01*
X176053619Y-161409143D01*
X176958381Y-162361524D02*
X176958381Y-161790095D01*
X176958381Y-162075809D02*
X175958381Y-162075809D01*
X176101238Y-161980571D01*
X176196476Y-161885333D01*
X176244095Y-161790095D01*
X175958381Y-162694857D02*
X175958381Y-163313905D01*
X176339333Y-162980571D01*
X176339333Y-163123429D01*
X176386952Y-163218667D01*
X176434571Y-163266286D01*
X176529810Y-163313905D01*
X176767905Y-163313905D01*
X176863143Y-163266286D01*
X176910762Y-163218667D01*
X176958381Y-163123429D01*
X176958381Y-162837714D01*
X176910762Y-162742476D01*
X176863143Y-162694857D01*
X168735143Y-161409143D02*
X168782762Y-161361524D01*
X168830381Y-161218667D01*
X168830381Y-161123429D01*
X168782762Y-160980571D01*
X168687524Y-160885333D01*
X168592286Y-160837714D01*
X168401810Y-160790095D01*
X168258952Y-160790095D01*
X168068476Y-160837714D01*
X167973238Y-160885333D01*
X167878000Y-160980571D01*
X167830381Y-161123429D01*
X167830381Y-161218667D01*
X167878000Y-161361524D01*
X167925619Y-161409143D01*
X168830381Y-162361524D02*
X168830381Y-161790095D01*
X168830381Y-162075809D02*
X167830381Y-162075809D01*
X167973238Y-161980571D01*
X168068476Y-161885333D01*
X168116095Y-161790095D01*
X167925619Y-162742476D02*
X167878000Y-162790095D01*
X167830381Y-162885333D01*
X167830381Y-163123429D01*
X167878000Y-163218667D01*
X167925619Y-163266286D01*
X168020857Y-163313905D01*
X168116095Y-163313905D01*
X168258952Y-163266286D01*
X168830381Y-162694857D01*
X168830381Y-163313905D01*
X219336857Y-173331143D02*
X219384476Y-173378762D01*
X219527333Y-173426381D01*
X219622571Y-173426381D01*
X219765429Y-173378762D01*
X219860667Y-173283524D01*
X219908286Y-173188286D01*
X219955905Y-172997810D01*
X219955905Y-172854952D01*
X219908286Y-172664476D01*
X219860667Y-172569238D01*
X219765429Y-172474000D01*
X219622571Y-172426381D01*
X219527333Y-172426381D01*
X219384476Y-172474000D01*
X219336857Y-172521619D01*
X218384476Y-173426381D02*
X218955905Y-173426381D01*
X218670191Y-173426381D02*
X218670191Y-172426381D01*
X218765429Y-172569238D01*
X218860667Y-172664476D01*
X218955905Y-172712095D01*
X217765429Y-172426381D02*
X217670190Y-172426381D01*
X217574952Y-172474000D01*
X217527333Y-172521619D01*
X217479714Y-172616857D01*
X217432095Y-172807333D01*
X217432095Y-173045429D01*
X217479714Y-173235905D01*
X217527333Y-173331143D01*
X217574952Y-173378762D01*
X217670190Y-173426381D01*
X217765429Y-173426381D01*
X217860667Y-173378762D01*
X217908286Y-173331143D01*
X217955905Y-173235905D01*
X218003524Y-173045429D01*
X218003524Y-172807333D01*
X217955905Y-172616857D01*
X217908286Y-172521619D01*
X217860667Y-172474000D01*
X217765429Y-172426381D01*
X232005143Y-166711334D02*
X232052762Y-166663715D01*
X232100381Y-166520858D01*
X232100381Y-166425620D01*
X232052762Y-166282762D01*
X231957524Y-166187524D01*
X231862286Y-166139905D01*
X231671810Y-166092286D01*
X231528952Y-166092286D01*
X231338476Y-166139905D01*
X231243238Y-166187524D01*
X231148000Y-166282762D01*
X231100381Y-166425620D01*
X231100381Y-166520858D01*
X231148000Y-166663715D01*
X231195619Y-166711334D01*
X232100381Y-167187524D02*
X232100381Y-167378000D01*
X232052762Y-167473239D01*
X232005143Y-167520858D01*
X231862286Y-167616096D01*
X231671810Y-167663715D01*
X231290857Y-167663715D01*
X231195619Y-167616096D01*
X231148000Y-167568477D01*
X231100381Y-167473239D01*
X231100381Y-167282762D01*
X231148000Y-167187524D01*
X231195619Y-167139905D01*
X231290857Y-167092286D01*
X231528952Y-167092286D01*
X231624190Y-167139905D01*
X231671810Y-167187524D01*
X231719429Y-167282762D01*
X231719429Y-167473239D01*
X231671810Y-167568477D01*
X231624190Y-167616096D01*
X231528952Y-167663715D01*
X173585143Y-179411334D02*
X173632762Y-179363715D01*
X173680381Y-179220858D01*
X173680381Y-179125620D01*
X173632762Y-178982762D01*
X173537524Y-178887524D01*
X173442286Y-178839905D01*
X173251810Y-178792286D01*
X173108952Y-178792286D01*
X172918476Y-178839905D01*
X172823238Y-178887524D01*
X172728000Y-178982762D01*
X172680381Y-179125620D01*
X172680381Y-179220858D01*
X172728000Y-179363715D01*
X172775619Y-179411334D01*
X173108952Y-179982762D02*
X173061333Y-179887524D01*
X173013714Y-179839905D01*
X172918476Y-179792286D01*
X172870857Y-179792286D01*
X172775619Y-179839905D01*
X172728000Y-179887524D01*
X172680381Y-179982762D01*
X172680381Y-180173239D01*
X172728000Y-180268477D01*
X172775619Y-180316096D01*
X172870857Y-180363715D01*
X172918476Y-180363715D01*
X173013714Y-180316096D01*
X173061333Y-180268477D01*
X173108952Y-180173239D01*
X173108952Y-179982762D01*
X173156571Y-179887524D01*
X173204190Y-179839905D01*
X173299429Y-179792286D01*
X173489905Y-179792286D01*
X173585143Y-179839905D01*
X173632762Y-179887524D01*
X173680381Y-179982762D01*
X173680381Y-180173239D01*
X173632762Y-180268477D01*
X173585143Y-180316096D01*
X173489905Y-180363715D01*
X173299429Y-180363715D01*
X173204190Y-180316096D01*
X173156571Y-180268477D01*
X173108952Y-180173239D01*
X218289143Y-159599334D02*
X218336762Y-159551715D01*
X218384381Y-159408858D01*
X218384381Y-159313620D01*
X218336762Y-159170762D01*
X218241524Y-159075524D01*
X218146286Y-159027905D01*
X217955810Y-158980286D01*
X217812952Y-158980286D01*
X217622476Y-159027905D01*
X217527238Y-159075524D01*
X217432000Y-159170762D01*
X217384381Y-159313620D01*
X217384381Y-159408858D01*
X217432000Y-159551715D01*
X217479619Y-159599334D01*
X217384381Y-159932667D02*
X217384381Y-160599334D01*
X218384381Y-160170762D01*
X226417143Y-162647334D02*
X226464762Y-162599715D01*
X226512381Y-162456858D01*
X226512381Y-162361620D01*
X226464762Y-162218762D01*
X226369524Y-162123524D01*
X226274286Y-162075905D01*
X226083810Y-162028286D01*
X225940952Y-162028286D01*
X225750476Y-162075905D01*
X225655238Y-162123524D01*
X225560000Y-162218762D01*
X225512381Y-162361620D01*
X225512381Y-162456858D01*
X225560000Y-162599715D01*
X225607619Y-162647334D01*
X225512381Y-163504477D02*
X225512381Y-163314000D01*
X225560000Y-163218762D01*
X225607619Y-163171143D01*
X225750476Y-163075905D01*
X225940952Y-163028286D01*
X226321905Y-163028286D01*
X226417143Y-163075905D01*
X226464762Y-163123524D01*
X226512381Y-163218762D01*
X226512381Y-163409239D01*
X226464762Y-163504477D01*
X226417143Y-163552096D01*
X226321905Y-163599715D01*
X226083810Y-163599715D01*
X225988571Y-163552096D01*
X225940952Y-163504477D01*
X225893333Y-163409239D01*
X225893333Y-163218762D01*
X225940952Y-163123524D01*
X225988571Y-163075905D01*
X226083810Y-163028286D01*
X228766666Y-171045143D02*
X228814285Y-171092762D01*
X228957142Y-171140381D01*
X229052380Y-171140381D01*
X229195238Y-171092762D01*
X229290476Y-170997524D01*
X229338095Y-170902286D01*
X229385714Y-170711810D01*
X229385714Y-170568952D01*
X229338095Y-170378476D01*
X229290476Y-170283238D01*
X229195238Y-170188000D01*
X229052380Y-170140381D01*
X228957142Y-170140381D01*
X228814285Y-170188000D01*
X228766666Y-170235619D01*
X227861904Y-170140381D02*
X228338095Y-170140381D01*
X228385714Y-170616571D01*
X228338095Y-170568952D01*
X228242857Y-170521333D01*
X228004761Y-170521333D01*
X227909523Y-170568952D01*
X227861904Y-170616571D01*
X227814285Y-170711810D01*
X227814285Y-170949905D01*
X227861904Y-171045143D01*
X227909523Y-171092762D01*
X228004761Y-171140381D01*
X228242857Y-171140381D01*
X228338095Y-171092762D01*
X228385714Y-171045143D01*
X169076666Y-171323143D02*
X169124285Y-171370762D01*
X169267142Y-171418381D01*
X169362380Y-171418381D01*
X169505238Y-171370762D01*
X169600476Y-171275524D01*
X169648095Y-171180286D01*
X169695714Y-170989810D01*
X169695714Y-170846952D01*
X169648095Y-170656476D01*
X169600476Y-170561238D01*
X169505238Y-170466000D01*
X169362380Y-170418381D01*
X169267142Y-170418381D01*
X169124285Y-170466000D01*
X169076666Y-170513619D01*
X168219523Y-170751714D02*
X168219523Y-171418381D01*
X168457619Y-170370762D02*
X168695714Y-171085048D01*
X168076666Y-171085048D01*
X177966666Y-173077143D02*
X178014285Y-173124762D01*
X178157142Y-173172381D01*
X178252380Y-173172381D01*
X178395238Y-173124762D01*
X178490476Y-173029524D01*
X178538095Y-172934286D01*
X178585714Y-172743810D01*
X178585714Y-172600952D01*
X178538095Y-172410476D01*
X178490476Y-172315238D01*
X178395238Y-172220000D01*
X178252380Y-172172381D01*
X178157142Y-172172381D01*
X178014285Y-172220000D01*
X177966666Y-172267619D01*
X177585714Y-172267619D02*
X177538095Y-172220000D01*
X177442857Y-172172381D01*
X177204761Y-172172381D01*
X177109523Y-172220000D01*
X177061904Y-172267619D01*
X177014285Y-172362857D01*
X177014285Y-172458095D01*
X177061904Y-172600952D01*
X177633333Y-173172381D01*
X177014285Y-173172381D01*
X201017143Y-177887334D02*
X201064762Y-177839715D01*
X201112381Y-177696858D01*
X201112381Y-177601620D01*
X201064762Y-177458762D01*
X200969524Y-177363524D01*
X200874286Y-177315905D01*
X200683810Y-177268286D01*
X200540952Y-177268286D01*
X200350476Y-177315905D01*
X200255238Y-177363524D01*
X200160000Y-177458762D01*
X200112381Y-177601620D01*
X200112381Y-177696858D01*
X200160000Y-177839715D01*
X200207619Y-177887334D01*
X201112381Y-178839715D02*
X201112381Y-178268286D01*
X201112381Y-178554000D02*
X200112381Y-178554000D01*
X200255238Y-178458762D01*
X200350476Y-178363524D01*
X200398095Y-178268286D01*
M02*
