M48
;DRILL file {kicad (after 2015-mar-04 BZR unknown)-product} date Wed 25 Mar 2015 12:45:28 AM CDT
;FORMAT={2:4/ absolute / inch / keep zeros}
FMAT,2
INCH,TZ
T1C0.025
T2C0.032
T3C0.033
T4C0.040
T5C0.059
T6C0.120
%
G90
G05
M72
T1
X063900Y-063900
X064600Y-069900
X065400Y-068700
X066400Y-063000
X067200Y-069200
X068300Y-069200
X069300Y-069000
X069400Y-070100
X070700Y-070800
X077200Y-070700
X078100Y-067700
X080300Y-065200
X081700Y-065400
X081700Y-066000
X082300Y-065400
X082300Y-066000
X082900Y-065400
X082900Y-066000
X083200Y-063600
X083200Y-064200
X083200Y-064800
X083500Y-065400
X083500Y-066000
X083800Y-063600
X083800Y-064200
X083800Y-064800
X084100Y-065400
X084100Y-066000
X086400Y-069700
X087500Y-065500
X087800Y-065100
X088600Y-066500
X088800Y-067300
X088900Y-068100
X089000Y-063500
T2
X074700Y-069400
X074700Y-070400
X081800Y-070676
X082800Y-070724
X083800Y-070676
X084800Y-070724
X086400Y-070724
X087400Y-070676
X088400Y-070724
T3
X070019Y-066100
X070806Y-066100
X071594Y-066100
X072381Y-066100
T4
X067700Y-066200
X090200Y-063700
T5
X092100Y-065700
X092100Y-068100
T6
X061200Y-063850
X061200Y-069950
X092550Y-063550
X092550Y-070250
T0
M30
