G04 #@! TF.FileFunction,Legend,Top*
%FSLAX46Y46*%
G04 Gerber Fmt 4.6, Leading zero omitted, Abs format (unit mm)*
G04 Created by KiCad (PCBNEW (after 2015-mar-04 BZR unknown)-product) date Wed 25 Mar 2015 12:28:00 AM CDT*
%MOMM*%
G01*
G04 APERTURE LIST*
%ADD10C,0.150000*%
%ADD11C,0.300000*%
%ADD12C,0.200000*%
%ADD13C,0.381000*%
%ADD14C,0.254000*%
G04 APERTURE END LIST*
D10*
D11*
X188962571Y-171425428D02*
X187462571Y-171425428D01*
X188176857Y-171425428D02*
X188176857Y-170568285D01*
X188962571Y-170568285D02*
X187462571Y-170568285D01*
X188534000Y-169925428D02*
X188534000Y-169211142D01*
X188962571Y-170068285D02*
X187462571Y-169568285D01*
X188962571Y-169068285D01*
X188176857Y-168068285D02*
X188248286Y-167853999D01*
X188319714Y-167782571D01*
X188462571Y-167711142D01*
X188676857Y-167711142D01*
X188819714Y-167782571D01*
X188891143Y-167853999D01*
X188962571Y-167996857D01*
X188962571Y-168568285D01*
X187462571Y-168568285D01*
X187462571Y-168068285D01*
X187534000Y-167925428D01*
X187605429Y-167853999D01*
X187748286Y-167782571D01*
X187891143Y-167782571D01*
X188034000Y-167853999D01*
X188105429Y-167925428D01*
X188176857Y-168068285D01*
X188176857Y-168568285D01*
X188176857Y-165425428D02*
X188248286Y-165211142D01*
X188319714Y-165139714D01*
X188462571Y-165068285D01*
X188676857Y-165068285D01*
X188819714Y-165139714D01*
X188891143Y-165211142D01*
X188962571Y-165354000D01*
X188962571Y-165925428D01*
X187462571Y-165925428D01*
X187462571Y-165425428D01*
X187534000Y-165282571D01*
X187605429Y-165211142D01*
X187748286Y-165139714D01*
X187891143Y-165139714D01*
X188034000Y-165211142D01*
X188105429Y-165282571D01*
X188176857Y-165425428D01*
X188176857Y-165925428D01*
X187962571Y-163782571D02*
X188962571Y-163782571D01*
X187962571Y-164425428D02*
X188748286Y-164425428D01*
X188891143Y-164354000D01*
X188962571Y-164211142D01*
X188962571Y-163996857D01*
X188891143Y-163854000D01*
X188819714Y-163782571D01*
X188962571Y-163068285D02*
X187962571Y-163068285D01*
X188248286Y-163068285D02*
X188105429Y-162996857D01*
X188034000Y-162925428D01*
X187962571Y-162782571D01*
X187962571Y-162639714D01*
X187962571Y-162139714D02*
X188962571Y-162139714D01*
X188105429Y-162139714D02*
X188034000Y-162068286D01*
X187962571Y-161925428D01*
X187962571Y-161711143D01*
X188034000Y-161568286D01*
X188176857Y-161496857D01*
X188962571Y-161496857D01*
X188891143Y-160211143D02*
X188962571Y-160354000D01*
X188962571Y-160639714D01*
X188891143Y-160782571D01*
X188748286Y-160854000D01*
X188176857Y-160854000D01*
X188034000Y-160782571D01*
X187962571Y-160639714D01*
X187962571Y-160354000D01*
X188034000Y-160211143D01*
X188176857Y-160139714D01*
X188319714Y-160139714D01*
X188462571Y-160854000D01*
X188962571Y-159496857D02*
X187962571Y-159496857D01*
X188248286Y-159496857D02*
X188105429Y-159425429D01*
X188034000Y-159354000D01*
X187962571Y-159211143D01*
X187962571Y-159068286D01*
X191362571Y-167425428D02*
X190648286Y-167925428D01*
X191362571Y-168282571D02*
X189862571Y-168282571D01*
X189862571Y-167711143D01*
X189934000Y-167568285D01*
X190005429Y-167496857D01*
X190148286Y-167425428D01*
X190362571Y-167425428D01*
X190505429Y-167496857D01*
X190576857Y-167568285D01*
X190648286Y-167711143D01*
X190648286Y-168282571D01*
X191291143Y-166211143D02*
X191362571Y-166354000D01*
X191362571Y-166639714D01*
X191291143Y-166782571D01*
X191148286Y-166854000D01*
X190576857Y-166854000D01*
X190434000Y-166782571D01*
X190362571Y-166639714D01*
X190362571Y-166354000D01*
X190434000Y-166211143D01*
X190576857Y-166139714D01*
X190719714Y-166139714D01*
X190862571Y-166854000D01*
X190362571Y-165639714D02*
X191362571Y-165282571D01*
X190362571Y-164925429D01*
X190576857Y-162711143D02*
X190648286Y-162496857D01*
X190719714Y-162425429D01*
X190862571Y-162354000D01*
X191076857Y-162354000D01*
X191219714Y-162425429D01*
X191291143Y-162496857D01*
X191362571Y-162639715D01*
X191362571Y-163211143D01*
X189862571Y-163211143D01*
X189862571Y-162711143D01*
X189934000Y-162568286D01*
X190005429Y-162496857D01*
X190148286Y-162425429D01*
X190291143Y-162425429D01*
X190434000Y-162496857D01*
X190505429Y-162568286D01*
X190576857Y-162711143D01*
X190576857Y-163211143D01*
X174822000Y-159306000D02*
X174822000Y-165306000D01*
D10*
X172522000Y-165406000D02*
X172522000Y-159206000D01*
X172522000Y-159206000D02*
X179522000Y-159206000D01*
X179522000Y-159206000D02*
X179522000Y-165406000D01*
X179522000Y-165406000D02*
X172522000Y-165406000D01*
D11*
X174522000Y-159306000D02*
X174522000Y-165306000D01*
D12*
X175260000Y-169960000D02*
X175260000Y-180560000D01*
X175260000Y-180560000D02*
X186960000Y-180560000D01*
X186960000Y-180560000D02*
X186960000Y-169960000D01*
X186960000Y-169960000D02*
X175260000Y-169960000D01*
D10*
X199335607Y-164560000D02*
G75*
G03X199335607Y-164560000I-223607J0D01*
G01*
X195612000Y-165060000D02*
X195612000Y-160060000D01*
X195612000Y-160060000D02*
X199612000Y-160060000D01*
X199612000Y-160060000D02*
X199612000Y-165060000D01*
X199612000Y-165060000D02*
X195612000Y-165060000D01*
X165553607Y-179800000D02*
G75*
G03X165553607Y-179800000I-223607J0D01*
G01*
X161830000Y-180300000D02*
X161830000Y-175300000D01*
X161830000Y-175300000D02*
X165830000Y-175300000D01*
X165830000Y-175300000D02*
X165830000Y-180300000D01*
X165830000Y-180300000D02*
X161830000Y-180300000D01*
X224275607Y-170974000D02*
G75*
G03X224275607Y-170974000I-223607J0D01*
G01*
X227552000Y-170474000D02*
X227552000Y-175474000D01*
X227552000Y-175474000D02*
X223552000Y-175474000D01*
X223552000Y-175474000D02*
X223552000Y-170474000D01*
X223552000Y-170474000D02*
X227552000Y-170474000D01*
X184848000Y-169094000D02*
X184848000Y-166794000D01*
X178848000Y-166694000D02*
X178848000Y-169094000D01*
X184848000Y-169094000D02*
X176848000Y-169094000D01*
X176848000Y-169094000D02*
X176848000Y-166694000D01*
X176848000Y-166694000D02*
X184848000Y-166694000D01*
X205582000Y-166012000D02*
X205582000Y-178412000D01*
X205582000Y-178412000D02*
X192182000Y-178412000D01*
X192182000Y-178412000D02*
X192182000Y-166012000D01*
X192182000Y-166012000D02*
X205582000Y-166012000D01*
X167662000Y-163570000D02*
X167662000Y-162570000D01*
X167162000Y-163070000D02*
X168162000Y-163070000D01*
X170062000Y-170570000D02*
X170062000Y-164570000D01*
X161662000Y-164470000D02*
X161662000Y-170570000D01*
X163362000Y-162170000D02*
X168362000Y-162170000D01*
X161662000Y-164470000D02*
X163362000Y-162170000D01*
X170062000Y-164570000D02*
X168362000Y-162170000D01*
X170062000Y-170570000D02*
X161662000Y-170570000D01*
X213592000Y-170694000D02*
X213592000Y-171694000D01*
X214092000Y-171194000D02*
X213092000Y-171194000D01*
X211192000Y-163694000D02*
X211192000Y-169694000D01*
X219592000Y-169794000D02*
X219592000Y-163694000D01*
X217892000Y-172094000D02*
X212892000Y-172094000D01*
X219592000Y-169794000D02*
X217892000Y-172094000D01*
X211192000Y-169694000D02*
X212892000Y-172094000D01*
X211192000Y-163694000D02*
X219592000Y-163694000D01*
D13*
X157734000Y-177673000D02*
G75*
G03X157734000Y-177673000I-2286000J0D01*
G01*
X157734000Y-162179000D02*
G75*
G03X157734000Y-162179000I-2286000J0D01*
G01*
X237363000Y-161417000D02*
G75*
G03X237363000Y-161417000I-2286000J0D01*
G01*
X237363000Y-178435000D02*
G75*
G03X237363000Y-178435000I-2286000J0D01*
G01*
D14*
X190938000Y-177546000D02*
X188538000Y-177546000D01*
X188538000Y-180146000D02*
X188538000Y-174946000D01*
X188538000Y-174946000D02*
X190938000Y-174946000D01*
X190938000Y-174946000D02*
X190938000Y-180146000D01*
X190938000Y-180146000D02*
X188538000Y-180146000D01*
X216782000Y-178378000D02*
X206382000Y-178378000D01*
X206382000Y-180778000D02*
X216782000Y-180778000D01*
X206382000Y-178378000D02*
X206382000Y-180778000D01*
X208982000Y-180778000D02*
X208982000Y-178378000D01*
X216782000Y-178378000D02*
X216782000Y-180778000D01*
X220796000Y-178378000D02*
X220796000Y-180778000D01*
X218396000Y-180778000D02*
X225796000Y-180778000D01*
X225796000Y-180778000D02*
X225796000Y-178578000D01*
X225796000Y-178578000D02*
X225796000Y-178378000D01*
X225796000Y-178378000D02*
X218196000Y-178378000D01*
X218196000Y-178378000D02*
X218196000Y-180778000D01*
X218196000Y-180778000D02*
X218396000Y-180778000D01*
D10*
X221950000Y-160690000D02*
X221950000Y-160590000D01*
X221950000Y-161990000D02*
X221950000Y-160690000D01*
X221950000Y-161290000D02*
X222650000Y-162090000D01*
X222650000Y-160490000D02*
X221950000Y-161290000D01*
X222650000Y-160490000D02*
X222650000Y-162090000D01*
X213914000Y-177384000D02*
X213914000Y-177484000D01*
X213914000Y-176084000D02*
X213914000Y-177384000D01*
X213914000Y-176784000D02*
X213214000Y-175984000D01*
X213214000Y-177584000D02*
X213914000Y-176784000D01*
X213214000Y-177584000D02*
X213214000Y-175984000D01*
X226742381Y-165996857D02*
X226266190Y-166330191D01*
X226742381Y-166568286D02*
X225742381Y-166568286D01*
X225742381Y-166187333D01*
X225790000Y-166092095D01*
X225837619Y-166044476D01*
X225932857Y-165996857D01*
X226075714Y-165996857D01*
X226170952Y-166044476D01*
X226218571Y-166092095D01*
X226266190Y-166187333D01*
X226266190Y-166568286D01*
X225837619Y-165615905D02*
X225790000Y-165568286D01*
X225742381Y-165473048D01*
X225742381Y-165234952D01*
X225790000Y-165139714D01*
X225837619Y-165092095D01*
X225932857Y-165044476D01*
X226028095Y-165044476D01*
X226170952Y-165092095D01*
X226742381Y-165663524D01*
X226742381Y-165044476D01*
X225742381Y-164425429D02*
X225742381Y-164330190D01*
X225790000Y-164234952D01*
X225837619Y-164187333D01*
X225932857Y-164139714D01*
X226123333Y-164092095D01*
X226361429Y-164092095D01*
X226551905Y-164139714D01*
X226647143Y-164187333D01*
X226694762Y-164234952D01*
X226742381Y-164330190D01*
X226742381Y-164425429D01*
X226694762Y-164520667D01*
X226647143Y-164568286D01*
X226551905Y-164615905D01*
X226361429Y-164663524D01*
X226123333Y-164663524D01*
X225932857Y-164615905D01*
X225837619Y-164568286D01*
X225790000Y-164520667D01*
X225742381Y-164425429D01*
X207637143Y-175712381D02*
X207303809Y-175236190D01*
X207065714Y-175712381D02*
X207065714Y-174712381D01*
X207446667Y-174712381D01*
X207541905Y-174760000D01*
X207589524Y-174807619D01*
X207637143Y-174902857D01*
X207637143Y-175045714D01*
X207589524Y-175140952D01*
X207541905Y-175188571D01*
X207446667Y-175236190D01*
X207065714Y-175236190D01*
X208589524Y-175712381D02*
X208018095Y-175712381D01*
X208303809Y-175712381D02*
X208303809Y-174712381D01*
X208208571Y-174855238D01*
X208113333Y-174950476D01*
X208018095Y-174998095D01*
X209065714Y-175712381D02*
X209256190Y-175712381D01*
X209351429Y-175664762D01*
X209399048Y-175617143D01*
X209494286Y-175474286D01*
X209541905Y-175283810D01*
X209541905Y-174902857D01*
X209494286Y-174807619D01*
X209446667Y-174760000D01*
X209351429Y-174712381D01*
X209160952Y-174712381D01*
X209065714Y-174760000D01*
X209018095Y-174807619D01*
X208970476Y-174902857D01*
X208970476Y-175140952D01*
X209018095Y-175236190D01*
X209065714Y-175283810D01*
X209160952Y-175331429D01*
X209351429Y-175331429D01*
X209446667Y-175283810D01*
X209494286Y-175236190D01*
X209541905Y-175140952D01*
X227893714Y-163950381D02*
X227893714Y-162950381D01*
X228274667Y-162950381D01*
X228369905Y-162998000D01*
X228417524Y-163045619D01*
X228465143Y-163140857D01*
X228465143Y-163283714D01*
X228417524Y-163378952D01*
X228369905Y-163426571D01*
X228274667Y-163474190D01*
X227893714Y-163474190D01*
X229417524Y-163950381D02*
X228846095Y-163950381D01*
X229131809Y-163950381D02*
X229131809Y-162950381D01*
X229036571Y-163093238D01*
X228941333Y-163188476D01*
X228846095Y-163236095D01*
X230036571Y-162950381D02*
X230131810Y-162950381D01*
X230227048Y-162998000D01*
X230274667Y-163045619D01*
X230322286Y-163140857D01*
X230369905Y-163331333D01*
X230369905Y-163569429D01*
X230322286Y-163759905D01*
X230274667Y-163855143D01*
X230227048Y-163902762D01*
X230131810Y-163950381D01*
X230036571Y-163950381D01*
X229941333Y-163902762D01*
X229893714Y-163855143D01*
X229846095Y-163759905D01*
X229798476Y-163569429D01*
X229798476Y-163331333D01*
X229846095Y-163140857D01*
X229893714Y-163045619D01*
X229941333Y-162998000D01*
X230036571Y-162950381D01*
X171219905Y-170300381D02*
X171219905Y-169300381D01*
X171600858Y-169300381D01*
X171696096Y-169348000D01*
X171743715Y-169395619D01*
X171791334Y-169490857D01*
X171791334Y-169633714D01*
X171743715Y-169728952D01*
X171696096Y-169776571D01*
X171600858Y-169824190D01*
X171219905Y-169824190D01*
X172267524Y-170300381D02*
X172458000Y-170300381D01*
X172553239Y-170252762D01*
X172600858Y-170205143D01*
X172696096Y-170062286D01*
X172743715Y-169871810D01*
X172743715Y-169490857D01*
X172696096Y-169395619D01*
X172648477Y-169348000D01*
X172553239Y-169300381D01*
X172362762Y-169300381D01*
X172267524Y-169348000D01*
X172219905Y-169395619D01*
X172172286Y-169490857D01*
X172172286Y-169728952D01*
X172219905Y-169824190D01*
X172267524Y-169871810D01*
X172362762Y-169919429D01*
X172553239Y-169919429D01*
X172648477Y-169871810D01*
X172696096Y-169824190D01*
X172743715Y-169728952D01*
X233195905Y-175126381D02*
X233195905Y-174126381D01*
X233576858Y-174126381D01*
X233672096Y-174174000D01*
X233719715Y-174221619D01*
X233767334Y-174316857D01*
X233767334Y-174459714D01*
X233719715Y-174554952D01*
X233672096Y-174602571D01*
X233576858Y-174650190D01*
X233195905Y-174650190D01*
X234148286Y-174221619D02*
X234195905Y-174174000D01*
X234291143Y-174126381D01*
X234529239Y-174126381D01*
X234624477Y-174174000D01*
X234672096Y-174221619D01*
X234719715Y-174316857D01*
X234719715Y-174412095D01*
X234672096Y-174554952D01*
X234100667Y-175126381D01*
X234719715Y-175126381D01*
X233195905Y-169030381D02*
X233195905Y-168030381D01*
X233576858Y-168030381D01*
X233672096Y-168078000D01*
X233719715Y-168125619D01*
X233767334Y-168220857D01*
X233767334Y-168363714D01*
X233719715Y-168458952D01*
X233672096Y-168506571D01*
X233576858Y-168554190D01*
X233195905Y-168554190D01*
X234338762Y-168458952D02*
X234243524Y-168411333D01*
X234195905Y-168363714D01*
X234148286Y-168268476D01*
X234148286Y-168220857D01*
X234195905Y-168125619D01*
X234243524Y-168078000D01*
X234338762Y-168030381D01*
X234529239Y-168030381D01*
X234624477Y-168078000D01*
X234672096Y-168125619D01*
X234719715Y-168220857D01*
X234719715Y-168268476D01*
X234672096Y-168363714D01*
X234624477Y-168411333D01*
X234529239Y-168458952D01*
X234338762Y-168458952D01*
X234243524Y-168506571D01*
X234195905Y-168554190D01*
X234148286Y-168649429D01*
X234148286Y-168839905D01*
X234195905Y-168935143D01*
X234243524Y-168982762D01*
X234338762Y-169030381D01*
X234529239Y-169030381D01*
X234624477Y-168982762D01*
X234672096Y-168935143D01*
X234719715Y-168839905D01*
X234719715Y-168649429D01*
X234672096Y-168554190D01*
X234624477Y-168506571D01*
X234529239Y-168458952D01*
X175283905Y-166568381D02*
X175283905Y-165568381D01*
X175522000Y-165568381D01*
X175664858Y-165616000D01*
X175760096Y-165711238D01*
X175807715Y-165806476D01*
X175855334Y-165996952D01*
X175855334Y-166139810D01*
X175807715Y-166330286D01*
X175760096Y-166425524D01*
X175664858Y-166520762D01*
X175522000Y-166568381D01*
X175283905Y-166568381D01*
X176188667Y-165568381D02*
X176807715Y-165568381D01*
X176474381Y-165949333D01*
X176617239Y-165949333D01*
X176712477Y-165996952D01*
X176760096Y-166044571D01*
X176807715Y-166139810D01*
X176807715Y-166377905D01*
X176760096Y-166473143D01*
X176712477Y-166520762D01*
X176617239Y-166568381D01*
X176331524Y-166568381D01*
X176236286Y-166520762D01*
X176188667Y-166473143D01*
X174363143Y-169362381D02*
X174029809Y-168886190D01*
X173791714Y-169362381D02*
X173791714Y-168362381D01*
X174172667Y-168362381D01*
X174267905Y-168410000D01*
X174315524Y-168457619D01*
X174363143Y-168552857D01*
X174363143Y-168695714D01*
X174315524Y-168790952D01*
X174267905Y-168838571D01*
X174172667Y-168886190D01*
X173791714Y-168886190D01*
X175315524Y-169362381D02*
X174744095Y-169362381D01*
X175029809Y-169362381D02*
X175029809Y-168362381D01*
X174934571Y-168505238D01*
X174839333Y-168600476D01*
X174744095Y-168648095D01*
X175696476Y-168457619D02*
X175744095Y-168410000D01*
X175839333Y-168362381D01*
X176077429Y-168362381D01*
X176172667Y-168410000D01*
X176220286Y-168457619D01*
X176267905Y-168552857D01*
X176267905Y-168648095D01*
X176220286Y-168790952D01*
X175648857Y-169362381D01*
X176267905Y-169362381D01*
X226258381Y-177204666D02*
X225782190Y-177538000D01*
X226258381Y-177776095D02*
X225258381Y-177776095D01*
X225258381Y-177395142D01*
X225306000Y-177299904D01*
X225353619Y-177252285D01*
X225448857Y-177204666D01*
X225591714Y-177204666D01*
X225686952Y-177252285D01*
X225734571Y-177299904D01*
X225782190Y-177395142D01*
X225782190Y-177776095D01*
X225591714Y-176347523D02*
X226258381Y-176347523D01*
X225210762Y-176585619D02*
X225925048Y-176823714D01*
X225925048Y-176204666D01*
X197516762Y-160059619D02*
X197421524Y-160012000D01*
X197326286Y-159916762D01*
X197183429Y-159773905D01*
X197088190Y-159726286D01*
X196992952Y-159726286D01*
X197040571Y-159964381D02*
X196945333Y-159916762D01*
X196850095Y-159821524D01*
X196802476Y-159631048D01*
X196802476Y-159297714D01*
X196850095Y-159107238D01*
X196945333Y-159012000D01*
X197040571Y-158964381D01*
X197231048Y-158964381D01*
X197326286Y-159012000D01*
X197421524Y-159107238D01*
X197469143Y-159297714D01*
X197469143Y-159631048D01*
X197421524Y-159821524D01*
X197326286Y-159916762D01*
X197231048Y-159964381D01*
X197040571Y-159964381D01*
X198326286Y-159297714D02*
X198326286Y-159964381D01*
X198088190Y-158916762D02*
X197850095Y-159631048D01*
X198469143Y-159631048D01*
X163734762Y-174847619D02*
X163639524Y-174800000D01*
X163544286Y-174704762D01*
X163401429Y-174561905D01*
X163306190Y-174514286D01*
X163210952Y-174514286D01*
X163258571Y-174752381D02*
X163163333Y-174704762D01*
X163068095Y-174609524D01*
X163020476Y-174419048D01*
X163020476Y-174085714D01*
X163068095Y-173895238D01*
X163163333Y-173800000D01*
X163258571Y-173752381D01*
X163449048Y-173752381D01*
X163544286Y-173800000D01*
X163639524Y-173895238D01*
X163687143Y-174085714D01*
X163687143Y-174419048D01*
X163639524Y-174609524D01*
X163544286Y-174704762D01*
X163449048Y-174752381D01*
X163258571Y-174752381D01*
X164020476Y-173752381D02*
X164639524Y-173752381D01*
X164306190Y-174133333D01*
X164449048Y-174133333D01*
X164544286Y-174180952D01*
X164591905Y-174228571D01*
X164639524Y-174323810D01*
X164639524Y-174561905D01*
X164591905Y-174657143D01*
X164544286Y-174704762D01*
X164449048Y-174752381D01*
X164163333Y-174752381D01*
X164068095Y-174704762D01*
X164020476Y-174657143D01*
X226726762Y-170219619D02*
X226631524Y-170172000D01*
X226536286Y-170076762D01*
X226393429Y-169933905D01*
X226298190Y-169886286D01*
X226202952Y-169886286D01*
X226250571Y-170124381D02*
X226155333Y-170076762D01*
X226060095Y-169981524D01*
X226012476Y-169791048D01*
X226012476Y-169457714D01*
X226060095Y-169267238D01*
X226155333Y-169172000D01*
X226250571Y-169124381D01*
X226441048Y-169124381D01*
X226536286Y-169172000D01*
X226631524Y-169267238D01*
X226679143Y-169457714D01*
X226679143Y-169791048D01*
X226631524Y-169981524D01*
X226536286Y-170076762D01*
X226441048Y-170124381D01*
X226250571Y-170124381D01*
X227631524Y-170124381D02*
X227060095Y-170124381D01*
X227345809Y-170124381D02*
X227345809Y-169124381D01*
X227250571Y-169267238D01*
X227155333Y-169362476D01*
X227060095Y-169410095D01*
X185189905Y-168346381D02*
X185189905Y-167346381D01*
X185570858Y-167346381D01*
X185666096Y-167394000D01*
X185713715Y-167441619D01*
X185761334Y-167536857D01*
X185761334Y-167679714D01*
X185713715Y-167774952D01*
X185666096Y-167822571D01*
X185570858Y-167870190D01*
X185189905Y-167870190D01*
X186666096Y-167346381D02*
X186189905Y-167346381D01*
X186142286Y-167822571D01*
X186189905Y-167774952D01*
X186285143Y-167727333D01*
X186523239Y-167727333D01*
X186618477Y-167774952D01*
X186666096Y-167822571D01*
X186713715Y-167917810D01*
X186713715Y-168155905D01*
X186666096Y-168251143D01*
X186618477Y-168298762D01*
X186523239Y-168346381D01*
X186285143Y-168346381D01*
X186189905Y-168298762D01*
X186142286Y-168251143D01*
X198715334Y-179964381D02*
X198239143Y-179964381D01*
X198239143Y-178964381D01*
X199572477Y-179964381D02*
X199001048Y-179964381D01*
X199286762Y-179964381D02*
X199286762Y-178964381D01*
X199191524Y-179107238D01*
X199096286Y-179202476D01*
X199001048Y-179250095D01*
X171299143Y-166250857D02*
X171346762Y-166298476D01*
X171394381Y-166441333D01*
X171394381Y-166536571D01*
X171346762Y-166679429D01*
X171251524Y-166774667D01*
X171156286Y-166822286D01*
X170965810Y-166869905D01*
X170822952Y-166869905D01*
X170632476Y-166822286D01*
X170537238Y-166774667D01*
X170442000Y-166679429D01*
X170394381Y-166536571D01*
X170394381Y-166441333D01*
X170442000Y-166298476D01*
X170489619Y-166250857D01*
X171394381Y-165298476D02*
X171394381Y-165869905D01*
X171394381Y-165584191D02*
X170394381Y-165584191D01*
X170537238Y-165679429D01*
X170632476Y-165774667D01*
X170680095Y-165869905D01*
X171394381Y-164346095D02*
X171394381Y-164917524D01*
X171394381Y-164631810D02*
X170394381Y-164631810D01*
X170537238Y-164727048D01*
X170632476Y-164822286D01*
X170680095Y-164917524D01*
X221149143Y-168060666D02*
X221196762Y-168108285D01*
X221244381Y-168251142D01*
X221244381Y-168346380D01*
X221196762Y-168489238D01*
X221101524Y-168584476D01*
X221006286Y-168632095D01*
X220815810Y-168679714D01*
X220672952Y-168679714D01*
X220482476Y-168632095D01*
X220387238Y-168584476D01*
X220292000Y-168489238D01*
X220244381Y-168346380D01*
X220244381Y-168251142D01*
X220292000Y-168108285D01*
X220339619Y-168060666D01*
X220244381Y-167727333D02*
X220244381Y-167108285D01*
X220625333Y-167441619D01*
X220625333Y-167298761D01*
X220672952Y-167203523D01*
X220720571Y-167155904D01*
X220815810Y-167108285D01*
X221053905Y-167108285D01*
X221149143Y-167155904D01*
X221196762Y-167203523D01*
X221244381Y-167298761D01*
X221244381Y-167584476D01*
X221196762Y-167679714D01*
X221149143Y-167727333D01*
X190190381Y-174474095D02*
X189190381Y-174474095D01*
X189190381Y-174093142D01*
X189238000Y-173997904D01*
X189285619Y-173950285D01*
X189380857Y-173902666D01*
X189523714Y-173902666D01*
X189618952Y-173950285D01*
X189666571Y-173997904D01*
X189714190Y-174093142D01*
X189714190Y-174474095D01*
X190190381Y-172950285D02*
X190190381Y-173521714D01*
X190190381Y-173236000D02*
X189190381Y-173236000D01*
X189333238Y-173331238D01*
X189428476Y-173426476D01*
X189476095Y-173521714D01*
X204493905Y-180030381D02*
X204493905Y-179030381D01*
X204874858Y-179030381D01*
X204970096Y-179078000D01*
X205017715Y-179125619D01*
X205065334Y-179220857D01*
X205065334Y-179363714D01*
X205017715Y-179458952D01*
X204970096Y-179506571D01*
X204874858Y-179554190D01*
X204493905Y-179554190D01*
X205398667Y-179030381D02*
X206065334Y-179030381D01*
X205636762Y-180030381D01*
X226337905Y-180030381D02*
X226337905Y-179030381D01*
X226718858Y-179030381D01*
X226814096Y-179078000D01*
X226861715Y-179125619D01*
X226909334Y-179220857D01*
X226909334Y-179363714D01*
X226861715Y-179458952D01*
X226814096Y-179506571D01*
X226718858Y-179554190D01*
X226337905Y-179554190D01*
X227766477Y-179363714D02*
X227766477Y-180030381D01*
X227528381Y-178982762D02*
X227290286Y-179697048D01*
X227909334Y-179697048D01*
X221511905Y-159842381D02*
X221511905Y-158842381D01*
X221750000Y-158842381D01*
X221892858Y-158890000D01*
X221988096Y-158985238D01*
X222035715Y-159080476D01*
X222083334Y-159270952D01*
X222083334Y-159413810D01*
X222035715Y-159604286D01*
X221988096Y-159699524D01*
X221892858Y-159794762D01*
X221750000Y-159842381D01*
X221511905Y-159842381D01*
X222940477Y-159175714D02*
X222940477Y-159842381D01*
X222702381Y-158794762D02*
X222464286Y-159509048D01*
X223083334Y-159509048D01*
X212875905Y-175458381D02*
X212875905Y-174458381D01*
X213114000Y-174458381D01*
X213256858Y-174506000D01*
X213352096Y-174601238D01*
X213399715Y-174696476D01*
X213447334Y-174886952D01*
X213447334Y-175029810D01*
X213399715Y-175220286D01*
X213352096Y-175315524D01*
X213256858Y-175410762D01*
X213114000Y-175458381D01*
X212875905Y-175458381D01*
X214352096Y-174458381D02*
X213875905Y-174458381D01*
X213828286Y-174934571D01*
X213875905Y-174886952D01*
X213971143Y-174839333D01*
X214209239Y-174839333D01*
X214304477Y-174886952D01*
X214352096Y-174934571D01*
X214399715Y-175029810D01*
X214399715Y-175267905D01*
X214352096Y-175363143D01*
X214304477Y-175410762D01*
X214209239Y-175458381D01*
X213971143Y-175458381D01*
X213875905Y-175410762D01*
X213828286Y-175363143D01*
X205859143Y-161488381D02*
X205525809Y-161012190D01*
X205287714Y-161488381D02*
X205287714Y-160488381D01*
X205668667Y-160488381D01*
X205763905Y-160536000D01*
X205811524Y-160583619D01*
X205859143Y-160678857D01*
X205859143Y-160821714D01*
X205811524Y-160916952D01*
X205763905Y-160964571D01*
X205668667Y-161012190D01*
X205287714Y-161012190D01*
X206811524Y-161488381D02*
X206240095Y-161488381D01*
X206525809Y-161488381D02*
X206525809Y-160488381D01*
X206430571Y-160631238D01*
X206335333Y-160726476D01*
X206240095Y-160774095D01*
X207668667Y-160488381D02*
X207478190Y-160488381D01*
X207382952Y-160536000D01*
X207335333Y-160583619D01*
X207240095Y-160726476D01*
X207192476Y-160916952D01*
X207192476Y-161297905D01*
X207240095Y-161393143D01*
X207287714Y-161440762D01*
X207382952Y-161488381D01*
X207573429Y-161488381D01*
X207668667Y-161440762D01*
X207716286Y-161393143D01*
X207763905Y-161297905D01*
X207763905Y-161059810D01*
X207716286Y-160964571D01*
X207668667Y-160916952D01*
X207573429Y-160869333D01*
X207382952Y-160869333D01*
X207287714Y-160916952D01*
X207240095Y-160964571D01*
X207192476Y-161059810D01*
M02*
