G04 #@! TF.FileFunction,Copper,L1,Top,Signal*
%FSLAX46Y46*%
G04 Gerber Fmt 4.6, Leading zero omitted, Abs format (unit mm)*
G04 Created by KiCad (PCBNEW (after 2015-mar-04 BZR unknown)-product) date Wed 25 Mar 2015 12:28:00 AM CDT*
%MOMM*%
G01*
G04 APERTURE LIST*
%ADD10C,0.150000*%
%ADD11R,1.500000X1.600000*%
%ADD12R,1.600000X1.500000*%
%ADD13C,1.524000*%
%ADD14C,2.000000*%
%ADD15R,2.500000X3.500000*%
%ADD16R,3.048000X1.651000*%
%ADD17R,8.300000X7.500000*%
%ADD18R,2.250000X1.500000*%
%ADD19R,1.600000X0.700000*%
%ADD20R,1.250000X1.250000*%
%ADD21C,1.250000*%
%ADD22R,4.000000X3.300000*%
%ADD23R,1.300000X4.000000*%
%ADD24C,4.064000*%
%ADD25R,1.397000X1.397000*%
%ADD26C,1.397000*%
%ADD27R,2.000000X2.000000*%
%ADD28R,2.000000X2.800000*%
%ADD29C,0.889000*%
%ADD30C,0.152400*%
%ADD31C,0.254000*%
G04 APERTURE END LIST*
D10*
D11*
X224790000Y-164054000D03*
X224790000Y-166654000D03*
D12*
X209580000Y-177038000D03*
X206980000Y-177038000D03*
D13*
X229108000Y-161798000D03*
X171958000Y-168148000D03*
D14*
X233934000Y-172974000D03*
X233934000Y-166878000D03*
D15*
X172822000Y-162306000D03*
X179222000Y-162306000D03*
D16*
X171910000Y-172720000D03*
D17*
X182410000Y-175260000D03*
D16*
X171910000Y-177800000D03*
D18*
X185435000Y-170760000D03*
X185435000Y-179760000D03*
D12*
X223804000Y-177038000D03*
X221204000Y-177038000D03*
D19*
X200712000Y-164465000D03*
X200712000Y-163195000D03*
X200712000Y-161925000D03*
X200712000Y-160655000D03*
X194512000Y-160655000D03*
X194512000Y-161925000D03*
X194512000Y-163195000D03*
X194512000Y-164465000D03*
X166930000Y-179705000D03*
X166930000Y-178435000D03*
X166930000Y-177165000D03*
X166930000Y-175895000D03*
X160730000Y-175895000D03*
X160730000Y-177165000D03*
X160730000Y-178435000D03*
X160730000Y-179705000D03*
X222452000Y-171069000D03*
X222452000Y-172339000D03*
X222452000Y-173609000D03*
X222452000Y-174879000D03*
X228652000Y-174879000D03*
X228652000Y-173609000D03*
X228652000Y-172339000D03*
X228652000Y-171069000D03*
D20*
X177848000Y-167894000D03*
D21*
X179848000Y-167894000D03*
X181848000Y-167894000D03*
X183848000Y-167894000D03*
D22*
X205082000Y-172212000D03*
X192682000Y-172212000D03*
D23*
X165862000Y-170070000D03*
X165862000Y-162670000D03*
X215392000Y-164194000D03*
X215392000Y-171594000D03*
D24*
X155448000Y-177673000D03*
X155448000Y-162179000D03*
X235077000Y-161417000D03*
X235077000Y-178435000D03*
D25*
X189738000Y-176276000D03*
D26*
X189738000Y-178816000D03*
X210312000Y-179638960D03*
X212852000Y-179517040D03*
D25*
X207772000Y-179517040D03*
D26*
X215392000Y-179638960D03*
D25*
X219456000Y-179638960D03*
D26*
X221996000Y-179517040D03*
X224536000Y-179638960D03*
D27*
X223850000Y-161290000D03*
X220650000Y-161290000D03*
X212014000Y-176784000D03*
X215214000Y-176784000D03*
D28*
X204002000Y-163322000D03*
X209002000Y-163322000D03*
D29*
X179578000Y-179832000D03*
X173482000Y-175768000D03*
X207518000Y-166116000D03*
X207518000Y-167640000D03*
X209042000Y-167640000D03*
X209042000Y-166116000D03*
X210566000Y-166116000D03*
X210566000Y-167640000D03*
X212090000Y-167640000D03*
X212090000Y-166116000D03*
X213614000Y-166116000D03*
X213614000Y-167640000D03*
X211328000Y-161544000D03*
X212852000Y-161544000D03*
X212852000Y-163068000D03*
X212852000Y-164592000D03*
X211328000Y-164592000D03*
X211328000Y-163068000D03*
X162306000Y-162306000D03*
X168656000Y-160020000D03*
X226060000Y-161290000D03*
X223012000Y-165354000D03*
X225552000Y-170942000D03*
X164084000Y-177546000D03*
X219456000Y-177038000D03*
X196088000Y-179578000D03*
X176022000Y-175260000D03*
X176276000Y-178054000D03*
X225044000Y-168910000D03*
X225806000Y-172974000D03*
X170688000Y-175768000D03*
X166116000Y-174498000D03*
X203962000Y-165608000D03*
X222250000Y-166370000D03*
X198374000Y-171958000D03*
D30*
X222452000Y-176702000D02*
X222534000Y-176784000D01*
D31*
X222452000Y-177016000D02*
X222474000Y-177038000D01*
D30*
X222452000Y-176956000D02*
X222534000Y-177038000D01*
X220650000Y-161290000D02*
X216662000Y-161290000D01*
X175006000Y-175768000D02*
X173482000Y-175768000D01*
X175514000Y-176276000D02*
X175006000Y-175768000D01*
X175514000Y-179070000D02*
X175514000Y-176276000D01*
X176276000Y-179832000D02*
X175514000Y-179070000D01*
X179578000Y-179832000D02*
X176276000Y-179832000D01*
X171958000Y-174244000D02*
X171958000Y-172768000D01*
X173482000Y-175768000D02*
X171958000Y-174244000D01*
X171958000Y-172768000D02*
X171910000Y-172720000D01*
D31*
X209002000Y-165648000D02*
X208534000Y-166116000D01*
X208534000Y-166116000D02*
X207518000Y-166116000D01*
X207518000Y-167640000D02*
X209042000Y-167640000D01*
X209042000Y-166116000D02*
X210566000Y-166116000D01*
X210566000Y-167640000D02*
X212090000Y-167640000D01*
X212090000Y-166116000D02*
X213614000Y-166116000D01*
X209002000Y-163322000D02*
X209002000Y-165648000D01*
X210820000Y-163322000D02*
X211328000Y-162814000D01*
X211328000Y-162814000D02*
X211328000Y-161544000D01*
X212852000Y-163068000D02*
X211328000Y-163068000D01*
X211328000Y-164592000D02*
X212852000Y-164592000D01*
X209002000Y-163322000D02*
X210820000Y-163322000D01*
D30*
X171958000Y-172768000D02*
X171910000Y-172720000D01*
X172212000Y-172720000D02*
X171910000Y-172720000D01*
X219202000Y-176784000D02*
X219456000Y-177038000D01*
X219456000Y-177038000D02*
X221204000Y-177038000D01*
X215214000Y-176784000D02*
X219202000Y-176784000D01*
D31*
X196088000Y-180086000D02*
X196088000Y-179578000D01*
X207203040Y-180086000D02*
X196088000Y-180086000D01*
X178816000Y-169418000D02*
X187452000Y-169418000D01*
X187452000Y-169418000D02*
X187960000Y-169926000D01*
X187960000Y-169926000D02*
X187960000Y-179832000D01*
X187960000Y-179832000D02*
X188214000Y-180086000D01*
X188214000Y-180086000D02*
X195580000Y-180086000D01*
X195580000Y-180086000D02*
X196088000Y-180086000D01*
X178816000Y-169418000D02*
X177848000Y-168450000D01*
X207203040Y-180086000D02*
X207772000Y-179517040D01*
X176530000Y-175260000D02*
X176022000Y-175260000D01*
X176530000Y-178054000D02*
X176276000Y-178054000D01*
X177848000Y-169116000D02*
X176530000Y-170434000D01*
X176530000Y-170434000D02*
X176530000Y-175260000D01*
X176530000Y-175260000D02*
X176530000Y-178054000D01*
X177848000Y-167894000D02*
X177848000Y-169116000D01*
X177848000Y-167894000D02*
X177848000Y-168450000D01*
D30*
X222885000Y-171069000D02*
X222452000Y-171069000D01*
X225044000Y-168910000D02*
X222885000Y-171069000D01*
D31*
X225806000Y-172974000D02*
X225806000Y-172466000D01*
X226314000Y-168910000D02*
X224790000Y-167386000D01*
X226314000Y-171958000D02*
X226314000Y-168910000D01*
X225806000Y-172466000D02*
X226314000Y-171958000D01*
X224790000Y-167386000D02*
X224790000Y-166654000D01*
X188468000Y-176530000D02*
X188468000Y-177292000D01*
X188468000Y-169672000D02*
X187706000Y-168910000D01*
X187706000Y-168910000D02*
X186690000Y-168910000D01*
X201676000Y-178308000D02*
X192024000Y-178308000D01*
X225806000Y-172974000D02*
X225806000Y-177292000D01*
X225806000Y-177292000D02*
X224790000Y-178308000D01*
X201676000Y-178308000D02*
X224790000Y-178308000D01*
X180864000Y-168910000D02*
X179848000Y-167894000D01*
X186690000Y-168910000D02*
X180864000Y-168910000D01*
X188468000Y-176530000D02*
X188468000Y-169926000D01*
X192024000Y-178308000D02*
X191262000Y-177546000D01*
X188468000Y-169926000D02*
X188468000Y-169672000D01*
X188722000Y-177546000D02*
X191262000Y-177546000D01*
X188468000Y-177292000D02*
X188722000Y-177546000D01*
D30*
X223804000Y-175290000D02*
X223393000Y-174879000D01*
X223393000Y-174879000D02*
X222452000Y-174879000D01*
X223804000Y-177038000D02*
X223804000Y-175290000D01*
X166878000Y-175843000D02*
X166930000Y-175895000D01*
X166116000Y-174498000D02*
X166624000Y-174498000D01*
X166624000Y-174498000D02*
X166878000Y-174752000D01*
X166878000Y-174752000D02*
X166878000Y-175843000D01*
X204002000Y-165568000D02*
X203962000Y-165608000D01*
X204002000Y-163322000D02*
X204002000Y-165568000D01*
X200712000Y-160222000D02*
X201422000Y-159512000D01*
X201422000Y-159512000D02*
X221996000Y-159512000D01*
X221996000Y-159512000D02*
X222250000Y-159766000D01*
X222250000Y-159766000D02*
X222250000Y-166370000D01*
X200712000Y-160655000D02*
X200712000Y-160222000D01*
X209580000Y-177038000D02*
X211760000Y-177038000D01*
X211760000Y-177038000D02*
X212014000Y-176784000D01*
X206980000Y-177038000D02*
X199390000Y-177038000D01*
X198374000Y-176022000D02*
X198374000Y-171958000D01*
X199390000Y-177038000D02*
X198374000Y-176022000D01*
X224790000Y-164054000D02*
X224790000Y-163576000D01*
X224790000Y-163576000D02*
X223850000Y-162636000D01*
X223850000Y-162636000D02*
X223850000Y-161290000D01*
D31*
G36*
X162433000Y-180671000D02*
X161702180Y-180671000D01*
X161889699Y-180593327D01*
X162068327Y-180414698D01*
X162165000Y-180181309D01*
X162165000Y-179990750D01*
X162165000Y-179419250D01*
X162165000Y-179228691D01*
X162099267Y-179070000D01*
X162165000Y-178911309D01*
X162165000Y-178720750D01*
X162165000Y-178149250D01*
X162165000Y-177958691D01*
X162099267Y-177800000D01*
X162165000Y-177641309D01*
X162165000Y-177450750D01*
X162165000Y-176879250D01*
X162165000Y-176688691D01*
X162099267Y-176530000D01*
X162165000Y-176371309D01*
X162165000Y-176180750D01*
X162165000Y-175609250D01*
X162165000Y-175418691D01*
X162068327Y-175185302D01*
X161889699Y-175006673D01*
X161656310Y-174910000D01*
X161403691Y-174910000D01*
X161015750Y-174910000D01*
X160857000Y-175068750D01*
X160857000Y-175768000D01*
X162006250Y-175768000D01*
X162165000Y-175609250D01*
X162165000Y-176180750D01*
X162006250Y-176022000D01*
X160857000Y-176022000D01*
X160857000Y-176338750D01*
X160857000Y-176721250D01*
X160857000Y-177038000D01*
X162006250Y-177038000D01*
X162165000Y-176879250D01*
X162165000Y-177450750D01*
X162006250Y-177292000D01*
X160857000Y-177292000D01*
X160857000Y-177608750D01*
X160857000Y-177991250D01*
X160857000Y-178308000D01*
X162006250Y-178308000D01*
X162165000Y-178149250D01*
X162165000Y-178720750D01*
X162006250Y-178562000D01*
X160857000Y-178562000D01*
X160857000Y-178878750D01*
X160857000Y-179261250D01*
X160857000Y-179578000D01*
X162006250Y-179578000D01*
X162165000Y-179419250D01*
X162165000Y-179990750D01*
X162006250Y-179832000D01*
X160857000Y-179832000D01*
X160857000Y-179852000D01*
X160603000Y-179852000D01*
X160603000Y-179832000D01*
X160603000Y-179578000D01*
X160603000Y-179261250D01*
X160603000Y-178878750D01*
X160603000Y-178562000D01*
X160603000Y-178308000D01*
X160603000Y-177991250D01*
X160603000Y-177608750D01*
X160603000Y-177292000D01*
X160603000Y-177038000D01*
X160603000Y-176721250D01*
X160603000Y-176338750D01*
X160603000Y-176022000D01*
X160603000Y-175768000D01*
X160603000Y-175068750D01*
X160444250Y-174910000D01*
X160056309Y-174910000D01*
X159803690Y-174910000D01*
X159570301Y-175006673D01*
X159391673Y-175185302D01*
X159295000Y-175418691D01*
X159295000Y-175609250D01*
X159453750Y-175768000D01*
X160603000Y-175768000D01*
X160603000Y-176022000D01*
X159453750Y-176022000D01*
X159295000Y-176180750D01*
X159295000Y-176371309D01*
X159360732Y-176530000D01*
X159295000Y-176688691D01*
X159295000Y-176879250D01*
X159453750Y-177038000D01*
X160603000Y-177038000D01*
X160603000Y-177292000D01*
X159453750Y-177292000D01*
X159295000Y-177450750D01*
X159295000Y-177641309D01*
X159360732Y-177800000D01*
X159295000Y-177958691D01*
X159295000Y-178149250D01*
X159453750Y-178308000D01*
X160603000Y-178308000D01*
X160603000Y-178562000D01*
X159453750Y-178562000D01*
X159295000Y-178720750D01*
X159295000Y-178911309D01*
X159360732Y-179070000D01*
X159295000Y-179228691D01*
X159295000Y-179419250D01*
X159453750Y-179578000D01*
X160603000Y-179578000D01*
X160603000Y-179832000D01*
X159453750Y-179832000D01*
X159295000Y-179990750D01*
X159295000Y-180181309D01*
X159391673Y-180414698D01*
X159570301Y-180593327D01*
X159757819Y-180671000D01*
X158118880Y-180671000D01*
X158118880Y-178183612D01*
X158110975Y-177122643D01*
X157720168Y-176179154D01*
X157346121Y-175954484D01*
X157166516Y-176134089D01*
X157166516Y-175774879D01*
X156941846Y-175400832D01*
X155958612Y-175002120D01*
X154897643Y-175010025D01*
X153954154Y-175400832D01*
X153729484Y-175774879D01*
X155448000Y-177493395D01*
X157166516Y-175774879D01*
X157166516Y-176134089D01*
X155627605Y-177673000D01*
X157346121Y-179391516D01*
X157720168Y-179166846D01*
X158118880Y-178183612D01*
X158118880Y-180671000D01*
X157166516Y-180671000D01*
X157166516Y-179571121D01*
X155448000Y-177852605D01*
X155268395Y-178032210D01*
X155268395Y-177673000D01*
X153549879Y-175954484D01*
X153175832Y-176179154D01*
X152777120Y-177162388D01*
X152785025Y-178223357D01*
X153175832Y-179166846D01*
X153549879Y-179391516D01*
X155268395Y-177673000D01*
X155268395Y-178032210D01*
X153729484Y-179571121D01*
X153954154Y-179945168D01*
X154937388Y-180343880D01*
X155998357Y-180335975D01*
X156941846Y-179945168D01*
X157166516Y-179571121D01*
X157166516Y-180671000D01*
X152527000Y-180671000D01*
X152527000Y-174675000D01*
X160782000Y-174675000D01*
X161033364Y-174625000D01*
X162433000Y-174625000D01*
X162433000Y-180671000D01*
X162433000Y-180671000D01*
G37*
X162433000Y-180671000D02*
X161702180Y-180671000D01*
X161889699Y-180593327D01*
X162068327Y-180414698D01*
X162165000Y-180181309D01*
X162165000Y-179990750D01*
X162165000Y-179419250D01*
X162165000Y-179228691D01*
X162099267Y-179070000D01*
X162165000Y-178911309D01*
X162165000Y-178720750D01*
X162165000Y-178149250D01*
X162165000Y-177958691D01*
X162099267Y-177800000D01*
X162165000Y-177641309D01*
X162165000Y-177450750D01*
X162165000Y-176879250D01*
X162165000Y-176688691D01*
X162099267Y-176530000D01*
X162165000Y-176371309D01*
X162165000Y-176180750D01*
X162165000Y-175609250D01*
X162165000Y-175418691D01*
X162068327Y-175185302D01*
X161889699Y-175006673D01*
X161656310Y-174910000D01*
X161403691Y-174910000D01*
X161015750Y-174910000D01*
X160857000Y-175068750D01*
X160857000Y-175768000D01*
X162006250Y-175768000D01*
X162165000Y-175609250D01*
X162165000Y-176180750D01*
X162006250Y-176022000D01*
X160857000Y-176022000D01*
X160857000Y-176338750D01*
X160857000Y-176721250D01*
X160857000Y-177038000D01*
X162006250Y-177038000D01*
X162165000Y-176879250D01*
X162165000Y-177450750D01*
X162006250Y-177292000D01*
X160857000Y-177292000D01*
X160857000Y-177608750D01*
X160857000Y-177991250D01*
X160857000Y-178308000D01*
X162006250Y-178308000D01*
X162165000Y-178149250D01*
X162165000Y-178720750D01*
X162006250Y-178562000D01*
X160857000Y-178562000D01*
X160857000Y-178878750D01*
X160857000Y-179261250D01*
X160857000Y-179578000D01*
X162006250Y-179578000D01*
X162165000Y-179419250D01*
X162165000Y-179990750D01*
X162006250Y-179832000D01*
X160857000Y-179832000D01*
X160857000Y-179852000D01*
X160603000Y-179852000D01*
X160603000Y-179832000D01*
X160603000Y-179578000D01*
X160603000Y-179261250D01*
X160603000Y-178878750D01*
X160603000Y-178562000D01*
X160603000Y-178308000D01*
X160603000Y-177991250D01*
X160603000Y-177608750D01*
X160603000Y-177292000D01*
X160603000Y-177038000D01*
X160603000Y-176721250D01*
X160603000Y-176338750D01*
X160603000Y-176022000D01*
X160603000Y-175768000D01*
X160603000Y-175068750D01*
X160444250Y-174910000D01*
X160056309Y-174910000D01*
X159803690Y-174910000D01*
X159570301Y-175006673D01*
X159391673Y-175185302D01*
X159295000Y-175418691D01*
X159295000Y-175609250D01*
X159453750Y-175768000D01*
X160603000Y-175768000D01*
X160603000Y-176022000D01*
X159453750Y-176022000D01*
X159295000Y-176180750D01*
X159295000Y-176371309D01*
X159360732Y-176530000D01*
X159295000Y-176688691D01*
X159295000Y-176879250D01*
X159453750Y-177038000D01*
X160603000Y-177038000D01*
X160603000Y-177292000D01*
X159453750Y-177292000D01*
X159295000Y-177450750D01*
X159295000Y-177641309D01*
X159360732Y-177800000D01*
X159295000Y-177958691D01*
X159295000Y-178149250D01*
X159453750Y-178308000D01*
X160603000Y-178308000D01*
X160603000Y-178562000D01*
X159453750Y-178562000D01*
X159295000Y-178720750D01*
X159295000Y-178911309D01*
X159360732Y-179070000D01*
X159295000Y-179228691D01*
X159295000Y-179419250D01*
X159453750Y-179578000D01*
X160603000Y-179578000D01*
X160603000Y-179832000D01*
X159453750Y-179832000D01*
X159295000Y-179990750D01*
X159295000Y-180181309D01*
X159391673Y-180414698D01*
X159570301Y-180593327D01*
X159757819Y-180671000D01*
X158118880Y-180671000D01*
X158118880Y-178183612D01*
X158110975Y-177122643D01*
X157720168Y-176179154D01*
X157346121Y-175954484D01*
X157166516Y-176134089D01*
X157166516Y-175774879D01*
X156941846Y-175400832D01*
X155958612Y-175002120D01*
X154897643Y-175010025D01*
X153954154Y-175400832D01*
X153729484Y-175774879D01*
X155448000Y-177493395D01*
X157166516Y-175774879D01*
X157166516Y-176134089D01*
X155627605Y-177673000D01*
X157346121Y-179391516D01*
X157720168Y-179166846D01*
X158118880Y-178183612D01*
X158118880Y-180671000D01*
X157166516Y-180671000D01*
X157166516Y-179571121D01*
X155448000Y-177852605D01*
X155268395Y-178032210D01*
X155268395Y-177673000D01*
X153549879Y-175954484D01*
X153175832Y-176179154D01*
X152777120Y-177162388D01*
X152785025Y-178223357D01*
X153175832Y-179166846D01*
X153549879Y-179391516D01*
X155268395Y-177673000D01*
X155268395Y-178032210D01*
X153729484Y-179571121D01*
X153954154Y-179945168D01*
X154937388Y-180343880D01*
X155998357Y-180335975D01*
X156941846Y-179945168D01*
X157166516Y-179571121D01*
X157166516Y-180671000D01*
X152527000Y-180671000D01*
X152527000Y-174675000D01*
X160782000Y-174675000D01*
X161033364Y-174625000D01*
X162433000Y-174625000D01*
X162433000Y-180671000D01*
G36*
X174879000Y-180213000D02*
X174069000Y-180213000D01*
X174069000Y-178751809D01*
X174069000Y-178085750D01*
X173910250Y-177927000D01*
X172037000Y-177927000D01*
X172037000Y-179101750D01*
X172195750Y-179260500D01*
X173307691Y-179260500D01*
X173560310Y-179260500D01*
X173793699Y-179163827D01*
X173972327Y-178985198D01*
X174069000Y-178751809D01*
X174069000Y-180213000D01*
X171783000Y-180213000D01*
X171783000Y-179101750D01*
X171783000Y-177927000D01*
X171783000Y-177673000D01*
X171783000Y-176498250D01*
X171624250Y-176339500D01*
X170512309Y-176339500D01*
X170259690Y-176339500D01*
X170026301Y-176436173D01*
X169847673Y-176614802D01*
X169751000Y-176848191D01*
X169751000Y-177514250D01*
X169909750Y-177673000D01*
X171783000Y-177673000D01*
X171783000Y-177927000D01*
X169909750Y-177927000D01*
X169751000Y-178085750D01*
X169751000Y-178751809D01*
X169847673Y-178985198D01*
X170026301Y-179163827D01*
X170259690Y-179260500D01*
X170512309Y-179260500D01*
X171624250Y-179260500D01*
X171783000Y-179101750D01*
X171783000Y-180213000D01*
X168351873Y-180213000D01*
X168365000Y-180181309D01*
X168365000Y-179990750D01*
X168365000Y-179419250D01*
X168365000Y-179228691D01*
X168299267Y-179070000D01*
X168365000Y-178911309D01*
X168365000Y-178720750D01*
X168365000Y-178149250D01*
X168365000Y-177958691D01*
X168299267Y-177800000D01*
X168365000Y-177641309D01*
X168365000Y-177450750D01*
X168206250Y-177292000D01*
X167057000Y-177292000D01*
X167057000Y-177608750D01*
X167057000Y-177991250D01*
X167057000Y-178308000D01*
X168206250Y-178308000D01*
X168365000Y-178149250D01*
X168365000Y-178720750D01*
X168206250Y-178562000D01*
X167057000Y-178562000D01*
X167057000Y-178878750D01*
X167057000Y-179261250D01*
X167057000Y-179578000D01*
X168206250Y-179578000D01*
X168365000Y-179419250D01*
X168365000Y-179990750D01*
X168206250Y-179832000D01*
X167057000Y-179832000D01*
X167057000Y-179852000D01*
X166803000Y-179852000D01*
X166803000Y-179832000D01*
X166783000Y-179832000D01*
X166783000Y-179578000D01*
X166803000Y-179578000D01*
X166803000Y-179261250D01*
X166803000Y-178878750D01*
X166803000Y-178562000D01*
X166783000Y-178562000D01*
X166783000Y-178308000D01*
X166803000Y-178308000D01*
X166803000Y-177991250D01*
X166803000Y-177608750D01*
X166803000Y-177292000D01*
X166783000Y-177292000D01*
X166783000Y-177038000D01*
X166803000Y-177038000D01*
X166803000Y-177018000D01*
X167057000Y-177018000D01*
X167057000Y-177038000D01*
X168206250Y-177038000D01*
X168365000Y-176879250D01*
X168365000Y-176688691D01*
X168300880Y-176533893D01*
X168327377Y-176494640D01*
X168377440Y-176245000D01*
X168377440Y-175545000D01*
X168330463Y-175302877D01*
X168275000Y-175218445D01*
X168275000Y-175133000D01*
X171841211Y-175133000D01*
X172402563Y-175694351D01*
X172402313Y-175981784D01*
X172550118Y-176339500D01*
X172195750Y-176339500D01*
X172037000Y-176498250D01*
X172037000Y-177673000D01*
X173910250Y-177673000D01*
X174069000Y-177514250D01*
X174069000Y-176848191D01*
X174014280Y-176716086D01*
X174092689Y-176683689D01*
X174297535Y-176479200D01*
X174711411Y-176479200D01*
X174802800Y-176570588D01*
X174802800Y-179070000D01*
X174856937Y-179342165D01*
X174879000Y-179375184D01*
X174879000Y-180213000D01*
X174879000Y-180213000D01*
G37*
X174879000Y-180213000D02*
X174069000Y-180213000D01*
X174069000Y-178751809D01*
X174069000Y-178085750D01*
X173910250Y-177927000D01*
X172037000Y-177927000D01*
X172037000Y-179101750D01*
X172195750Y-179260500D01*
X173307691Y-179260500D01*
X173560310Y-179260500D01*
X173793699Y-179163827D01*
X173972327Y-178985198D01*
X174069000Y-178751809D01*
X174069000Y-180213000D01*
X171783000Y-180213000D01*
X171783000Y-179101750D01*
X171783000Y-177927000D01*
X171783000Y-177673000D01*
X171783000Y-176498250D01*
X171624250Y-176339500D01*
X170512309Y-176339500D01*
X170259690Y-176339500D01*
X170026301Y-176436173D01*
X169847673Y-176614802D01*
X169751000Y-176848191D01*
X169751000Y-177514250D01*
X169909750Y-177673000D01*
X171783000Y-177673000D01*
X171783000Y-177927000D01*
X169909750Y-177927000D01*
X169751000Y-178085750D01*
X169751000Y-178751809D01*
X169847673Y-178985198D01*
X170026301Y-179163827D01*
X170259690Y-179260500D01*
X170512309Y-179260500D01*
X171624250Y-179260500D01*
X171783000Y-179101750D01*
X171783000Y-180213000D01*
X168351873Y-180213000D01*
X168365000Y-180181309D01*
X168365000Y-179990750D01*
X168365000Y-179419250D01*
X168365000Y-179228691D01*
X168299267Y-179070000D01*
X168365000Y-178911309D01*
X168365000Y-178720750D01*
X168365000Y-178149250D01*
X168365000Y-177958691D01*
X168299267Y-177800000D01*
X168365000Y-177641309D01*
X168365000Y-177450750D01*
X168206250Y-177292000D01*
X167057000Y-177292000D01*
X167057000Y-177608750D01*
X167057000Y-177991250D01*
X167057000Y-178308000D01*
X168206250Y-178308000D01*
X168365000Y-178149250D01*
X168365000Y-178720750D01*
X168206250Y-178562000D01*
X167057000Y-178562000D01*
X167057000Y-178878750D01*
X167057000Y-179261250D01*
X167057000Y-179578000D01*
X168206250Y-179578000D01*
X168365000Y-179419250D01*
X168365000Y-179990750D01*
X168206250Y-179832000D01*
X167057000Y-179832000D01*
X167057000Y-179852000D01*
X166803000Y-179852000D01*
X166803000Y-179832000D01*
X166783000Y-179832000D01*
X166783000Y-179578000D01*
X166803000Y-179578000D01*
X166803000Y-179261250D01*
X166803000Y-178878750D01*
X166803000Y-178562000D01*
X166783000Y-178562000D01*
X166783000Y-178308000D01*
X166803000Y-178308000D01*
X166803000Y-177991250D01*
X166803000Y-177608750D01*
X166803000Y-177292000D01*
X166783000Y-177292000D01*
X166783000Y-177038000D01*
X166803000Y-177038000D01*
X166803000Y-177018000D01*
X167057000Y-177018000D01*
X167057000Y-177038000D01*
X168206250Y-177038000D01*
X168365000Y-176879250D01*
X168365000Y-176688691D01*
X168300880Y-176533893D01*
X168327377Y-176494640D01*
X168377440Y-176245000D01*
X168377440Y-175545000D01*
X168330463Y-175302877D01*
X168275000Y-175218445D01*
X168275000Y-175133000D01*
X171841211Y-175133000D01*
X172402563Y-175694351D01*
X172402313Y-175981784D01*
X172550118Y-176339500D01*
X172195750Y-176339500D01*
X172037000Y-176498250D01*
X172037000Y-177673000D01*
X173910250Y-177673000D01*
X174069000Y-177514250D01*
X174069000Y-176848191D01*
X174014280Y-176716086D01*
X174092689Y-176683689D01*
X174297535Y-176479200D01*
X174711411Y-176479200D01*
X174802800Y-176570588D01*
X174802800Y-179070000D01*
X174856937Y-179342165D01*
X174879000Y-179375184D01*
X174879000Y-180213000D01*
G36*
X175133000Y-165227000D02*
X174707000Y-165227000D01*
X174707000Y-164182309D01*
X174707000Y-162591750D01*
X174707000Y-162020250D01*
X174707000Y-160429691D01*
X174610327Y-160196302D01*
X174431699Y-160017673D01*
X174198310Y-159921000D01*
X173945691Y-159921000D01*
X173107750Y-159921000D01*
X172949000Y-160079750D01*
X172949000Y-162179000D01*
X174548250Y-162179000D01*
X174707000Y-162020250D01*
X174707000Y-162591750D01*
X174548250Y-162433000D01*
X172949000Y-162433000D01*
X172949000Y-164532250D01*
X173107750Y-164691000D01*
X173945691Y-164691000D01*
X174198310Y-164691000D01*
X174431699Y-164594327D01*
X174610327Y-164415698D01*
X174707000Y-164182309D01*
X174707000Y-165227000D01*
X172695000Y-165227000D01*
X172695000Y-164532250D01*
X172695000Y-162433000D01*
X172695000Y-162179000D01*
X172695000Y-160079750D01*
X172536250Y-159921000D01*
X171698309Y-159921000D01*
X171445690Y-159921000D01*
X171212301Y-160017673D01*
X171033673Y-160196302D01*
X170937000Y-160429691D01*
X170937000Y-162020250D01*
X171095750Y-162179000D01*
X172695000Y-162179000D01*
X172695000Y-162433000D01*
X171095750Y-162433000D01*
X170937000Y-162591750D01*
X170937000Y-164182309D01*
X171033673Y-164415698D01*
X171212301Y-164594327D01*
X171445690Y-164691000D01*
X171698309Y-164691000D01*
X172536250Y-164691000D01*
X172695000Y-164532250D01*
X172695000Y-165227000D01*
X166826617Y-165227000D01*
X166871698Y-165208327D01*
X167050327Y-165029699D01*
X167147000Y-164796310D01*
X167147000Y-164543691D01*
X167147000Y-162955750D01*
X167147000Y-162384250D01*
X167147000Y-160796309D01*
X167147000Y-160543690D01*
X167050327Y-160310301D01*
X166871698Y-160131673D01*
X166638309Y-160035000D01*
X166147750Y-160035000D01*
X165989000Y-160193750D01*
X165989000Y-162543000D01*
X166988250Y-162543000D01*
X167147000Y-162384250D01*
X167147000Y-162955750D01*
X166988250Y-162797000D01*
X165989000Y-162797000D01*
X165989000Y-162817000D01*
X165735000Y-162817000D01*
X165735000Y-162797000D01*
X165735000Y-162543000D01*
X165735000Y-160193750D01*
X165576250Y-160035000D01*
X165085691Y-160035000D01*
X164852302Y-160131673D01*
X164673673Y-160310301D01*
X164577000Y-160543690D01*
X164577000Y-160796309D01*
X164577000Y-162384250D01*
X164735750Y-162543000D01*
X165735000Y-162543000D01*
X165735000Y-162797000D01*
X164735750Y-162797000D01*
X164577000Y-162955750D01*
X164577000Y-164543691D01*
X164577000Y-164796310D01*
X164673673Y-165029699D01*
X164852302Y-165208327D01*
X164897382Y-165227000D01*
X163385687Y-165227000D01*
X163385687Y-162092216D01*
X163221689Y-161695311D01*
X162918286Y-161391378D01*
X162521668Y-161226687D01*
X162092216Y-161226313D01*
X161695311Y-161390311D01*
X161391378Y-161693714D01*
X161226687Y-162090332D01*
X161226313Y-162519784D01*
X161390311Y-162916689D01*
X161693714Y-163220622D01*
X162090332Y-163385313D01*
X162519784Y-163385687D01*
X162916689Y-163221689D01*
X163220622Y-162918286D01*
X163385313Y-162521668D01*
X163385687Y-162092216D01*
X163385687Y-165227000D01*
X161033364Y-165227000D01*
X160782000Y-165177000D01*
X158118880Y-165177000D01*
X158118880Y-162689612D01*
X158110975Y-161628643D01*
X157720168Y-160685154D01*
X157346121Y-160460484D01*
X157166516Y-160640089D01*
X157166516Y-160280879D01*
X156941846Y-159906832D01*
X155958612Y-159508120D01*
X154897643Y-159516025D01*
X153954154Y-159906832D01*
X153729484Y-160280879D01*
X155448000Y-161999395D01*
X157166516Y-160280879D01*
X157166516Y-160640089D01*
X155627605Y-162179000D01*
X157346121Y-163897516D01*
X157720168Y-163672846D01*
X158118880Y-162689612D01*
X158118880Y-165177000D01*
X157166516Y-165177000D01*
X157166516Y-164077121D01*
X155448000Y-162358605D01*
X155268395Y-162538210D01*
X155268395Y-162179000D01*
X153549879Y-160460484D01*
X153175832Y-160685154D01*
X152777120Y-161668388D01*
X152785025Y-162729357D01*
X153175832Y-163672846D01*
X153549879Y-163897516D01*
X155268395Y-162179000D01*
X155268395Y-162538210D01*
X153729484Y-164077121D01*
X153954154Y-164451168D01*
X154937388Y-164849880D01*
X155998357Y-164841975D01*
X156941846Y-164451168D01*
X157166516Y-164077121D01*
X157166516Y-165177000D01*
X152527000Y-165177000D01*
X152527000Y-159181000D01*
X167968488Y-159181000D01*
X167741378Y-159407714D01*
X167576687Y-159804332D01*
X167576313Y-160233784D01*
X167740311Y-160630689D01*
X168043714Y-160934622D01*
X168440332Y-161099313D01*
X168869784Y-161099687D01*
X169266689Y-160935689D01*
X169570622Y-160632286D01*
X169735313Y-160235668D01*
X169735687Y-159806216D01*
X169571689Y-159409311D01*
X169343776Y-159181000D01*
X175133000Y-159181000D01*
X175133000Y-165227000D01*
X175133000Y-165227000D01*
G37*
X175133000Y-165227000D02*
X174707000Y-165227000D01*
X174707000Y-164182309D01*
X174707000Y-162591750D01*
X174707000Y-162020250D01*
X174707000Y-160429691D01*
X174610327Y-160196302D01*
X174431699Y-160017673D01*
X174198310Y-159921000D01*
X173945691Y-159921000D01*
X173107750Y-159921000D01*
X172949000Y-160079750D01*
X172949000Y-162179000D01*
X174548250Y-162179000D01*
X174707000Y-162020250D01*
X174707000Y-162591750D01*
X174548250Y-162433000D01*
X172949000Y-162433000D01*
X172949000Y-164532250D01*
X173107750Y-164691000D01*
X173945691Y-164691000D01*
X174198310Y-164691000D01*
X174431699Y-164594327D01*
X174610327Y-164415698D01*
X174707000Y-164182309D01*
X174707000Y-165227000D01*
X172695000Y-165227000D01*
X172695000Y-164532250D01*
X172695000Y-162433000D01*
X172695000Y-162179000D01*
X172695000Y-160079750D01*
X172536250Y-159921000D01*
X171698309Y-159921000D01*
X171445690Y-159921000D01*
X171212301Y-160017673D01*
X171033673Y-160196302D01*
X170937000Y-160429691D01*
X170937000Y-162020250D01*
X171095750Y-162179000D01*
X172695000Y-162179000D01*
X172695000Y-162433000D01*
X171095750Y-162433000D01*
X170937000Y-162591750D01*
X170937000Y-164182309D01*
X171033673Y-164415698D01*
X171212301Y-164594327D01*
X171445690Y-164691000D01*
X171698309Y-164691000D01*
X172536250Y-164691000D01*
X172695000Y-164532250D01*
X172695000Y-165227000D01*
X166826617Y-165227000D01*
X166871698Y-165208327D01*
X167050327Y-165029699D01*
X167147000Y-164796310D01*
X167147000Y-164543691D01*
X167147000Y-162955750D01*
X167147000Y-162384250D01*
X167147000Y-160796309D01*
X167147000Y-160543690D01*
X167050327Y-160310301D01*
X166871698Y-160131673D01*
X166638309Y-160035000D01*
X166147750Y-160035000D01*
X165989000Y-160193750D01*
X165989000Y-162543000D01*
X166988250Y-162543000D01*
X167147000Y-162384250D01*
X167147000Y-162955750D01*
X166988250Y-162797000D01*
X165989000Y-162797000D01*
X165989000Y-162817000D01*
X165735000Y-162817000D01*
X165735000Y-162797000D01*
X165735000Y-162543000D01*
X165735000Y-160193750D01*
X165576250Y-160035000D01*
X165085691Y-160035000D01*
X164852302Y-160131673D01*
X164673673Y-160310301D01*
X164577000Y-160543690D01*
X164577000Y-160796309D01*
X164577000Y-162384250D01*
X164735750Y-162543000D01*
X165735000Y-162543000D01*
X165735000Y-162797000D01*
X164735750Y-162797000D01*
X164577000Y-162955750D01*
X164577000Y-164543691D01*
X164577000Y-164796310D01*
X164673673Y-165029699D01*
X164852302Y-165208327D01*
X164897382Y-165227000D01*
X163385687Y-165227000D01*
X163385687Y-162092216D01*
X163221689Y-161695311D01*
X162918286Y-161391378D01*
X162521668Y-161226687D01*
X162092216Y-161226313D01*
X161695311Y-161390311D01*
X161391378Y-161693714D01*
X161226687Y-162090332D01*
X161226313Y-162519784D01*
X161390311Y-162916689D01*
X161693714Y-163220622D01*
X162090332Y-163385313D01*
X162519784Y-163385687D01*
X162916689Y-163221689D01*
X163220622Y-162918286D01*
X163385313Y-162521668D01*
X163385687Y-162092216D01*
X163385687Y-165227000D01*
X161033364Y-165227000D01*
X160782000Y-165177000D01*
X158118880Y-165177000D01*
X158118880Y-162689612D01*
X158110975Y-161628643D01*
X157720168Y-160685154D01*
X157346121Y-160460484D01*
X157166516Y-160640089D01*
X157166516Y-160280879D01*
X156941846Y-159906832D01*
X155958612Y-159508120D01*
X154897643Y-159516025D01*
X153954154Y-159906832D01*
X153729484Y-160280879D01*
X155448000Y-161999395D01*
X157166516Y-160280879D01*
X157166516Y-160640089D01*
X155627605Y-162179000D01*
X157346121Y-163897516D01*
X157720168Y-163672846D01*
X158118880Y-162689612D01*
X158118880Y-165177000D01*
X157166516Y-165177000D01*
X157166516Y-164077121D01*
X155448000Y-162358605D01*
X155268395Y-162538210D01*
X155268395Y-162179000D01*
X153549879Y-160460484D01*
X153175832Y-160685154D01*
X152777120Y-161668388D01*
X152785025Y-162729357D01*
X153175832Y-163672846D01*
X153549879Y-163897516D01*
X155268395Y-162179000D01*
X155268395Y-162538210D01*
X153729484Y-164077121D01*
X153954154Y-164451168D01*
X154937388Y-164849880D01*
X155998357Y-164841975D01*
X156941846Y-164451168D01*
X157166516Y-164077121D01*
X157166516Y-165177000D01*
X152527000Y-165177000D01*
X152527000Y-159181000D01*
X167968488Y-159181000D01*
X167741378Y-159407714D01*
X167576687Y-159804332D01*
X167576313Y-160233784D01*
X167740311Y-160630689D01*
X168043714Y-160934622D01*
X168440332Y-161099313D01*
X168869784Y-161099687D01*
X169266689Y-160935689D01*
X169570622Y-160632286D01*
X169735313Y-160235668D01*
X169735687Y-159806216D01*
X169571689Y-159409311D01*
X169343776Y-159181000D01*
X175133000Y-159181000D01*
X175133000Y-165227000D01*
G36*
X175641000Y-174249405D02*
X175411311Y-174344311D01*
X175384575Y-174371000D01*
X174069000Y-174371000D01*
X174069000Y-173671809D01*
X174069000Y-173005750D01*
X174069000Y-172434250D01*
X174069000Y-171768191D01*
X173972327Y-171534802D01*
X173793699Y-171356173D01*
X173560310Y-171259500D01*
X173367144Y-171259500D01*
X173367144Y-168355698D01*
X173339362Y-167800632D01*
X173180397Y-167416857D01*
X172938213Y-167347392D01*
X172758608Y-167526997D01*
X172758608Y-167167787D01*
X172689143Y-166925603D01*
X172165698Y-166738856D01*
X171610632Y-166766638D01*
X171226857Y-166925603D01*
X171157392Y-167167787D01*
X171958000Y-167968395D01*
X172758608Y-167167787D01*
X172758608Y-167526997D01*
X172137605Y-168148000D01*
X172938213Y-168948608D01*
X173180397Y-168879143D01*
X173367144Y-168355698D01*
X173367144Y-171259500D01*
X173307691Y-171259500D01*
X172758608Y-171259500D01*
X172758608Y-169128213D01*
X171958000Y-168327605D01*
X171778395Y-168507210D01*
X171778395Y-168148000D01*
X170977787Y-167347392D01*
X170735603Y-167416857D01*
X170548856Y-167940302D01*
X170576638Y-168495368D01*
X170735603Y-168879143D01*
X170977787Y-168948608D01*
X171778395Y-168148000D01*
X171778395Y-168507210D01*
X171157392Y-169128213D01*
X171226857Y-169370397D01*
X171750302Y-169557144D01*
X172305368Y-169529362D01*
X172689143Y-169370397D01*
X172758608Y-169128213D01*
X172758608Y-171259500D01*
X172195750Y-171259500D01*
X172037000Y-171418250D01*
X172037000Y-172593000D01*
X173910250Y-172593000D01*
X174069000Y-172434250D01*
X174069000Y-173005750D01*
X173910250Y-172847000D01*
X172037000Y-172847000D01*
X172037000Y-174021750D01*
X172195750Y-174180500D01*
X173307691Y-174180500D01*
X173560310Y-174180500D01*
X173793699Y-174083827D01*
X173972327Y-173905198D01*
X174069000Y-173671809D01*
X174069000Y-174371000D01*
X171783000Y-174371000D01*
X171783000Y-174021750D01*
X171783000Y-172847000D01*
X171783000Y-172593000D01*
X171783000Y-171418250D01*
X171624250Y-171259500D01*
X170512309Y-171259500D01*
X170259690Y-171259500D01*
X170026301Y-171356173D01*
X169847673Y-171534802D01*
X169751000Y-171768191D01*
X169751000Y-172434250D01*
X169909750Y-172593000D01*
X171783000Y-172593000D01*
X171783000Y-172847000D01*
X169909750Y-172847000D01*
X169751000Y-173005750D01*
X169751000Y-173671809D01*
X169847673Y-173905198D01*
X170026301Y-174083827D01*
X170259690Y-174180500D01*
X170512309Y-174180500D01*
X171624250Y-174180500D01*
X171783000Y-174021750D01*
X171783000Y-174371000D01*
X167462341Y-174371000D01*
X167380894Y-174249106D01*
X167380894Y-174249105D01*
X167147000Y-174015211D01*
X167147000Y-172196310D01*
X167147000Y-171943691D01*
X167147000Y-170355750D01*
X167147000Y-169784250D01*
X167147000Y-168196309D01*
X167147000Y-167943690D01*
X167050327Y-167710301D01*
X166871698Y-167531673D01*
X166638309Y-167435000D01*
X166147750Y-167435000D01*
X165989000Y-167593750D01*
X165989000Y-169943000D01*
X166988250Y-169943000D01*
X167147000Y-169784250D01*
X167147000Y-170355750D01*
X166988250Y-170197000D01*
X165989000Y-170197000D01*
X165989000Y-172546250D01*
X166147750Y-172705000D01*
X166638309Y-172705000D01*
X166871698Y-172608327D01*
X167050327Y-172429699D01*
X167147000Y-172196310D01*
X167147000Y-174015211D01*
X167126894Y-173995106D01*
X167056906Y-173948341D01*
X167031689Y-173887311D01*
X166728286Y-173583378D01*
X166331668Y-173418687D01*
X165902216Y-173418313D01*
X165735000Y-173487405D01*
X165735000Y-172546250D01*
X165735000Y-170197000D01*
X165735000Y-169943000D01*
X165735000Y-167593750D01*
X165576250Y-167435000D01*
X165085691Y-167435000D01*
X164852302Y-167531673D01*
X164673673Y-167710301D01*
X164577000Y-167943690D01*
X164577000Y-168196309D01*
X164577000Y-169784250D01*
X164735750Y-169943000D01*
X165735000Y-169943000D01*
X165735000Y-170197000D01*
X164735750Y-170197000D01*
X164577000Y-170355750D01*
X164577000Y-171943691D01*
X164577000Y-172196310D01*
X164673673Y-172429699D01*
X164852302Y-172608327D01*
X165085691Y-172705000D01*
X165576250Y-172705000D01*
X165735000Y-172546250D01*
X165735000Y-173487405D01*
X165505311Y-173582311D01*
X165201378Y-173885714D01*
X165036687Y-174282332D01*
X165036609Y-174371000D01*
X163195000Y-174371000D01*
X163195000Y-165989000D01*
X175641000Y-165989000D01*
X175641000Y-174249405D01*
X175641000Y-174249405D01*
G37*
X175641000Y-174249405D02*
X175411311Y-174344311D01*
X175384575Y-174371000D01*
X174069000Y-174371000D01*
X174069000Y-173671809D01*
X174069000Y-173005750D01*
X174069000Y-172434250D01*
X174069000Y-171768191D01*
X173972327Y-171534802D01*
X173793699Y-171356173D01*
X173560310Y-171259500D01*
X173367144Y-171259500D01*
X173367144Y-168355698D01*
X173339362Y-167800632D01*
X173180397Y-167416857D01*
X172938213Y-167347392D01*
X172758608Y-167526997D01*
X172758608Y-167167787D01*
X172689143Y-166925603D01*
X172165698Y-166738856D01*
X171610632Y-166766638D01*
X171226857Y-166925603D01*
X171157392Y-167167787D01*
X171958000Y-167968395D01*
X172758608Y-167167787D01*
X172758608Y-167526997D01*
X172137605Y-168148000D01*
X172938213Y-168948608D01*
X173180397Y-168879143D01*
X173367144Y-168355698D01*
X173367144Y-171259500D01*
X173307691Y-171259500D01*
X172758608Y-171259500D01*
X172758608Y-169128213D01*
X171958000Y-168327605D01*
X171778395Y-168507210D01*
X171778395Y-168148000D01*
X170977787Y-167347392D01*
X170735603Y-167416857D01*
X170548856Y-167940302D01*
X170576638Y-168495368D01*
X170735603Y-168879143D01*
X170977787Y-168948608D01*
X171778395Y-168148000D01*
X171778395Y-168507210D01*
X171157392Y-169128213D01*
X171226857Y-169370397D01*
X171750302Y-169557144D01*
X172305368Y-169529362D01*
X172689143Y-169370397D01*
X172758608Y-169128213D01*
X172758608Y-171259500D01*
X172195750Y-171259500D01*
X172037000Y-171418250D01*
X172037000Y-172593000D01*
X173910250Y-172593000D01*
X174069000Y-172434250D01*
X174069000Y-173005750D01*
X173910250Y-172847000D01*
X172037000Y-172847000D01*
X172037000Y-174021750D01*
X172195750Y-174180500D01*
X173307691Y-174180500D01*
X173560310Y-174180500D01*
X173793699Y-174083827D01*
X173972327Y-173905198D01*
X174069000Y-173671809D01*
X174069000Y-174371000D01*
X171783000Y-174371000D01*
X171783000Y-174021750D01*
X171783000Y-172847000D01*
X171783000Y-172593000D01*
X171783000Y-171418250D01*
X171624250Y-171259500D01*
X170512309Y-171259500D01*
X170259690Y-171259500D01*
X170026301Y-171356173D01*
X169847673Y-171534802D01*
X169751000Y-171768191D01*
X169751000Y-172434250D01*
X169909750Y-172593000D01*
X171783000Y-172593000D01*
X171783000Y-172847000D01*
X169909750Y-172847000D01*
X169751000Y-173005750D01*
X169751000Y-173671809D01*
X169847673Y-173905198D01*
X170026301Y-174083827D01*
X170259690Y-174180500D01*
X170512309Y-174180500D01*
X171624250Y-174180500D01*
X171783000Y-174021750D01*
X171783000Y-174371000D01*
X167462341Y-174371000D01*
X167380894Y-174249106D01*
X167380894Y-174249105D01*
X167147000Y-174015211D01*
X167147000Y-172196310D01*
X167147000Y-171943691D01*
X167147000Y-170355750D01*
X167147000Y-169784250D01*
X167147000Y-168196309D01*
X167147000Y-167943690D01*
X167050327Y-167710301D01*
X166871698Y-167531673D01*
X166638309Y-167435000D01*
X166147750Y-167435000D01*
X165989000Y-167593750D01*
X165989000Y-169943000D01*
X166988250Y-169943000D01*
X167147000Y-169784250D01*
X167147000Y-170355750D01*
X166988250Y-170197000D01*
X165989000Y-170197000D01*
X165989000Y-172546250D01*
X166147750Y-172705000D01*
X166638309Y-172705000D01*
X166871698Y-172608327D01*
X167050327Y-172429699D01*
X167147000Y-172196310D01*
X167147000Y-174015211D01*
X167126894Y-173995106D01*
X167056906Y-173948341D01*
X167031689Y-173887311D01*
X166728286Y-173583378D01*
X166331668Y-173418687D01*
X165902216Y-173418313D01*
X165735000Y-173487405D01*
X165735000Y-172546250D01*
X165735000Y-170197000D01*
X165735000Y-169943000D01*
X165735000Y-167593750D01*
X165576250Y-167435000D01*
X165085691Y-167435000D01*
X164852302Y-167531673D01*
X164673673Y-167710301D01*
X164577000Y-167943690D01*
X164577000Y-168196309D01*
X164577000Y-169784250D01*
X164735750Y-169943000D01*
X165735000Y-169943000D01*
X165735000Y-170197000D01*
X164735750Y-170197000D01*
X164577000Y-170355750D01*
X164577000Y-171943691D01*
X164577000Y-172196310D01*
X164673673Y-172429699D01*
X164852302Y-172608327D01*
X165085691Y-172705000D01*
X165576250Y-172705000D01*
X165735000Y-172546250D01*
X165735000Y-173487405D01*
X165505311Y-173582311D01*
X165201378Y-173885714D01*
X165036687Y-174282332D01*
X165036609Y-174371000D01*
X163195000Y-174371000D01*
X163195000Y-165989000D01*
X175641000Y-165989000D01*
X175641000Y-174249405D01*
G36*
X195961000Y-175133000D02*
X195947000Y-175133000D01*
X195947000Y-164941309D01*
X195947000Y-164750750D01*
X195947000Y-164179250D01*
X195947000Y-163988691D01*
X195881267Y-163830000D01*
X195947000Y-163671309D01*
X195947000Y-163480750D01*
X195947000Y-162909250D01*
X195947000Y-162718691D01*
X195881267Y-162560000D01*
X195947000Y-162401309D01*
X195947000Y-162210750D01*
X195947000Y-161639250D01*
X195947000Y-161448691D01*
X195881267Y-161290000D01*
X195947000Y-161131309D01*
X195947000Y-160940750D01*
X195947000Y-160369250D01*
X195947000Y-160178691D01*
X195850327Y-159945302D01*
X195671699Y-159766673D01*
X195438310Y-159670000D01*
X195185691Y-159670000D01*
X194797750Y-159670000D01*
X194639000Y-159828750D01*
X194639000Y-160528000D01*
X195788250Y-160528000D01*
X195947000Y-160369250D01*
X195947000Y-160940750D01*
X195788250Y-160782000D01*
X194639000Y-160782000D01*
X194639000Y-161098750D01*
X194639000Y-161481250D01*
X194639000Y-161798000D01*
X195788250Y-161798000D01*
X195947000Y-161639250D01*
X195947000Y-162210750D01*
X195788250Y-162052000D01*
X194639000Y-162052000D01*
X194639000Y-162368750D01*
X194639000Y-162751250D01*
X194639000Y-163068000D01*
X195788250Y-163068000D01*
X195947000Y-162909250D01*
X195947000Y-163480750D01*
X195788250Y-163322000D01*
X194639000Y-163322000D01*
X194639000Y-163638750D01*
X194639000Y-164021250D01*
X194639000Y-164338000D01*
X195788250Y-164338000D01*
X195947000Y-164179250D01*
X195947000Y-164750750D01*
X195788250Y-164592000D01*
X194639000Y-164592000D01*
X194639000Y-165291250D01*
X194797750Y-165450000D01*
X195185691Y-165450000D01*
X195438310Y-165450000D01*
X195671699Y-165353327D01*
X195850327Y-165174698D01*
X195947000Y-164941309D01*
X195947000Y-175133000D01*
X195317000Y-175133000D01*
X195317000Y-173988309D01*
X195317000Y-172497750D01*
X195317000Y-171926250D01*
X195317000Y-170435691D01*
X195220327Y-170202302D01*
X195041699Y-170023673D01*
X194808310Y-169927000D01*
X194555691Y-169927000D01*
X194385000Y-169927000D01*
X194385000Y-165291250D01*
X194385000Y-164592000D01*
X194385000Y-164338000D01*
X194385000Y-164021250D01*
X194385000Y-163638750D01*
X194385000Y-163322000D01*
X194385000Y-163068000D01*
X194385000Y-162751250D01*
X194385000Y-162368750D01*
X194385000Y-162052000D01*
X194385000Y-161798000D01*
X194385000Y-161481250D01*
X194385000Y-161098750D01*
X194385000Y-160782000D01*
X194385000Y-160528000D01*
X194385000Y-159828750D01*
X194226250Y-159670000D01*
X193838309Y-159670000D01*
X193585690Y-159670000D01*
X193352301Y-159766673D01*
X193173673Y-159945302D01*
X193077000Y-160178691D01*
X193077000Y-160369250D01*
X193235750Y-160528000D01*
X194385000Y-160528000D01*
X194385000Y-160782000D01*
X193235750Y-160782000D01*
X193077000Y-160940750D01*
X193077000Y-161131309D01*
X193142732Y-161290000D01*
X193077000Y-161448691D01*
X193077000Y-161639250D01*
X193235750Y-161798000D01*
X194385000Y-161798000D01*
X194385000Y-162052000D01*
X193235750Y-162052000D01*
X193077000Y-162210750D01*
X193077000Y-162401309D01*
X193142732Y-162560000D01*
X193077000Y-162718691D01*
X193077000Y-162909250D01*
X193235750Y-163068000D01*
X194385000Y-163068000D01*
X194385000Y-163322000D01*
X193235750Y-163322000D01*
X193077000Y-163480750D01*
X193077000Y-163671309D01*
X193142732Y-163830000D01*
X193077000Y-163988691D01*
X193077000Y-164179250D01*
X193235750Y-164338000D01*
X194385000Y-164338000D01*
X194385000Y-164592000D01*
X193235750Y-164592000D01*
X193077000Y-164750750D01*
X193077000Y-164941309D01*
X193173673Y-165174698D01*
X193352301Y-165353327D01*
X193585690Y-165450000D01*
X193838309Y-165450000D01*
X194226250Y-165450000D01*
X194385000Y-165291250D01*
X194385000Y-169927000D01*
X192967750Y-169927000D01*
X192809000Y-170085750D01*
X192809000Y-172085000D01*
X195158250Y-172085000D01*
X195317000Y-171926250D01*
X195317000Y-172497750D01*
X195158250Y-172339000D01*
X192809000Y-172339000D01*
X192809000Y-174338250D01*
X192967750Y-174497000D01*
X194555691Y-174497000D01*
X194808310Y-174497000D01*
X195041699Y-174400327D01*
X195220327Y-174221698D01*
X195317000Y-173988309D01*
X195317000Y-175133000D01*
X192555000Y-175133000D01*
X192555000Y-174338250D01*
X192555000Y-172339000D01*
X192555000Y-172085000D01*
X192555000Y-170085750D01*
X192396250Y-169927000D01*
X190808309Y-169927000D01*
X190555690Y-169927000D01*
X190322301Y-170023673D01*
X190143673Y-170202302D01*
X190047000Y-170435691D01*
X190047000Y-171926250D01*
X190205750Y-172085000D01*
X192555000Y-172085000D01*
X192555000Y-172339000D01*
X190205750Y-172339000D01*
X190047000Y-172497750D01*
X190047000Y-173988309D01*
X190143673Y-174221698D01*
X190322301Y-174400327D01*
X190555690Y-174497000D01*
X190808309Y-174497000D01*
X192396250Y-174497000D01*
X192555000Y-174338250D01*
X192555000Y-175133000D01*
X190904022Y-175133000D01*
X190897173Y-175122573D01*
X190686140Y-174980123D01*
X190436500Y-174930060D01*
X189357000Y-174930060D01*
X189357000Y-165227000D01*
X181107000Y-165227000D01*
X181107000Y-164182309D01*
X181107000Y-162591750D01*
X181107000Y-162020250D01*
X181107000Y-160429691D01*
X181010327Y-160196302D01*
X180831699Y-160017673D01*
X180598310Y-159921000D01*
X180345691Y-159921000D01*
X179507750Y-159921000D01*
X179349000Y-160079750D01*
X179349000Y-162179000D01*
X180948250Y-162179000D01*
X181107000Y-162020250D01*
X181107000Y-162591750D01*
X180948250Y-162433000D01*
X179349000Y-162433000D01*
X179349000Y-164532250D01*
X179507750Y-164691000D01*
X180345691Y-164691000D01*
X180598310Y-164691000D01*
X180831699Y-164594327D01*
X181010327Y-164415698D01*
X181107000Y-164182309D01*
X181107000Y-165227000D01*
X179095000Y-165227000D01*
X179095000Y-164532250D01*
X179095000Y-162433000D01*
X179095000Y-162179000D01*
X179095000Y-160079750D01*
X178936250Y-159921000D01*
X178098309Y-159921000D01*
X177845690Y-159921000D01*
X177612301Y-160017673D01*
X177433673Y-160196302D01*
X177337000Y-160429691D01*
X177337000Y-162020250D01*
X177495750Y-162179000D01*
X179095000Y-162179000D01*
X179095000Y-162433000D01*
X177495750Y-162433000D01*
X177337000Y-162591750D01*
X177337000Y-164182309D01*
X177433673Y-164415698D01*
X177612301Y-164594327D01*
X177845690Y-164691000D01*
X178098309Y-164691000D01*
X178936250Y-164691000D01*
X179095000Y-164532250D01*
X179095000Y-165227000D01*
X177165000Y-165227000D01*
X177165000Y-159181000D01*
X191008000Y-159181000D01*
X195961000Y-159181000D01*
X195961000Y-175133000D01*
X195961000Y-175133000D01*
G37*
X195961000Y-175133000D02*
X195947000Y-175133000D01*
X195947000Y-164941309D01*
X195947000Y-164750750D01*
X195947000Y-164179250D01*
X195947000Y-163988691D01*
X195881267Y-163830000D01*
X195947000Y-163671309D01*
X195947000Y-163480750D01*
X195947000Y-162909250D01*
X195947000Y-162718691D01*
X195881267Y-162560000D01*
X195947000Y-162401309D01*
X195947000Y-162210750D01*
X195947000Y-161639250D01*
X195947000Y-161448691D01*
X195881267Y-161290000D01*
X195947000Y-161131309D01*
X195947000Y-160940750D01*
X195947000Y-160369250D01*
X195947000Y-160178691D01*
X195850327Y-159945302D01*
X195671699Y-159766673D01*
X195438310Y-159670000D01*
X195185691Y-159670000D01*
X194797750Y-159670000D01*
X194639000Y-159828750D01*
X194639000Y-160528000D01*
X195788250Y-160528000D01*
X195947000Y-160369250D01*
X195947000Y-160940750D01*
X195788250Y-160782000D01*
X194639000Y-160782000D01*
X194639000Y-161098750D01*
X194639000Y-161481250D01*
X194639000Y-161798000D01*
X195788250Y-161798000D01*
X195947000Y-161639250D01*
X195947000Y-162210750D01*
X195788250Y-162052000D01*
X194639000Y-162052000D01*
X194639000Y-162368750D01*
X194639000Y-162751250D01*
X194639000Y-163068000D01*
X195788250Y-163068000D01*
X195947000Y-162909250D01*
X195947000Y-163480750D01*
X195788250Y-163322000D01*
X194639000Y-163322000D01*
X194639000Y-163638750D01*
X194639000Y-164021250D01*
X194639000Y-164338000D01*
X195788250Y-164338000D01*
X195947000Y-164179250D01*
X195947000Y-164750750D01*
X195788250Y-164592000D01*
X194639000Y-164592000D01*
X194639000Y-165291250D01*
X194797750Y-165450000D01*
X195185691Y-165450000D01*
X195438310Y-165450000D01*
X195671699Y-165353327D01*
X195850327Y-165174698D01*
X195947000Y-164941309D01*
X195947000Y-175133000D01*
X195317000Y-175133000D01*
X195317000Y-173988309D01*
X195317000Y-172497750D01*
X195317000Y-171926250D01*
X195317000Y-170435691D01*
X195220327Y-170202302D01*
X195041699Y-170023673D01*
X194808310Y-169927000D01*
X194555691Y-169927000D01*
X194385000Y-169927000D01*
X194385000Y-165291250D01*
X194385000Y-164592000D01*
X194385000Y-164338000D01*
X194385000Y-164021250D01*
X194385000Y-163638750D01*
X194385000Y-163322000D01*
X194385000Y-163068000D01*
X194385000Y-162751250D01*
X194385000Y-162368750D01*
X194385000Y-162052000D01*
X194385000Y-161798000D01*
X194385000Y-161481250D01*
X194385000Y-161098750D01*
X194385000Y-160782000D01*
X194385000Y-160528000D01*
X194385000Y-159828750D01*
X194226250Y-159670000D01*
X193838309Y-159670000D01*
X193585690Y-159670000D01*
X193352301Y-159766673D01*
X193173673Y-159945302D01*
X193077000Y-160178691D01*
X193077000Y-160369250D01*
X193235750Y-160528000D01*
X194385000Y-160528000D01*
X194385000Y-160782000D01*
X193235750Y-160782000D01*
X193077000Y-160940750D01*
X193077000Y-161131309D01*
X193142732Y-161290000D01*
X193077000Y-161448691D01*
X193077000Y-161639250D01*
X193235750Y-161798000D01*
X194385000Y-161798000D01*
X194385000Y-162052000D01*
X193235750Y-162052000D01*
X193077000Y-162210750D01*
X193077000Y-162401309D01*
X193142732Y-162560000D01*
X193077000Y-162718691D01*
X193077000Y-162909250D01*
X193235750Y-163068000D01*
X194385000Y-163068000D01*
X194385000Y-163322000D01*
X193235750Y-163322000D01*
X193077000Y-163480750D01*
X193077000Y-163671309D01*
X193142732Y-163830000D01*
X193077000Y-163988691D01*
X193077000Y-164179250D01*
X193235750Y-164338000D01*
X194385000Y-164338000D01*
X194385000Y-164592000D01*
X193235750Y-164592000D01*
X193077000Y-164750750D01*
X193077000Y-164941309D01*
X193173673Y-165174698D01*
X193352301Y-165353327D01*
X193585690Y-165450000D01*
X193838309Y-165450000D01*
X194226250Y-165450000D01*
X194385000Y-165291250D01*
X194385000Y-169927000D01*
X192967750Y-169927000D01*
X192809000Y-170085750D01*
X192809000Y-172085000D01*
X195158250Y-172085000D01*
X195317000Y-171926250D01*
X195317000Y-172497750D01*
X195158250Y-172339000D01*
X192809000Y-172339000D01*
X192809000Y-174338250D01*
X192967750Y-174497000D01*
X194555691Y-174497000D01*
X194808310Y-174497000D01*
X195041699Y-174400327D01*
X195220327Y-174221698D01*
X195317000Y-173988309D01*
X195317000Y-175133000D01*
X192555000Y-175133000D01*
X192555000Y-174338250D01*
X192555000Y-172339000D01*
X192555000Y-172085000D01*
X192555000Y-170085750D01*
X192396250Y-169927000D01*
X190808309Y-169927000D01*
X190555690Y-169927000D01*
X190322301Y-170023673D01*
X190143673Y-170202302D01*
X190047000Y-170435691D01*
X190047000Y-171926250D01*
X190205750Y-172085000D01*
X192555000Y-172085000D01*
X192555000Y-172339000D01*
X190205750Y-172339000D01*
X190047000Y-172497750D01*
X190047000Y-173988309D01*
X190143673Y-174221698D01*
X190322301Y-174400327D01*
X190555690Y-174497000D01*
X190808309Y-174497000D01*
X192396250Y-174497000D01*
X192555000Y-174338250D01*
X192555000Y-175133000D01*
X190904022Y-175133000D01*
X190897173Y-175122573D01*
X190686140Y-174980123D01*
X190436500Y-174930060D01*
X189357000Y-174930060D01*
X189357000Y-165227000D01*
X181107000Y-165227000D01*
X181107000Y-164182309D01*
X181107000Y-162591750D01*
X181107000Y-162020250D01*
X181107000Y-160429691D01*
X181010327Y-160196302D01*
X180831699Y-160017673D01*
X180598310Y-159921000D01*
X180345691Y-159921000D01*
X179507750Y-159921000D01*
X179349000Y-160079750D01*
X179349000Y-162179000D01*
X180948250Y-162179000D01*
X181107000Y-162020250D01*
X181107000Y-162591750D01*
X180948250Y-162433000D01*
X179349000Y-162433000D01*
X179349000Y-164532250D01*
X179507750Y-164691000D01*
X180345691Y-164691000D01*
X180598310Y-164691000D01*
X180831699Y-164594327D01*
X181010327Y-164415698D01*
X181107000Y-164182309D01*
X181107000Y-165227000D01*
X179095000Y-165227000D01*
X179095000Y-164532250D01*
X179095000Y-162433000D01*
X179095000Y-162179000D01*
X179095000Y-160079750D01*
X178936250Y-159921000D01*
X178098309Y-159921000D01*
X177845690Y-159921000D01*
X177612301Y-160017673D01*
X177433673Y-160196302D01*
X177337000Y-160429691D01*
X177337000Y-162020250D01*
X177495750Y-162179000D01*
X179095000Y-162179000D01*
X179095000Y-162433000D01*
X177495750Y-162433000D01*
X177337000Y-162591750D01*
X177337000Y-164182309D01*
X177433673Y-164415698D01*
X177612301Y-164594327D01*
X177845690Y-164691000D01*
X178098309Y-164691000D01*
X178936250Y-164691000D01*
X179095000Y-164532250D01*
X179095000Y-165227000D01*
X177165000Y-165227000D01*
X177165000Y-159181000D01*
X191008000Y-159181000D01*
X195961000Y-159181000D01*
X195961000Y-175133000D01*
G36*
X205867000Y-165989000D02*
X205637000Y-165989000D01*
X205637000Y-164848309D01*
X205637000Y-163607750D01*
X205637000Y-163036250D01*
X205637000Y-161795691D01*
X205540327Y-161562302D01*
X205361699Y-161383673D01*
X205128310Y-161287000D01*
X204875691Y-161287000D01*
X204287750Y-161287000D01*
X204129000Y-161445750D01*
X204129000Y-163195000D01*
X205478250Y-163195000D01*
X205637000Y-163036250D01*
X205637000Y-163607750D01*
X205478250Y-163449000D01*
X204129000Y-163449000D01*
X204129000Y-165198250D01*
X204287750Y-165357000D01*
X204875691Y-165357000D01*
X205128310Y-165357000D01*
X205361699Y-165260327D01*
X205540327Y-165081698D01*
X205637000Y-164848309D01*
X205637000Y-165989000D01*
X203875000Y-165989000D01*
X203875000Y-165198250D01*
X203875000Y-163449000D01*
X203875000Y-163195000D01*
X203875000Y-161445750D01*
X203716250Y-161287000D01*
X203128309Y-161287000D01*
X202875690Y-161287000D01*
X202642301Y-161383673D01*
X202463673Y-161562302D01*
X202367000Y-161795691D01*
X202367000Y-163036250D01*
X202525750Y-163195000D01*
X203875000Y-163195000D01*
X203875000Y-163449000D01*
X202525750Y-163449000D01*
X202367000Y-163607750D01*
X202367000Y-164848309D01*
X202463673Y-165081698D01*
X202642301Y-165260327D01*
X202875690Y-165357000D01*
X203128309Y-165357000D01*
X203716250Y-165357000D01*
X203875000Y-165198250D01*
X203875000Y-165989000D01*
X202147000Y-165989000D01*
X202147000Y-164941309D01*
X202147000Y-164750750D01*
X202147000Y-164179250D01*
X202147000Y-163988691D01*
X202081267Y-163830000D01*
X202147000Y-163671309D01*
X202147000Y-163480750D01*
X202147000Y-162909250D01*
X202147000Y-162718691D01*
X202081267Y-162560000D01*
X202147000Y-162401309D01*
X202147000Y-162210750D01*
X201988250Y-162052000D01*
X200839000Y-162052000D01*
X200839000Y-162368750D01*
X200839000Y-162751250D01*
X200839000Y-163068000D01*
X201988250Y-163068000D01*
X202147000Y-162909250D01*
X202147000Y-163480750D01*
X201988250Y-163322000D01*
X200839000Y-163322000D01*
X200839000Y-163638750D01*
X200839000Y-164021250D01*
X200839000Y-164338000D01*
X201988250Y-164338000D01*
X202147000Y-164179250D01*
X202147000Y-164750750D01*
X201988250Y-164592000D01*
X200839000Y-164592000D01*
X200839000Y-165291250D01*
X200997750Y-165450000D01*
X201385691Y-165450000D01*
X201638310Y-165450000D01*
X201871699Y-165353327D01*
X202050327Y-165174698D01*
X202147000Y-164941309D01*
X202147000Y-165989000D01*
X200025000Y-165989000D01*
X200025000Y-165450000D01*
X200038309Y-165450000D01*
X200426250Y-165450000D01*
X200585000Y-165291250D01*
X200585000Y-164592000D01*
X200565000Y-164592000D01*
X200565000Y-164338000D01*
X200585000Y-164338000D01*
X200585000Y-164021250D01*
X200585000Y-163638750D01*
X200585000Y-163322000D01*
X200565000Y-163322000D01*
X200565000Y-163068000D01*
X200585000Y-163068000D01*
X200585000Y-162751250D01*
X200585000Y-162368750D01*
X200585000Y-162052000D01*
X200565000Y-162052000D01*
X200565000Y-161798000D01*
X200585000Y-161798000D01*
X200585000Y-161778000D01*
X200839000Y-161778000D01*
X200839000Y-161798000D01*
X201988250Y-161798000D01*
X202147000Y-161639250D01*
X202147000Y-161448691D01*
X202082880Y-161293893D01*
X202109377Y-161254640D01*
X202159440Y-161005000D01*
X202159440Y-160655000D01*
X205867000Y-160655000D01*
X205867000Y-165989000D01*
X205867000Y-165989000D01*
G37*
X205867000Y-165989000D02*
X205637000Y-165989000D01*
X205637000Y-164848309D01*
X205637000Y-163607750D01*
X205637000Y-163036250D01*
X205637000Y-161795691D01*
X205540327Y-161562302D01*
X205361699Y-161383673D01*
X205128310Y-161287000D01*
X204875691Y-161287000D01*
X204287750Y-161287000D01*
X204129000Y-161445750D01*
X204129000Y-163195000D01*
X205478250Y-163195000D01*
X205637000Y-163036250D01*
X205637000Y-163607750D01*
X205478250Y-163449000D01*
X204129000Y-163449000D01*
X204129000Y-165198250D01*
X204287750Y-165357000D01*
X204875691Y-165357000D01*
X205128310Y-165357000D01*
X205361699Y-165260327D01*
X205540327Y-165081698D01*
X205637000Y-164848309D01*
X205637000Y-165989000D01*
X203875000Y-165989000D01*
X203875000Y-165198250D01*
X203875000Y-163449000D01*
X203875000Y-163195000D01*
X203875000Y-161445750D01*
X203716250Y-161287000D01*
X203128309Y-161287000D01*
X202875690Y-161287000D01*
X202642301Y-161383673D01*
X202463673Y-161562302D01*
X202367000Y-161795691D01*
X202367000Y-163036250D01*
X202525750Y-163195000D01*
X203875000Y-163195000D01*
X203875000Y-163449000D01*
X202525750Y-163449000D01*
X202367000Y-163607750D01*
X202367000Y-164848309D01*
X202463673Y-165081698D01*
X202642301Y-165260327D01*
X202875690Y-165357000D01*
X203128309Y-165357000D01*
X203716250Y-165357000D01*
X203875000Y-165198250D01*
X203875000Y-165989000D01*
X202147000Y-165989000D01*
X202147000Y-164941309D01*
X202147000Y-164750750D01*
X202147000Y-164179250D01*
X202147000Y-163988691D01*
X202081267Y-163830000D01*
X202147000Y-163671309D01*
X202147000Y-163480750D01*
X202147000Y-162909250D01*
X202147000Y-162718691D01*
X202081267Y-162560000D01*
X202147000Y-162401309D01*
X202147000Y-162210750D01*
X201988250Y-162052000D01*
X200839000Y-162052000D01*
X200839000Y-162368750D01*
X200839000Y-162751250D01*
X200839000Y-163068000D01*
X201988250Y-163068000D01*
X202147000Y-162909250D01*
X202147000Y-163480750D01*
X201988250Y-163322000D01*
X200839000Y-163322000D01*
X200839000Y-163638750D01*
X200839000Y-164021250D01*
X200839000Y-164338000D01*
X201988250Y-164338000D01*
X202147000Y-164179250D01*
X202147000Y-164750750D01*
X201988250Y-164592000D01*
X200839000Y-164592000D01*
X200839000Y-165291250D01*
X200997750Y-165450000D01*
X201385691Y-165450000D01*
X201638310Y-165450000D01*
X201871699Y-165353327D01*
X202050327Y-165174698D01*
X202147000Y-164941309D01*
X202147000Y-165989000D01*
X200025000Y-165989000D01*
X200025000Y-165450000D01*
X200038309Y-165450000D01*
X200426250Y-165450000D01*
X200585000Y-165291250D01*
X200585000Y-164592000D01*
X200565000Y-164592000D01*
X200565000Y-164338000D01*
X200585000Y-164338000D01*
X200585000Y-164021250D01*
X200585000Y-163638750D01*
X200585000Y-163322000D01*
X200565000Y-163322000D01*
X200565000Y-163068000D01*
X200585000Y-163068000D01*
X200585000Y-162751250D01*
X200585000Y-162368750D01*
X200585000Y-162052000D01*
X200565000Y-162052000D01*
X200565000Y-161798000D01*
X200585000Y-161798000D01*
X200585000Y-161778000D01*
X200839000Y-161778000D01*
X200839000Y-161798000D01*
X201988250Y-161798000D01*
X202147000Y-161639250D01*
X202147000Y-161448691D01*
X202082880Y-161293893D01*
X202109377Y-161254640D01*
X202159440Y-161005000D01*
X202159440Y-160655000D01*
X205867000Y-160655000D01*
X205867000Y-165989000D01*
G36*
X224663000Y-174117000D02*
X223873873Y-174117000D01*
X223887000Y-174085309D01*
X223887000Y-173894750D01*
X223887000Y-173323250D01*
X223887000Y-173132691D01*
X223821267Y-172974000D01*
X223887000Y-172815309D01*
X223887000Y-172624750D01*
X223887000Y-172053250D01*
X223887000Y-171862691D01*
X223821267Y-171704000D01*
X223887000Y-171545309D01*
X223887000Y-171354750D01*
X223887000Y-170783250D01*
X223887000Y-170592691D01*
X223790327Y-170359302D01*
X223611699Y-170180673D01*
X223378310Y-170084000D01*
X223125691Y-170084000D01*
X222737750Y-170084000D01*
X222579000Y-170242750D01*
X222579000Y-170942000D01*
X223728250Y-170942000D01*
X223887000Y-170783250D01*
X223887000Y-171354750D01*
X223728250Y-171196000D01*
X222579000Y-171196000D01*
X222579000Y-171512750D01*
X222579000Y-171895250D01*
X222579000Y-172212000D01*
X223728250Y-172212000D01*
X223887000Y-172053250D01*
X223887000Y-172624750D01*
X223728250Y-172466000D01*
X222579000Y-172466000D01*
X222579000Y-172782750D01*
X222579000Y-173165250D01*
X222579000Y-173482000D01*
X223728250Y-173482000D01*
X223887000Y-173323250D01*
X223887000Y-173894750D01*
X223728250Y-173736000D01*
X222579000Y-173736000D01*
X222579000Y-173756000D01*
X222325000Y-173756000D01*
X222325000Y-173736000D01*
X222325000Y-173482000D01*
X222325000Y-173165250D01*
X222325000Y-172782750D01*
X222325000Y-172466000D01*
X222325000Y-172212000D01*
X222325000Y-171895250D01*
X222325000Y-171512750D01*
X222325000Y-171196000D01*
X222325000Y-170942000D01*
X222325000Y-170242750D01*
X222166250Y-170084000D01*
X221778309Y-170084000D01*
X221525690Y-170084000D01*
X221292301Y-170180673D01*
X221113673Y-170359302D01*
X221017000Y-170592691D01*
X221017000Y-170783250D01*
X221175750Y-170942000D01*
X222325000Y-170942000D01*
X222325000Y-171196000D01*
X221175750Y-171196000D01*
X221017000Y-171354750D01*
X221017000Y-171545309D01*
X221082732Y-171704000D01*
X221017000Y-171862691D01*
X221017000Y-172053250D01*
X221175750Y-172212000D01*
X222325000Y-172212000D01*
X222325000Y-172466000D01*
X221175750Y-172466000D01*
X221017000Y-172624750D01*
X221017000Y-172815309D01*
X221082732Y-172974000D01*
X221017000Y-173132691D01*
X221017000Y-173323250D01*
X221175750Y-173482000D01*
X222325000Y-173482000D01*
X222325000Y-173736000D01*
X221175750Y-173736000D01*
X221017000Y-173894750D01*
X221017000Y-174085309D01*
X221030126Y-174117000D01*
X220853000Y-174117000D01*
X220853000Y-175133000D01*
X216677000Y-175133000D01*
X216677000Y-173720310D01*
X216677000Y-173467691D01*
X216677000Y-171879750D01*
X216677000Y-171308250D01*
X216677000Y-169720309D01*
X216677000Y-169467690D01*
X216580327Y-169234301D01*
X216401698Y-169055673D01*
X216168309Y-168959000D01*
X215677750Y-168959000D01*
X215519000Y-169117750D01*
X215519000Y-171467000D01*
X216518250Y-171467000D01*
X216677000Y-171308250D01*
X216677000Y-171879750D01*
X216518250Y-171721000D01*
X215519000Y-171721000D01*
X215519000Y-174070250D01*
X215677750Y-174229000D01*
X216168309Y-174229000D01*
X216401698Y-174132327D01*
X216580327Y-173953699D01*
X216677000Y-173720310D01*
X216677000Y-175133000D01*
X215265000Y-175133000D01*
X215265000Y-174070250D01*
X215265000Y-171721000D01*
X215265000Y-171467000D01*
X215265000Y-169117750D01*
X215106250Y-168959000D01*
X214615691Y-168959000D01*
X214382302Y-169055673D01*
X214203673Y-169234301D01*
X214107000Y-169467690D01*
X214107000Y-169720309D01*
X214107000Y-171308250D01*
X214265750Y-171467000D01*
X215265000Y-171467000D01*
X215265000Y-171721000D01*
X214265750Y-171721000D01*
X214107000Y-171879750D01*
X214107000Y-173467691D01*
X214107000Y-173720310D01*
X214203673Y-173953699D01*
X214382302Y-174132327D01*
X214615691Y-174229000D01*
X215106250Y-174229000D01*
X215265000Y-174070250D01*
X215265000Y-175133000D01*
X207717000Y-175133000D01*
X207717000Y-173988309D01*
X207717000Y-172497750D01*
X207717000Y-171926250D01*
X207717000Y-170435691D01*
X207620327Y-170202302D01*
X207441699Y-170023673D01*
X207208310Y-169927000D01*
X206955691Y-169927000D01*
X205367750Y-169927000D01*
X205209000Y-170085750D01*
X205209000Y-172085000D01*
X207558250Y-172085000D01*
X207717000Y-171926250D01*
X207717000Y-172497750D01*
X207558250Y-172339000D01*
X205209000Y-172339000D01*
X205209000Y-174338250D01*
X205367750Y-174497000D01*
X206955691Y-174497000D01*
X207208310Y-174497000D01*
X207441699Y-174400327D01*
X207620327Y-174221698D01*
X207717000Y-173988309D01*
X207717000Y-175133000D01*
X204955000Y-175133000D01*
X204955000Y-174338250D01*
X204955000Y-172339000D01*
X204955000Y-172085000D01*
X204955000Y-170085750D01*
X204796250Y-169927000D01*
X203208309Y-169927000D01*
X202955690Y-169927000D01*
X202722301Y-170023673D01*
X202543673Y-170202302D01*
X202447000Y-170435691D01*
X202447000Y-171926250D01*
X202605750Y-172085000D01*
X204955000Y-172085000D01*
X204955000Y-172339000D01*
X202605750Y-172339000D01*
X202447000Y-172497750D01*
X202447000Y-173988309D01*
X202543673Y-174221698D01*
X202722301Y-174400327D01*
X202955690Y-174497000D01*
X203208309Y-174497000D01*
X204796250Y-174497000D01*
X204955000Y-174338250D01*
X204955000Y-175133000D01*
X202057000Y-175133000D01*
X202057000Y-168783000D01*
X224663000Y-168783000D01*
X224663000Y-170304136D01*
X224637378Y-170329714D01*
X224472687Y-170726332D01*
X224472313Y-171155784D01*
X224636311Y-171552689D01*
X224663000Y-171579424D01*
X224663000Y-174117000D01*
X224663000Y-174117000D01*
G37*
X224663000Y-174117000D02*
X223873873Y-174117000D01*
X223887000Y-174085309D01*
X223887000Y-173894750D01*
X223887000Y-173323250D01*
X223887000Y-173132691D01*
X223821267Y-172974000D01*
X223887000Y-172815309D01*
X223887000Y-172624750D01*
X223887000Y-172053250D01*
X223887000Y-171862691D01*
X223821267Y-171704000D01*
X223887000Y-171545309D01*
X223887000Y-171354750D01*
X223887000Y-170783250D01*
X223887000Y-170592691D01*
X223790327Y-170359302D01*
X223611699Y-170180673D01*
X223378310Y-170084000D01*
X223125691Y-170084000D01*
X222737750Y-170084000D01*
X222579000Y-170242750D01*
X222579000Y-170942000D01*
X223728250Y-170942000D01*
X223887000Y-170783250D01*
X223887000Y-171354750D01*
X223728250Y-171196000D01*
X222579000Y-171196000D01*
X222579000Y-171512750D01*
X222579000Y-171895250D01*
X222579000Y-172212000D01*
X223728250Y-172212000D01*
X223887000Y-172053250D01*
X223887000Y-172624750D01*
X223728250Y-172466000D01*
X222579000Y-172466000D01*
X222579000Y-172782750D01*
X222579000Y-173165250D01*
X222579000Y-173482000D01*
X223728250Y-173482000D01*
X223887000Y-173323250D01*
X223887000Y-173894750D01*
X223728250Y-173736000D01*
X222579000Y-173736000D01*
X222579000Y-173756000D01*
X222325000Y-173756000D01*
X222325000Y-173736000D01*
X222325000Y-173482000D01*
X222325000Y-173165250D01*
X222325000Y-172782750D01*
X222325000Y-172466000D01*
X222325000Y-172212000D01*
X222325000Y-171895250D01*
X222325000Y-171512750D01*
X222325000Y-171196000D01*
X222325000Y-170942000D01*
X222325000Y-170242750D01*
X222166250Y-170084000D01*
X221778309Y-170084000D01*
X221525690Y-170084000D01*
X221292301Y-170180673D01*
X221113673Y-170359302D01*
X221017000Y-170592691D01*
X221017000Y-170783250D01*
X221175750Y-170942000D01*
X222325000Y-170942000D01*
X222325000Y-171196000D01*
X221175750Y-171196000D01*
X221017000Y-171354750D01*
X221017000Y-171545309D01*
X221082732Y-171704000D01*
X221017000Y-171862691D01*
X221017000Y-172053250D01*
X221175750Y-172212000D01*
X222325000Y-172212000D01*
X222325000Y-172466000D01*
X221175750Y-172466000D01*
X221017000Y-172624750D01*
X221017000Y-172815309D01*
X221082732Y-172974000D01*
X221017000Y-173132691D01*
X221017000Y-173323250D01*
X221175750Y-173482000D01*
X222325000Y-173482000D01*
X222325000Y-173736000D01*
X221175750Y-173736000D01*
X221017000Y-173894750D01*
X221017000Y-174085309D01*
X221030126Y-174117000D01*
X220853000Y-174117000D01*
X220853000Y-175133000D01*
X216677000Y-175133000D01*
X216677000Y-173720310D01*
X216677000Y-173467691D01*
X216677000Y-171879750D01*
X216677000Y-171308250D01*
X216677000Y-169720309D01*
X216677000Y-169467690D01*
X216580327Y-169234301D01*
X216401698Y-169055673D01*
X216168309Y-168959000D01*
X215677750Y-168959000D01*
X215519000Y-169117750D01*
X215519000Y-171467000D01*
X216518250Y-171467000D01*
X216677000Y-171308250D01*
X216677000Y-171879750D01*
X216518250Y-171721000D01*
X215519000Y-171721000D01*
X215519000Y-174070250D01*
X215677750Y-174229000D01*
X216168309Y-174229000D01*
X216401698Y-174132327D01*
X216580327Y-173953699D01*
X216677000Y-173720310D01*
X216677000Y-175133000D01*
X215265000Y-175133000D01*
X215265000Y-174070250D01*
X215265000Y-171721000D01*
X215265000Y-171467000D01*
X215265000Y-169117750D01*
X215106250Y-168959000D01*
X214615691Y-168959000D01*
X214382302Y-169055673D01*
X214203673Y-169234301D01*
X214107000Y-169467690D01*
X214107000Y-169720309D01*
X214107000Y-171308250D01*
X214265750Y-171467000D01*
X215265000Y-171467000D01*
X215265000Y-171721000D01*
X214265750Y-171721000D01*
X214107000Y-171879750D01*
X214107000Y-173467691D01*
X214107000Y-173720310D01*
X214203673Y-173953699D01*
X214382302Y-174132327D01*
X214615691Y-174229000D01*
X215106250Y-174229000D01*
X215265000Y-174070250D01*
X215265000Y-175133000D01*
X207717000Y-175133000D01*
X207717000Y-173988309D01*
X207717000Y-172497750D01*
X207717000Y-171926250D01*
X207717000Y-170435691D01*
X207620327Y-170202302D01*
X207441699Y-170023673D01*
X207208310Y-169927000D01*
X206955691Y-169927000D01*
X205367750Y-169927000D01*
X205209000Y-170085750D01*
X205209000Y-172085000D01*
X207558250Y-172085000D01*
X207717000Y-171926250D01*
X207717000Y-172497750D01*
X207558250Y-172339000D01*
X205209000Y-172339000D01*
X205209000Y-174338250D01*
X205367750Y-174497000D01*
X206955691Y-174497000D01*
X207208310Y-174497000D01*
X207441699Y-174400327D01*
X207620327Y-174221698D01*
X207717000Y-173988309D01*
X207717000Y-175133000D01*
X204955000Y-175133000D01*
X204955000Y-174338250D01*
X204955000Y-172339000D01*
X204955000Y-172085000D01*
X204955000Y-170085750D01*
X204796250Y-169927000D01*
X203208309Y-169927000D01*
X202955690Y-169927000D01*
X202722301Y-170023673D01*
X202543673Y-170202302D01*
X202447000Y-170435691D01*
X202447000Y-171926250D01*
X202605750Y-172085000D01*
X204955000Y-172085000D01*
X204955000Y-172339000D01*
X202605750Y-172339000D01*
X202447000Y-172497750D01*
X202447000Y-173988309D01*
X202543673Y-174221698D01*
X202722301Y-174400327D01*
X202955690Y-174497000D01*
X203208309Y-174497000D01*
X204796250Y-174497000D01*
X204955000Y-174338250D01*
X204955000Y-175133000D01*
X202057000Y-175133000D01*
X202057000Y-168783000D01*
X224663000Y-168783000D01*
X224663000Y-170304136D01*
X224637378Y-170329714D01*
X224472687Y-170726332D01*
X224472313Y-171155784D01*
X224636311Y-171552689D01*
X224663000Y-171579424D01*
X224663000Y-174117000D01*
G36*
X217297000Y-168021000D02*
X216677000Y-168021000D01*
X216677000Y-166320310D01*
X216677000Y-166067691D01*
X216677000Y-164479750D01*
X216677000Y-163908250D01*
X216677000Y-162320309D01*
X216677000Y-162067690D01*
X216580327Y-161834301D01*
X216401698Y-161655673D01*
X216168309Y-161559000D01*
X215677750Y-161559000D01*
X215519000Y-161717750D01*
X215519000Y-164067000D01*
X216518250Y-164067000D01*
X216677000Y-163908250D01*
X216677000Y-164479750D01*
X216518250Y-164321000D01*
X215519000Y-164321000D01*
X215519000Y-166670250D01*
X215677750Y-166829000D01*
X216168309Y-166829000D01*
X216401698Y-166732327D01*
X216580327Y-166553699D01*
X216677000Y-166320310D01*
X216677000Y-168021000D01*
X215265000Y-168021000D01*
X215265000Y-166670250D01*
X215265000Y-164321000D01*
X215265000Y-164067000D01*
X215265000Y-161717750D01*
X215106250Y-161559000D01*
X214615691Y-161559000D01*
X214382302Y-161655673D01*
X214203673Y-161834301D01*
X214107000Y-162067690D01*
X214107000Y-162320309D01*
X214107000Y-163908250D01*
X214265750Y-164067000D01*
X215265000Y-164067000D01*
X215265000Y-164321000D01*
X214265750Y-164321000D01*
X214107000Y-164479750D01*
X214107000Y-166067691D01*
X214107000Y-166320310D01*
X214203673Y-166553699D01*
X214382302Y-166732327D01*
X214615691Y-166829000D01*
X215106250Y-166829000D01*
X215265000Y-166670250D01*
X215265000Y-168021000D01*
X210637000Y-168021000D01*
X210637000Y-164848309D01*
X210637000Y-163607750D01*
X210637000Y-163036250D01*
X210637000Y-161795691D01*
X210540327Y-161562302D01*
X210361699Y-161383673D01*
X210128310Y-161287000D01*
X209875691Y-161287000D01*
X209287750Y-161287000D01*
X209129000Y-161445750D01*
X209129000Y-163195000D01*
X210478250Y-163195000D01*
X210637000Y-163036250D01*
X210637000Y-163607750D01*
X210478250Y-163449000D01*
X209129000Y-163449000D01*
X209129000Y-165198250D01*
X209287750Y-165357000D01*
X209875691Y-165357000D01*
X210128310Y-165357000D01*
X210361699Y-165260327D01*
X210540327Y-165081698D01*
X210637000Y-164848309D01*
X210637000Y-168021000D01*
X208875000Y-168021000D01*
X208875000Y-165198250D01*
X208875000Y-163449000D01*
X208875000Y-163195000D01*
X208875000Y-161445750D01*
X208716250Y-161287000D01*
X208128309Y-161287000D01*
X207875690Y-161287000D01*
X207642301Y-161383673D01*
X207463673Y-161562302D01*
X207367000Y-161795691D01*
X207367000Y-163036250D01*
X207525750Y-163195000D01*
X208875000Y-163195000D01*
X208875000Y-163449000D01*
X207525750Y-163449000D01*
X207367000Y-163607750D01*
X207367000Y-164848309D01*
X207463673Y-165081698D01*
X207642301Y-165260327D01*
X207875690Y-165357000D01*
X208128309Y-165357000D01*
X208716250Y-165357000D01*
X208875000Y-165198250D01*
X208875000Y-168021000D01*
X206883000Y-168021000D01*
X206883000Y-160655000D01*
X217297000Y-160655000D01*
X217297000Y-168021000D01*
X217297000Y-168021000D01*
G37*
X217297000Y-168021000D02*
X216677000Y-168021000D01*
X216677000Y-166320310D01*
X216677000Y-166067691D01*
X216677000Y-164479750D01*
X216677000Y-163908250D01*
X216677000Y-162320309D01*
X216677000Y-162067690D01*
X216580327Y-161834301D01*
X216401698Y-161655673D01*
X216168309Y-161559000D01*
X215677750Y-161559000D01*
X215519000Y-161717750D01*
X215519000Y-164067000D01*
X216518250Y-164067000D01*
X216677000Y-163908250D01*
X216677000Y-164479750D01*
X216518250Y-164321000D01*
X215519000Y-164321000D01*
X215519000Y-166670250D01*
X215677750Y-166829000D01*
X216168309Y-166829000D01*
X216401698Y-166732327D01*
X216580327Y-166553699D01*
X216677000Y-166320310D01*
X216677000Y-168021000D01*
X215265000Y-168021000D01*
X215265000Y-166670250D01*
X215265000Y-164321000D01*
X215265000Y-164067000D01*
X215265000Y-161717750D01*
X215106250Y-161559000D01*
X214615691Y-161559000D01*
X214382302Y-161655673D01*
X214203673Y-161834301D01*
X214107000Y-162067690D01*
X214107000Y-162320309D01*
X214107000Y-163908250D01*
X214265750Y-164067000D01*
X215265000Y-164067000D01*
X215265000Y-164321000D01*
X214265750Y-164321000D01*
X214107000Y-164479750D01*
X214107000Y-166067691D01*
X214107000Y-166320310D01*
X214203673Y-166553699D01*
X214382302Y-166732327D01*
X214615691Y-166829000D01*
X215106250Y-166829000D01*
X215265000Y-166670250D01*
X215265000Y-168021000D01*
X210637000Y-168021000D01*
X210637000Y-164848309D01*
X210637000Y-163607750D01*
X210637000Y-163036250D01*
X210637000Y-161795691D01*
X210540327Y-161562302D01*
X210361699Y-161383673D01*
X210128310Y-161287000D01*
X209875691Y-161287000D01*
X209287750Y-161287000D01*
X209129000Y-161445750D01*
X209129000Y-163195000D01*
X210478250Y-163195000D01*
X210637000Y-163036250D01*
X210637000Y-163607750D01*
X210478250Y-163449000D01*
X209129000Y-163449000D01*
X209129000Y-165198250D01*
X209287750Y-165357000D01*
X209875691Y-165357000D01*
X210128310Y-165357000D01*
X210361699Y-165260327D01*
X210540327Y-165081698D01*
X210637000Y-164848309D01*
X210637000Y-168021000D01*
X208875000Y-168021000D01*
X208875000Y-165198250D01*
X208875000Y-163449000D01*
X208875000Y-163195000D01*
X208875000Y-161445750D01*
X208716250Y-161287000D01*
X208128309Y-161287000D01*
X207875690Y-161287000D01*
X207642301Y-161383673D01*
X207463673Y-161562302D01*
X207367000Y-161795691D01*
X207367000Y-163036250D01*
X207525750Y-163195000D01*
X208875000Y-163195000D01*
X208875000Y-163449000D01*
X207525750Y-163449000D01*
X207367000Y-163607750D01*
X207367000Y-164848309D01*
X207463673Y-165081698D01*
X207642301Y-165260327D01*
X207875690Y-165357000D01*
X208128309Y-165357000D01*
X208716250Y-165357000D01*
X208875000Y-165198250D01*
X208875000Y-168021000D01*
X206883000Y-168021000D01*
X206883000Y-160655000D01*
X217297000Y-160655000D01*
X217297000Y-168021000D01*
G36*
X235839000Y-175863624D02*
X235609827Y-175768464D01*
X235579908Y-175768437D01*
X235579908Y-173238539D01*
X235555856Y-172588540D01*
X235353387Y-172099736D01*
X235086532Y-172001073D01*
X234906927Y-172180678D01*
X234906927Y-171821468D01*
X234808264Y-171554613D01*
X234198539Y-171328092D01*
X233548540Y-171352144D01*
X233059736Y-171554613D01*
X232961073Y-171821468D01*
X233934000Y-172794395D01*
X234906927Y-171821468D01*
X234906927Y-172180678D01*
X234113605Y-172974000D01*
X235086532Y-173946927D01*
X235353387Y-173848264D01*
X235579908Y-173238539D01*
X235579908Y-175768437D01*
X234906927Y-175767850D01*
X234906927Y-174126532D01*
X233934000Y-173153605D01*
X233754395Y-173333210D01*
X233754395Y-172974000D01*
X232781468Y-172001073D01*
X232514613Y-172099736D01*
X232288092Y-172709461D01*
X232312144Y-173359460D01*
X232514613Y-173848264D01*
X232781468Y-173946927D01*
X233754395Y-172974000D01*
X233754395Y-173333210D01*
X232961073Y-174126532D01*
X233059736Y-174393387D01*
X233669461Y-174619908D01*
X234319460Y-174595856D01*
X234808264Y-174393387D01*
X234906927Y-174126532D01*
X234906927Y-175767850D01*
X234548828Y-175767538D01*
X233625619Y-176149000D01*
X230087000Y-176149000D01*
X230087000Y-175355309D01*
X230087000Y-175164750D01*
X230087000Y-174593250D01*
X230087000Y-174402691D01*
X230021267Y-174244000D01*
X230087000Y-174085309D01*
X230087000Y-173894750D01*
X230087000Y-173323250D01*
X230087000Y-173132691D01*
X230021267Y-172974000D01*
X230087000Y-172815309D01*
X230087000Y-172624750D01*
X230087000Y-172053250D01*
X230087000Y-171862691D01*
X230021267Y-171704000D01*
X230087000Y-171545309D01*
X230087000Y-171354750D01*
X230087000Y-170783250D01*
X230087000Y-170592691D01*
X229990327Y-170359302D01*
X229811699Y-170180673D01*
X229578310Y-170084000D01*
X229325691Y-170084000D01*
X228937750Y-170084000D01*
X228779000Y-170242750D01*
X228779000Y-170942000D01*
X229928250Y-170942000D01*
X230087000Y-170783250D01*
X230087000Y-171354750D01*
X229928250Y-171196000D01*
X228779000Y-171196000D01*
X228779000Y-171512750D01*
X228779000Y-171895250D01*
X228779000Y-172212000D01*
X229928250Y-172212000D01*
X230087000Y-172053250D01*
X230087000Y-172624750D01*
X229928250Y-172466000D01*
X228779000Y-172466000D01*
X228779000Y-172782750D01*
X228779000Y-173165250D01*
X228779000Y-173482000D01*
X229928250Y-173482000D01*
X230087000Y-173323250D01*
X230087000Y-173894750D01*
X229928250Y-173736000D01*
X228779000Y-173736000D01*
X228779000Y-174052750D01*
X228779000Y-174435250D01*
X228779000Y-174752000D01*
X229928250Y-174752000D01*
X230087000Y-174593250D01*
X230087000Y-175164750D01*
X229928250Y-175006000D01*
X228779000Y-175006000D01*
X228779000Y-175705250D01*
X228937750Y-175864000D01*
X229325691Y-175864000D01*
X229578310Y-175864000D01*
X229811699Y-175767327D01*
X229990327Y-175588698D01*
X230087000Y-175355309D01*
X230087000Y-176149000D01*
X228525000Y-176149000D01*
X228525000Y-175705250D01*
X228525000Y-175006000D01*
X228525000Y-174752000D01*
X228525000Y-174435250D01*
X228525000Y-174052750D01*
X228525000Y-173736000D01*
X228525000Y-173482000D01*
X228525000Y-173165250D01*
X228525000Y-172782750D01*
X228525000Y-172466000D01*
X228525000Y-172212000D01*
X228525000Y-171895250D01*
X228525000Y-171512750D01*
X228525000Y-171196000D01*
X228525000Y-170942000D01*
X228525000Y-170242750D01*
X228366250Y-170084000D01*
X227978309Y-170084000D01*
X227725690Y-170084000D01*
X227492301Y-170180673D01*
X227313673Y-170359302D01*
X227217000Y-170592691D01*
X227217000Y-170783250D01*
X227375750Y-170942000D01*
X228525000Y-170942000D01*
X228525000Y-171196000D01*
X227375750Y-171196000D01*
X227217000Y-171354750D01*
X227217000Y-171545309D01*
X227282732Y-171704000D01*
X227217000Y-171862691D01*
X227217000Y-172053250D01*
X227375750Y-172212000D01*
X228525000Y-172212000D01*
X228525000Y-172466000D01*
X227375750Y-172466000D01*
X227217000Y-172624750D01*
X227217000Y-172815309D01*
X227282732Y-172974000D01*
X227217000Y-173132691D01*
X227217000Y-173323250D01*
X227375750Y-173482000D01*
X228525000Y-173482000D01*
X228525000Y-173736000D01*
X227375750Y-173736000D01*
X227217000Y-173894750D01*
X227217000Y-174085309D01*
X227282732Y-174244000D01*
X227217000Y-174402691D01*
X227217000Y-174593250D01*
X227375750Y-174752000D01*
X228525000Y-174752000D01*
X228525000Y-175006000D01*
X227375750Y-175006000D01*
X227217000Y-175164750D01*
X227217000Y-175355309D01*
X227313673Y-175588698D01*
X227492301Y-175767327D01*
X227725690Y-175864000D01*
X227978309Y-175864000D01*
X228366250Y-175864000D01*
X228525000Y-175705250D01*
X228525000Y-176149000D01*
X226949000Y-176149000D01*
X226949000Y-172352864D01*
X227017996Y-172249605D01*
X227075999Y-171958000D01*
X227076000Y-171958000D01*
X227076000Y-170053000D01*
X235839000Y-170053000D01*
X235839000Y-175863624D01*
X235839000Y-175863624D01*
G37*
X235839000Y-175863624D02*
X235609827Y-175768464D01*
X235579908Y-175768437D01*
X235579908Y-173238539D01*
X235555856Y-172588540D01*
X235353387Y-172099736D01*
X235086532Y-172001073D01*
X234906927Y-172180678D01*
X234906927Y-171821468D01*
X234808264Y-171554613D01*
X234198539Y-171328092D01*
X233548540Y-171352144D01*
X233059736Y-171554613D01*
X232961073Y-171821468D01*
X233934000Y-172794395D01*
X234906927Y-171821468D01*
X234906927Y-172180678D01*
X234113605Y-172974000D01*
X235086532Y-173946927D01*
X235353387Y-173848264D01*
X235579908Y-173238539D01*
X235579908Y-175768437D01*
X234906927Y-175767850D01*
X234906927Y-174126532D01*
X233934000Y-173153605D01*
X233754395Y-173333210D01*
X233754395Y-172974000D01*
X232781468Y-172001073D01*
X232514613Y-172099736D01*
X232288092Y-172709461D01*
X232312144Y-173359460D01*
X232514613Y-173848264D01*
X232781468Y-173946927D01*
X233754395Y-172974000D01*
X233754395Y-173333210D01*
X232961073Y-174126532D01*
X233059736Y-174393387D01*
X233669461Y-174619908D01*
X234319460Y-174595856D01*
X234808264Y-174393387D01*
X234906927Y-174126532D01*
X234906927Y-175767850D01*
X234548828Y-175767538D01*
X233625619Y-176149000D01*
X230087000Y-176149000D01*
X230087000Y-175355309D01*
X230087000Y-175164750D01*
X230087000Y-174593250D01*
X230087000Y-174402691D01*
X230021267Y-174244000D01*
X230087000Y-174085309D01*
X230087000Y-173894750D01*
X230087000Y-173323250D01*
X230087000Y-173132691D01*
X230021267Y-172974000D01*
X230087000Y-172815309D01*
X230087000Y-172624750D01*
X230087000Y-172053250D01*
X230087000Y-171862691D01*
X230021267Y-171704000D01*
X230087000Y-171545309D01*
X230087000Y-171354750D01*
X230087000Y-170783250D01*
X230087000Y-170592691D01*
X229990327Y-170359302D01*
X229811699Y-170180673D01*
X229578310Y-170084000D01*
X229325691Y-170084000D01*
X228937750Y-170084000D01*
X228779000Y-170242750D01*
X228779000Y-170942000D01*
X229928250Y-170942000D01*
X230087000Y-170783250D01*
X230087000Y-171354750D01*
X229928250Y-171196000D01*
X228779000Y-171196000D01*
X228779000Y-171512750D01*
X228779000Y-171895250D01*
X228779000Y-172212000D01*
X229928250Y-172212000D01*
X230087000Y-172053250D01*
X230087000Y-172624750D01*
X229928250Y-172466000D01*
X228779000Y-172466000D01*
X228779000Y-172782750D01*
X228779000Y-173165250D01*
X228779000Y-173482000D01*
X229928250Y-173482000D01*
X230087000Y-173323250D01*
X230087000Y-173894750D01*
X229928250Y-173736000D01*
X228779000Y-173736000D01*
X228779000Y-174052750D01*
X228779000Y-174435250D01*
X228779000Y-174752000D01*
X229928250Y-174752000D01*
X230087000Y-174593250D01*
X230087000Y-175164750D01*
X229928250Y-175006000D01*
X228779000Y-175006000D01*
X228779000Y-175705250D01*
X228937750Y-175864000D01*
X229325691Y-175864000D01*
X229578310Y-175864000D01*
X229811699Y-175767327D01*
X229990327Y-175588698D01*
X230087000Y-175355309D01*
X230087000Y-176149000D01*
X228525000Y-176149000D01*
X228525000Y-175705250D01*
X228525000Y-175006000D01*
X228525000Y-174752000D01*
X228525000Y-174435250D01*
X228525000Y-174052750D01*
X228525000Y-173736000D01*
X228525000Y-173482000D01*
X228525000Y-173165250D01*
X228525000Y-172782750D01*
X228525000Y-172466000D01*
X228525000Y-172212000D01*
X228525000Y-171895250D01*
X228525000Y-171512750D01*
X228525000Y-171196000D01*
X228525000Y-170942000D01*
X228525000Y-170242750D01*
X228366250Y-170084000D01*
X227978309Y-170084000D01*
X227725690Y-170084000D01*
X227492301Y-170180673D01*
X227313673Y-170359302D01*
X227217000Y-170592691D01*
X227217000Y-170783250D01*
X227375750Y-170942000D01*
X228525000Y-170942000D01*
X228525000Y-171196000D01*
X227375750Y-171196000D01*
X227217000Y-171354750D01*
X227217000Y-171545309D01*
X227282732Y-171704000D01*
X227217000Y-171862691D01*
X227217000Y-172053250D01*
X227375750Y-172212000D01*
X228525000Y-172212000D01*
X228525000Y-172466000D01*
X227375750Y-172466000D01*
X227217000Y-172624750D01*
X227217000Y-172815309D01*
X227282732Y-172974000D01*
X227217000Y-173132691D01*
X227217000Y-173323250D01*
X227375750Y-173482000D01*
X228525000Y-173482000D01*
X228525000Y-173736000D01*
X227375750Y-173736000D01*
X227217000Y-173894750D01*
X227217000Y-174085309D01*
X227282732Y-174244000D01*
X227217000Y-174402691D01*
X227217000Y-174593250D01*
X227375750Y-174752000D01*
X228525000Y-174752000D01*
X228525000Y-175006000D01*
X227375750Y-175006000D01*
X227217000Y-175164750D01*
X227217000Y-175355309D01*
X227313673Y-175588698D01*
X227492301Y-175767327D01*
X227725690Y-175864000D01*
X227978309Y-175864000D01*
X228366250Y-175864000D01*
X228525000Y-175705250D01*
X228525000Y-176149000D01*
X226949000Y-176149000D01*
X226949000Y-172352864D01*
X227017996Y-172249605D01*
X227075999Y-171958000D01*
X227076000Y-171958000D01*
X227076000Y-170053000D01*
X235839000Y-170053000D01*
X235839000Y-175863624D01*
G36*
X237313000Y-169037000D02*
X235579908Y-169037000D01*
X235579908Y-167142539D01*
X235555856Y-166492540D01*
X235353387Y-166003736D01*
X235086532Y-165905073D01*
X234906927Y-166084678D01*
X234906927Y-165725468D01*
X234808264Y-165458613D01*
X234198539Y-165232092D01*
X233548540Y-165256144D01*
X233059736Y-165458613D01*
X232961073Y-165725468D01*
X233934000Y-166698395D01*
X234906927Y-165725468D01*
X234906927Y-166084678D01*
X234113605Y-166878000D01*
X235086532Y-167850927D01*
X235353387Y-167752264D01*
X235579908Y-167142539D01*
X235579908Y-169037000D01*
X234906927Y-169037000D01*
X234906927Y-168030532D01*
X233934000Y-167057605D01*
X233754395Y-167237210D01*
X233754395Y-166878000D01*
X232781468Y-165905073D01*
X232514613Y-166003736D01*
X232288092Y-166613461D01*
X232312144Y-167263460D01*
X232514613Y-167752264D01*
X232781468Y-167850927D01*
X233754395Y-166878000D01*
X233754395Y-167237210D01*
X232961073Y-168030532D01*
X233059736Y-168297387D01*
X233669461Y-168523908D01*
X234319460Y-168499856D01*
X234808264Y-168297387D01*
X234906927Y-168030532D01*
X234906927Y-169037000D01*
X230517144Y-169037000D01*
X230517144Y-162005698D01*
X230489362Y-161450632D01*
X230330397Y-161066857D01*
X230088213Y-160997392D01*
X229908608Y-161176997D01*
X229908608Y-160817787D01*
X229839143Y-160575603D01*
X229315698Y-160388856D01*
X228760632Y-160416638D01*
X228376857Y-160575603D01*
X228307392Y-160817787D01*
X229108000Y-161618395D01*
X229908608Y-160817787D01*
X229908608Y-161176997D01*
X229287605Y-161798000D01*
X230088213Y-162598608D01*
X230330397Y-162529143D01*
X230517144Y-162005698D01*
X230517144Y-169037000D01*
X229908608Y-169037000D01*
X229908608Y-162778213D01*
X229108000Y-161977605D01*
X228928395Y-162157210D01*
X228928395Y-161798000D01*
X228127787Y-160997392D01*
X227885603Y-161066857D01*
X227698856Y-161590302D01*
X227726638Y-162145368D01*
X227885603Y-162529143D01*
X228127787Y-162598608D01*
X228928395Y-161798000D01*
X228928395Y-162157210D01*
X228307392Y-162778213D01*
X228376857Y-163020397D01*
X228900302Y-163207144D01*
X229455368Y-163179362D01*
X229839143Y-163020397D01*
X229908608Y-162778213D01*
X229908608Y-169037000D01*
X227076000Y-169037000D01*
X227076000Y-168910000D01*
X227017996Y-168618395D01*
X226852815Y-168371185D01*
X226852815Y-168371184D01*
X226187000Y-167705369D01*
X226187000Y-167456194D01*
X226187440Y-167454000D01*
X226187440Y-165854000D01*
X226187000Y-165851732D01*
X226187000Y-164856194D01*
X226187440Y-164854000D01*
X226187440Y-163254000D01*
X226187000Y-163251732D01*
X226187000Y-159181000D01*
X233541902Y-159181000D01*
X232817345Y-159904293D01*
X232410464Y-160884173D01*
X232409538Y-161945172D01*
X232814709Y-162925761D01*
X233564293Y-163676655D01*
X234544173Y-164083536D01*
X235605172Y-164084462D01*
X236585761Y-163679291D01*
X237313000Y-162953320D01*
X237313000Y-169037000D01*
X237313000Y-169037000D01*
G37*
X237313000Y-169037000D02*
X235579908Y-169037000D01*
X235579908Y-167142539D01*
X235555856Y-166492540D01*
X235353387Y-166003736D01*
X235086532Y-165905073D01*
X234906927Y-166084678D01*
X234906927Y-165725468D01*
X234808264Y-165458613D01*
X234198539Y-165232092D01*
X233548540Y-165256144D01*
X233059736Y-165458613D01*
X232961073Y-165725468D01*
X233934000Y-166698395D01*
X234906927Y-165725468D01*
X234906927Y-166084678D01*
X234113605Y-166878000D01*
X235086532Y-167850927D01*
X235353387Y-167752264D01*
X235579908Y-167142539D01*
X235579908Y-169037000D01*
X234906927Y-169037000D01*
X234906927Y-168030532D01*
X233934000Y-167057605D01*
X233754395Y-167237210D01*
X233754395Y-166878000D01*
X232781468Y-165905073D01*
X232514613Y-166003736D01*
X232288092Y-166613461D01*
X232312144Y-167263460D01*
X232514613Y-167752264D01*
X232781468Y-167850927D01*
X233754395Y-166878000D01*
X233754395Y-167237210D01*
X232961073Y-168030532D01*
X233059736Y-168297387D01*
X233669461Y-168523908D01*
X234319460Y-168499856D01*
X234808264Y-168297387D01*
X234906927Y-168030532D01*
X234906927Y-169037000D01*
X230517144Y-169037000D01*
X230517144Y-162005698D01*
X230489362Y-161450632D01*
X230330397Y-161066857D01*
X230088213Y-160997392D01*
X229908608Y-161176997D01*
X229908608Y-160817787D01*
X229839143Y-160575603D01*
X229315698Y-160388856D01*
X228760632Y-160416638D01*
X228376857Y-160575603D01*
X228307392Y-160817787D01*
X229108000Y-161618395D01*
X229908608Y-160817787D01*
X229908608Y-161176997D01*
X229287605Y-161798000D01*
X230088213Y-162598608D01*
X230330397Y-162529143D01*
X230517144Y-162005698D01*
X230517144Y-169037000D01*
X229908608Y-169037000D01*
X229908608Y-162778213D01*
X229108000Y-161977605D01*
X228928395Y-162157210D01*
X228928395Y-161798000D01*
X228127787Y-160997392D01*
X227885603Y-161066857D01*
X227698856Y-161590302D01*
X227726638Y-162145368D01*
X227885603Y-162529143D01*
X228127787Y-162598608D01*
X228928395Y-161798000D01*
X228928395Y-162157210D01*
X228307392Y-162778213D01*
X228376857Y-163020397D01*
X228900302Y-163207144D01*
X229455368Y-163179362D01*
X229839143Y-163020397D01*
X229908608Y-162778213D01*
X229908608Y-169037000D01*
X227076000Y-169037000D01*
X227076000Y-168910000D01*
X227017996Y-168618395D01*
X226852815Y-168371185D01*
X226852815Y-168371184D01*
X226187000Y-167705369D01*
X226187000Y-167456194D01*
X226187440Y-167454000D01*
X226187440Y-165854000D01*
X226187000Y-165851732D01*
X226187000Y-164856194D01*
X226187440Y-164854000D01*
X226187440Y-163254000D01*
X226187000Y-163251732D01*
X226187000Y-159181000D01*
X233541902Y-159181000D01*
X232817345Y-159904293D01*
X232410464Y-160884173D01*
X232409538Y-161945172D01*
X232814709Y-162925761D01*
X233564293Y-163676655D01*
X234544173Y-164083536D01*
X235605172Y-164084462D01*
X236585761Y-163679291D01*
X237313000Y-162953320D01*
X237313000Y-169037000D01*
M02*
