M48
;DRILL file {kicad (after 2015-jan-16 BZR unknown)-product} date Mon 23 Mar 2015 11:15:38 PM CDT
;FORMAT={-:-/ absolute / inch / decimal}
FMAT,2
INCH,TZ
T1C0.025
T2C0.032
T3C0.033
T4C0.040
T5C0.059
T6C0.120
%
G90
G05
M72
T1
X6.39Y-6.39
X6.46Y-6.99
X6.54Y-6.87
X6.64Y-6.3
X6.72Y-6.92
X6.83Y-6.92
X6.93Y-6.9
X6.94Y-7.01
X7.07Y-7.08
X7.72Y-7.07
X7.81Y-6.77
X8.03Y-6.52
X8.17Y-6.54
X8.17Y-6.6
X8.23Y-6.54
X8.23Y-6.6
X8.29Y-6.54
X8.29Y-6.6
X8.32Y-6.36
X8.32Y-6.42
X8.32Y-6.48
X8.35Y-6.54
X8.35Y-6.6
X8.38Y-6.36
X8.38Y-6.42
X8.38Y-6.48
X8.41Y-6.54
X8.41Y-6.6
X8.64Y-6.97
X8.75Y-6.55
X8.78Y-6.51
X8.86Y-6.65
X8.88Y-6.73
X8.89Y-6.81
X8.9Y-6.35
T2
X7.47Y-6.94
X7.47Y-7.04
X8.18Y-7.0676
X8.28Y-7.0724
X8.38Y-7.0676
X8.48Y-7.0724
X8.64Y-7.0724
X8.74Y-7.0676
X8.84Y-7.0724
T3
X7.0019Y-6.61
X7.0806Y-6.61
X7.1594Y-6.61
X7.2381Y-6.61
T4
X6.77Y-6.62
X9.02Y-6.37
T5
X9.21Y-6.57
X9.21Y-6.81
T6
X6.12Y-6.385
X6.12Y-6.995
X9.255Y-6.355
X9.255Y-7.025
T0
M30
