G04 #@! TF.FileFunction,Legend,Bot*
%FSLAX46Y46*%
G04 Gerber Fmt 4.6, Leading zero omitted, Abs format (unit mm)*
G04 Created by KiCad (PCBNEW (after 2015-mar-04 BZR unknown)-product) date Wed 25 Mar 2015 12:35:45 AM CDT*
%MOMM*%
G01*
G04 APERTURE LIST*
%ADD10C,0.150000*%
G04 APERTURE END LIST*
D10*
X170937421Y-163306000D02*
G75*
G03X170937421Y-163306000I-141421J0D01*
G01*
X170396000Y-160806000D02*
X171996000Y-160806000D01*
X171996000Y-160806000D02*
X171996000Y-163806000D01*
X171996000Y-163806000D02*
X170396000Y-163806000D01*
X170396000Y-163806000D02*
X170396000Y-160806000D01*
X162047421Y-163306000D02*
G75*
G03X162047421Y-163306000I-141421J0D01*
G01*
X161506000Y-160806000D02*
X163106000Y-160806000D01*
X163106000Y-160806000D02*
X163106000Y-163806000D01*
X163106000Y-163806000D02*
X161506000Y-163806000D01*
X161506000Y-163806000D02*
X161506000Y-160806000D01*
X173223421Y-178038000D02*
G75*
G03X173223421Y-178038000I-141421J0D01*
G01*
X172682000Y-175538000D02*
X174282000Y-175538000D01*
X174282000Y-175538000D02*
X174282000Y-178538000D01*
X174282000Y-178538000D02*
X172682000Y-178538000D01*
X172682000Y-178538000D02*
X172682000Y-175538000D01*
X221219607Y-166962000D02*
G75*
G03X221219607Y-166962000I-223607J0D01*
G01*
X223596000Y-167462000D02*
X223596000Y-164262000D01*
X223596000Y-164262000D02*
X220396000Y-164262000D01*
X220396000Y-164262000D02*
X220396000Y-167462000D01*
X220396000Y-167462000D02*
X223596000Y-167462000D01*
X196058000Y-176282000D02*
G75*
G03X196058000Y-176282000I-200000J0D01*
G01*
X199658000Y-176782000D02*
X199658000Y-170182000D01*
X199658000Y-170182000D02*
X195058000Y-170182000D01*
X195058000Y-170182000D02*
X195058000Y-176782000D01*
X195058000Y-176782000D02*
X199658000Y-176782000D01*
X174023421Y-172482000D02*
G75*
G03X174023421Y-172482000I-141421J0D01*
G01*
X174282000Y-174982000D02*
X172682000Y-174982000D01*
X172682000Y-174982000D02*
X172682000Y-171982000D01*
X172682000Y-171982000D02*
X174282000Y-171982000D01*
X174282000Y-171982000D02*
X174282000Y-174982000D01*
X220375421Y-175368000D02*
G75*
G03X220375421Y-175368000I-141421J0D01*
G01*
X222734000Y-174968000D02*
X222734000Y-176568000D01*
X222734000Y-176568000D02*
X219734000Y-176568000D01*
X219734000Y-176568000D02*
X219734000Y-174968000D01*
X219734000Y-174968000D02*
X222734000Y-174968000D01*
X184437421Y-163846000D02*
G75*
G03X184437421Y-163846000I-141421J0D01*
G01*
X184696000Y-166346000D02*
X183096000Y-166346000D01*
X183096000Y-166346000D02*
X183096000Y-163346000D01*
X183096000Y-163346000D02*
X184696000Y-163346000D01*
X184696000Y-163346000D02*
X184696000Y-166346000D01*
X216565421Y-175368000D02*
G75*
G03X216565421Y-175368000I-141421J0D01*
G01*
X218924000Y-174968000D02*
X218924000Y-176568000D01*
X218924000Y-176568000D02*
X215924000Y-176568000D01*
X215924000Y-176568000D02*
X215924000Y-174968000D01*
X215924000Y-174968000D02*
X218924000Y-174968000D01*
X228988857Y-173077143D02*
X229036476Y-173124762D01*
X229179333Y-173172381D01*
X229274571Y-173172381D01*
X229417429Y-173124762D01*
X229512667Y-173029524D01*
X229560286Y-172934286D01*
X229607905Y-172743810D01*
X229607905Y-172600952D01*
X229560286Y-172410476D01*
X229512667Y-172315238D01*
X229417429Y-172220000D01*
X229274571Y-172172381D01*
X229179333Y-172172381D01*
X229036476Y-172220000D01*
X228988857Y-172267619D01*
X228036476Y-173172381D02*
X228607905Y-173172381D01*
X228322191Y-173172381D02*
X228322191Y-172172381D01*
X228417429Y-172315238D01*
X228512667Y-172410476D01*
X228607905Y-172458095D01*
X227179333Y-172505714D02*
X227179333Y-173172381D01*
X227417429Y-172124762D02*
X227655524Y-172839048D01*
X227036476Y-172839048D01*
X171957905Y-164258381D02*
X171957905Y-165067905D01*
X171910286Y-165163143D01*
X171862667Y-165210762D01*
X171767429Y-165258381D01*
X171576952Y-165258381D01*
X171481714Y-165210762D01*
X171434095Y-165163143D01*
X171386476Y-165067905D01*
X171386476Y-164258381D01*
X170481714Y-164258381D02*
X170672191Y-164258381D01*
X170767429Y-164306000D01*
X170815048Y-164353619D01*
X170910286Y-164496476D01*
X170957905Y-164686952D01*
X170957905Y-165067905D01*
X170910286Y-165163143D01*
X170862667Y-165210762D01*
X170767429Y-165258381D01*
X170576952Y-165258381D01*
X170481714Y-165210762D01*
X170434095Y-165163143D01*
X170386476Y-165067905D01*
X170386476Y-164829810D01*
X170434095Y-164734571D01*
X170481714Y-164686952D01*
X170576952Y-164639333D01*
X170767429Y-164639333D01*
X170862667Y-164686952D01*
X170910286Y-164734571D01*
X170957905Y-164829810D01*
X163067905Y-164258381D02*
X163067905Y-165067905D01*
X163020286Y-165163143D01*
X162972667Y-165210762D01*
X162877429Y-165258381D01*
X162686952Y-165258381D01*
X162591714Y-165210762D01*
X162544095Y-165163143D01*
X162496476Y-165067905D01*
X162496476Y-164258381D01*
X161544095Y-164258381D02*
X162020286Y-164258381D01*
X162067905Y-164734571D01*
X162020286Y-164686952D01*
X161925048Y-164639333D01*
X161686952Y-164639333D01*
X161591714Y-164686952D01*
X161544095Y-164734571D01*
X161496476Y-164829810D01*
X161496476Y-165067905D01*
X161544095Y-165163143D01*
X161591714Y-165210762D01*
X161686952Y-165258381D01*
X161925048Y-165258381D01*
X162020286Y-165210762D01*
X162067905Y-165163143D01*
X170140381Y-176276095D02*
X170949905Y-176276095D01*
X171045143Y-176323714D01*
X171092762Y-176371333D01*
X171140381Y-176466571D01*
X171140381Y-176657048D01*
X171092762Y-176752286D01*
X171045143Y-176799905D01*
X170949905Y-176847524D01*
X170140381Y-176847524D01*
X170473714Y-177752286D02*
X171140381Y-177752286D01*
X170092762Y-177514190D02*
X170807048Y-177276095D01*
X170807048Y-177895143D01*
X220217905Y-163536381D02*
X220217905Y-164345905D01*
X220170286Y-164441143D01*
X220122667Y-164488762D01*
X220027429Y-164536381D01*
X219836952Y-164536381D01*
X219741714Y-164488762D01*
X219694095Y-164441143D01*
X219646476Y-164345905D01*
X219646476Y-163536381D01*
X219265524Y-163536381D02*
X218646476Y-163536381D01*
X218979810Y-163917333D01*
X218836952Y-163917333D01*
X218741714Y-163964952D01*
X218694095Y-164012571D01*
X218646476Y-164107810D01*
X218646476Y-164345905D01*
X218694095Y-164441143D01*
X218741714Y-164488762D01*
X218836952Y-164536381D01*
X219122667Y-164536381D01*
X219217905Y-164488762D01*
X219265524Y-164441143D01*
X198119905Y-168534381D02*
X198119905Y-169343905D01*
X198072286Y-169439143D01*
X198024667Y-169486762D01*
X197929429Y-169534381D01*
X197738952Y-169534381D01*
X197643714Y-169486762D01*
X197596095Y-169439143D01*
X197548476Y-169343905D01*
X197548476Y-168534381D01*
X197119905Y-168629619D02*
X197072286Y-168582000D01*
X196977048Y-168534381D01*
X196738952Y-168534381D01*
X196643714Y-168582000D01*
X196596095Y-168629619D01*
X196548476Y-168724857D01*
X196548476Y-168820095D01*
X196596095Y-168962952D01*
X197167524Y-169534381D01*
X196548476Y-169534381D01*
X174243905Y-170434381D02*
X174243905Y-171243905D01*
X174196286Y-171339143D01*
X174148667Y-171386762D01*
X174053429Y-171434381D01*
X173862952Y-171434381D01*
X173767714Y-171386762D01*
X173720095Y-171339143D01*
X173672476Y-171243905D01*
X173672476Y-170434381D01*
X172672476Y-171434381D02*
X173243905Y-171434381D01*
X172958191Y-171434381D02*
X172958191Y-170434381D01*
X173053429Y-170577238D01*
X173148667Y-170672476D01*
X173243905Y-170720095D01*
X207716381Y-176141143D02*
X207240190Y-175807809D01*
X207716381Y-175569714D02*
X206716381Y-175569714D01*
X206716381Y-175950667D01*
X206764000Y-176045905D01*
X206811619Y-176093524D01*
X206906857Y-176141143D01*
X207049714Y-176141143D01*
X207144952Y-176093524D01*
X207192571Y-176045905D01*
X207240190Y-175950667D01*
X207240190Y-175569714D01*
X207716381Y-177093524D02*
X207716381Y-176522095D01*
X207716381Y-176807809D02*
X206716381Y-176807809D01*
X206859238Y-176712571D01*
X206954476Y-176617333D01*
X207002095Y-176522095D01*
X207144952Y-177664952D02*
X207097333Y-177569714D01*
X207049714Y-177522095D01*
X206954476Y-177474476D01*
X206906857Y-177474476D01*
X206811619Y-177522095D01*
X206764000Y-177569714D01*
X206716381Y-177664952D01*
X206716381Y-177855429D01*
X206764000Y-177950667D01*
X206811619Y-177998286D01*
X206906857Y-178045905D01*
X206954476Y-178045905D01*
X207049714Y-177998286D01*
X207097333Y-177950667D01*
X207144952Y-177855429D01*
X207144952Y-177664952D01*
X207192571Y-177569714D01*
X207240190Y-177522095D01*
X207335429Y-177474476D01*
X207525905Y-177474476D01*
X207621143Y-177522095D01*
X207668762Y-177569714D01*
X207716381Y-177664952D01*
X207716381Y-177855429D01*
X207668762Y-177950667D01*
X207621143Y-177998286D01*
X207525905Y-178045905D01*
X207335429Y-178045905D01*
X207240190Y-177998286D01*
X207192571Y-177950667D01*
X207144952Y-177855429D01*
X186634381Y-178681143D02*
X186158190Y-178347809D01*
X186634381Y-178109714D02*
X185634381Y-178109714D01*
X185634381Y-178490667D01*
X185682000Y-178585905D01*
X185729619Y-178633524D01*
X185824857Y-178681143D01*
X185967714Y-178681143D01*
X186062952Y-178633524D01*
X186110571Y-178585905D01*
X186158190Y-178490667D01*
X186158190Y-178109714D01*
X186634381Y-179633524D02*
X186634381Y-179062095D01*
X186634381Y-179347809D02*
X185634381Y-179347809D01*
X185777238Y-179252571D01*
X185872476Y-179157333D01*
X185920095Y-179062095D01*
X185634381Y-179966857D02*
X185634381Y-180633524D01*
X186634381Y-180204952D01*
X215336381Y-169283143D02*
X214860190Y-168949809D01*
X215336381Y-168711714D02*
X214336381Y-168711714D01*
X214336381Y-169092667D01*
X214384000Y-169187905D01*
X214431619Y-169235524D01*
X214526857Y-169283143D01*
X214669714Y-169283143D01*
X214764952Y-169235524D01*
X214812571Y-169187905D01*
X214860190Y-169092667D01*
X214860190Y-168711714D01*
X215336381Y-170235524D02*
X215336381Y-169664095D01*
X215336381Y-169949809D02*
X214336381Y-169949809D01*
X214479238Y-169854571D01*
X214574476Y-169759333D01*
X214622095Y-169664095D01*
X214336381Y-171140286D02*
X214336381Y-170664095D01*
X214812571Y-170616476D01*
X214764952Y-170664095D01*
X214717333Y-170759333D01*
X214717333Y-170997429D01*
X214764952Y-171092667D01*
X214812571Y-171140286D01*
X214907810Y-171187905D01*
X215145905Y-171187905D01*
X215241143Y-171140286D01*
X215288762Y-171092667D01*
X215336381Y-170997429D01*
X215336381Y-170759333D01*
X215288762Y-170664095D01*
X215241143Y-170616476D01*
X232100381Y-163949143D02*
X231624190Y-163615809D01*
X232100381Y-163377714D02*
X231100381Y-163377714D01*
X231100381Y-163758667D01*
X231148000Y-163853905D01*
X231195619Y-163901524D01*
X231290857Y-163949143D01*
X231433714Y-163949143D01*
X231528952Y-163901524D01*
X231576571Y-163853905D01*
X231624190Y-163758667D01*
X231624190Y-163377714D01*
X232100381Y-164901524D02*
X232100381Y-164330095D01*
X232100381Y-164615809D02*
X231100381Y-164615809D01*
X231243238Y-164520571D01*
X231338476Y-164425333D01*
X231386095Y-164330095D01*
X231433714Y-165758667D02*
X232100381Y-165758667D01*
X231052762Y-165520571D02*
X231767048Y-165282476D01*
X231767048Y-165901524D01*
X216034857Y-161234381D02*
X216368191Y-160758190D01*
X216606286Y-161234381D02*
X216606286Y-160234381D01*
X216225333Y-160234381D01*
X216130095Y-160282000D01*
X216082476Y-160329619D01*
X216034857Y-160424857D01*
X216034857Y-160567714D01*
X216082476Y-160662952D01*
X216130095Y-160710571D01*
X216225333Y-160758190D01*
X216606286Y-160758190D01*
X215082476Y-161234381D02*
X215653905Y-161234381D01*
X215368191Y-161234381D02*
X215368191Y-160234381D01*
X215463429Y-160377238D01*
X215558667Y-160472476D01*
X215653905Y-160520095D01*
X214749143Y-160234381D02*
X214130095Y-160234381D01*
X214463429Y-160615333D01*
X214320571Y-160615333D01*
X214225333Y-160662952D01*
X214177714Y-160710571D01*
X214130095Y-160805810D01*
X214130095Y-161043905D01*
X214177714Y-161139143D01*
X214225333Y-161186762D01*
X214320571Y-161234381D01*
X214606286Y-161234381D01*
X214701524Y-161186762D01*
X214749143Y-161139143D01*
X222384857Y-172918381D02*
X222718191Y-172442190D01*
X222956286Y-172918381D02*
X222956286Y-171918381D01*
X222575333Y-171918381D01*
X222480095Y-171966000D01*
X222432476Y-172013619D01*
X222384857Y-172108857D01*
X222384857Y-172251714D01*
X222432476Y-172346952D01*
X222480095Y-172394571D01*
X222575333Y-172442190D01*
X222956286Y-172442190D01*
X221432476Y-172918381D02*
X222003905Y-172918381D01*
X221718191Y-172918381D02*
X221718191Y-171918381D01*
X221813429Y-172061238D01*
X221908667Y-172156476D01*
X222003905Y-172204095D01*
X220480095Y-172918381D02*
X221051524Y-172918381D01*
X220765810Y-172918381D02*
X220765810Y-171918381D01*
X220861048Y-172061238D01*
X220956286Y-172156476D01*
X221051524Y-172204095D01*
X225496381Y-168013143D02*
X225020190Y-167679809D01*
X225496381Y-167441714D02*
X224496381Y-167441714D01*
X224496381Y-167822667D01*
X224544000Y-167917905D01*
X224591619Y-167965524D01*
X224686857Y-168013143D01*
X224829714Y-168013143D01*
X224924952Y-167965524D01*
X224972571Y-167917905D01*
X225020190Y-167822667D01*
X225020190Y-167441714D01*
X225496381Y-168965524D02*
X225496381Y-168394095D01*
X225496381Y-168679809D02*
X224496381Y-168679809D01*
X224639238Y-168584571D01*
X224734476Y-168489333D01*
X224782095Y-168394095D01*
X224496381Y-169584571D02*
X224496381Y-169679810D01*
X224544000Y-169775048D01*
X224591619Y-169822667D01*
X224686857Y-169870286D01*
X224877333Y-169917905D01*
X225115429Y-169917905D01*
X225305905Y-169870286D01*
X225401143Y-169822667D01*
X225448762Y-169775048D01*
X225496381Y-169679810D01*
X225496381Y-169584571D01*
X225448762Y-169489333D01*
X225401143Y-169441714D01*
X225305905Y-169394095D01*
X225115429Y-169346476D01*
X224877333Y-169346476D01*
X224686857Y-169394095D01*
X224591619Y-169441714D01*
X224544000Y-169489333D01*
X224496381Y-169584571D01*
X217590666Y-167330381D02*
X217924000Y-166854190D01*
X218162095Y-167330381D02*
X218162095Y-166330381D01*
X217781142Y-166330381D01*
X217685904Y-166378000D01*
X217638285Y-166425619D01*
X217590666Y-166520857D01*
X217590666Y-166663714D01*
X217638285Y-166758952D01*
X217685904Y-166806571D01*
X217781142Y-166854190D01*
X218162095Y-166854190D01*
X217114476Y-167330381D02*
X216924000Y-167330381D01*
X216828761Y-167282762D01*
X216781142Y-167235143D01*
X216685904Y-167092286D01*
X216638285Y-166901810D01*
X216638285Y-166520857D01*
X216685904Y-166425619D01*
X216733523Y-166378000D01*
X216828761Y-166330381D01*
X217019238Y-166330381D01*
X217114476Y-166378000D01*
X217162095Y-166425619D01*
X217209714Y-166520857D01*
X217209714Y-166758952D01*
X217162095Y-166854190D01*
X217114476Y-166901810D01*
X217019238Y-166949429D01*
X216828761Y-166949429D01*
X216733523Y-166901810D01*
X216685904Y-166854190D01*
X216638285Y-166758952D01*
X161488381Y-175855334D02*
X161012190Y-175522000D01*
X161488381Y-175283905D02*
X160488381Y-175283905D01*
X160488381Y-175664858D01*
X160536000Y-175760096D01*
X160583619Y-175807715D01*
X160678857Y-175855334D01*
X160821714Y-175855334D01*
X160916952Y-175807715D01*
X160964571Y-175760096D01*
X161012190Y-175664858D01*
X161012190Y-175283905D01*
X160916952Y-176426762D02*
X160869333Y-176331524D01*
X160821714Y-176283905D01*
X160726476Y-176236286D01*
X160678857Y-176236286D01*
X160583619Y-176283905D01*
X160536000Y-176331524D01*
X160488381Y-176426762D01*
X160488381Y-176617239D01*
X160536000Y-176712477D01*
X160583619Y-176760096D01*
X160678857Y-176807715D01*
X160726476Y-176807715D01*
X160821714Y-176760096D01*
X160869333Y-176712477D01*
X160916952Y-176617239D01*
X160916952Y-176426762D01*
X160964571Y-176331524D01*
X161012190Y-176283905D01*
X161107429Y-176236286D01*
X161297905Y-176236286D01*
X161393143Y-176283905D01*
X161440762Y-176331524D01*
X161488381Y-176426762D01*
X161488381Y-176617239D01*
X161440762Y-176712477D01*
X161393143Y-176760096D01*
X161297905Y-176807715D01*
X161107429Y-176807715D01*
X161012190Y-176760096D01*
X160964571Y-176712477D01*
X160916952Y-176617239D01*
X226766381Y-159599334D02*
X226290190Y-159266000D01*
X226766381Y-159027905D02*
X225766381Y-159027905D01*
X225766381Y-159408858D01*
X225814000Y-159504096D01*
X225861619Y-159551715D01*
X225956857Y-159599334D01*
X226099714Y-159599334D01*
X226194952Y-159551715D01*
X226242571Y-159504096D01*
X226290190Y-159408858D01*
X226290190Y-159027905D01*
X225766381Y-159932667D02*
X225766381Y-160599334D01*
X226766381Y-160170762D01*
X226480666Y-179268381D02*
X226814000Y-178792190D01*
X227052095Y-179268381D02*
X227052095Y-178268381D01*
X226671142Y-178268381D01*
X226575904Y-178316000D01*
X226528285Y-178363619D01*
X226480666Y-178458857D01*
X226480666Y-178601714D01*
X226528285Y-178696952D01*
X226575904Y-178744571D01*
X226671142Y-178792190D01*
X227052095Y-178792190D01*
X225623523Y-178268381D02*
X225814000Y-178268381D01*
X225909238Y-178316000D01*
X225956857Y-178363619D01*
X226052095Y-178506476D01*
X226099714Y-178696952D01*
X226099714Y-179077905D01*
X226052095Y-179173143D01*
X226004476Y-179220762D01*
X225909238Y-179268381D01*
X225718761Y-179268381D01*
X225623523Y-179220762D01*
X225575904Y-179173143D01*
X225528285Y-179077905D01*
X225528285Y-178839810D01*
X225575904Y-178744571D01*
X225623523Y-178696952D01*
X225718761Y-178649333D01*
X225909238Y-178649333D01*
X226004476Y-178696952D01*
X226052095Y-178744571D01*
X226099714Y-178839810D01*
X224702666Y-173426381D02*
X225036000Y-172950190D01*
X225274095Y-173426381D02*
X225274095Y-172426381D01*
X224893142Y-172426381D01*
X224797904Y-172474000D01*
X224750285Y-172521619D01*
X224702666Y-172616857D01*
X224702666Y-172759714D01*
X224750285Y-172854952D01*
X224797904Y-172902571D01*
X224893142Y-172950190D01*
X225274095Y-172950190D01*
X223797904Y-172426381D02*
X224274095Y-172426381D01*
X224321714Y-172902571D01*
X224274095Y-172854952D01*
X224178857Y-172807333D01*
X223940761Y-172807333D01*
X223845523Y-172854952D01*
X223797904Y-172902571D01*
X223750285Y-172997810D01*
X223750285Y-173235905D01*
X223797904Y-173331143D01*
X223845523Y-173378762D01*
X223940761Y-173426381D01*
X224178857Y-173426381D01*
X224274095Y-173378762D01*
X224321714Y-173331143D01*
X214542666Y-173426381D02*
X214876000Y-172950190D01*
X215114095Y-173426381D02*
X215114095Y-172426381D01*
X214733142Y-172426381D01*
X214637904Y-172474000D01*
X214590285Y-172521619D01*
X214542666Y-172616857D01*
X214542666Y-172759714D01*
X214590285Y-172854952D01*
X214637904Y-172902571D01*
X214733142Y-172950190D01*
X215114095Y-172950190D01*
X214209333Y-172426381D02*
X213590285Y-172426381D01*
X213923619Y-172807333D01*
X213780761Y-172807333D01*
X213685523Y-172854952D01*
X213637904Y-172902571D01*
X213590285Y-172997810D01*
X213590285Y-173235905D01*
X213637904Y-173331143D01*
X213685523Y-173378762D01*
X213780761Y-173426381D01*
X214066476Y-173426381D01*
X214161714Y-173378762D01*
X214209333Y-173331143D01*
X179998666Y-173172381D02*
X180332000Y-172696190D01*
X180570095Y-173172381D02*
X180570095Y-172172381D01*
X180189142Y-172172381D01*
X180093904Y-172220000D01*
X180046285Y-172267619D01*
X179998666Y-172362857D01*
X179998666Y-172505714D01*
X180046285Y-172600952D01*
X180093904Y-172648571D01*
X180189142Y-172696190D01*
X180570095Y-172696190D01*
X179617714Y-172267619D02*
X179570095Y-172220000D01*
X179474857Y-172172381D01*
X179236761Y-172172381D01*
X179141523Y-172220000D01*
X179093904Y-172267619D01*
X179046285Y-172362857D01*
X179046285Y-172458095D01*
X179093904Y-172600952D01*
X179665333Y-173172381D01*
X179046285Y-173172381D01*
X161488381Y-178903334D02*
X161012190Y-178570000D01*
X161488381Y-178331905D02*
X160488381Y-178331905D01*
X160488381Y-178712858D01*
X160536000Y-178808096D01*
X160583619Y-178855715D01*
X160678857Y-178903334D01*
X160821714Y-178903334D01*
X160916952Y-178855715D01*
X160964571Y-178808096D01*
X161012190Y-178712858D01*
X161012190Y-178331905D01*
X161488381Y-179855715D02*
X161488381Y-179284286D01*
X161488381Y-179570000D02*
X160488381Y-179570000D01*
X160631238Y-179474762D01*
X160726476Y-179379524D01*
X160774095Y-179284286D01*
X222599238Y-177839619D02*
X222694476Y-177792000D01*
X222789714Y-177696762D01*
X222932571Y-177553905D01*
X223027810Y-177506286D01*
X223123048Y-177506286D01*
X223075429Y-177744381D02*
X223170667Y-177696762D01*
X223265905Y-177601524D01*
X223313524Y-177411048D01*
X223313524Y-177077714D01*
X223265905Y-176887238D01*
X223170667Y-176792000D01*
X223075429Y-176744381D01*
X222884952Y-176744381D01*
X222789714Y-176792000D01*
X222694476Y-176887238D01*
X222646857Y-177077714D01*
X222646857Y-177411048D01*
X222694476Y-177601524D01*
X222789714Y-177696762D01*
X222884952Y-177744381D01*
X223075429Y-177744381D01*
X222265905Y-176839619D02*
X222218286Y-176792000D01*
X222123048Y-176744381D01*
X221884952Y-176744381D01*
X221789714Y-176792000D01*
X221742095Y-176839619D01*
X221694476Y-176934857D01*
X221694476Y-177030095D01*
X221742095Y-177172952D01*
X222313524Y-177744381D01*
X221694476Y-177744381D01*
X184634095Y-162798381D02*
X184634095Y-161798381D01*
X184396000Y-161798381D01*
X184253142Y-161846000D01*
X184157904Y-161941238D01*
X184110285Y-162036476D01*
X184062666Y-162226952D01*
X184062666Y-162369810D01*
X184110285Y-162560286D01*
X184157904Y-162655524D01*
X184253142Y-162750762D01*
X184396000Y-162798381D01*
X184634095Y-162798381D01*
X183681714Y-161893619D02*
X183634095Y-161846000D01*
X183538857Y-161798381D01*
X183300761Y-161798381D01*
X183205523Y-161846000D01*
X183157904Y-161893619D01*
X183110285Y-161988857D01*
X183110285Y-162084095D01*
X183157904Y-162226952D01*
X183729333Y-162798381D01*
X183110285Y-162798381D01*
X216892095Y-177744381D02*
X216892095Y-176744381D01*
X216654000Y-176744381D01*
X216511142Y-176792000D01*
X216415904Y-176887238D01*
X216368285Y-176982476D01*
X216320666Y-177172952D01*
X216320666Y-177315810D01*
X216368285Y-177506286D01*
X216415904Y-177601524D01*
X216511142Y-177696762D01*
X216654000Y-177744381D01*
X216892095Y-177744381D01*
X215368285Y-177744381D02*
X215939714Y-177744381D01*
X215654000Y-177744381D02*
X215654000Y-176744381D01*
X215749238Y-176887238D01*
X215844476Y-176982476D01*
X215939714Y-177030095D01*
X175648857Y-165457143D02*
X175696476Y-165504762D01*
X175839333Y-165552381D01*
X175934571Y-165552381D01*
X176077429Y-165504762D01*
X176172667Y-165409524D01*
X176220286Y-165314286D01*
X176267905Y-165123810D01*
X176267905Y-164980952D01*
X176220286Y-164790476D01*
X176172667Y-164695238D01*
X176077429Y-164600000D01*
X175934571Y-164552381D01*
X175839333Y-164552381D01*
X175696476Y-164600000D01*
X175648857Y-164647619D01*
X174696476Y-165552381D02*
X175267905Y-165552381D01*
X174982191Y-165552381D02*
X174982191Y-164552381D01*
X175077429Y-164695238D01*
X175172667Y-164790476D01*
X175267905Y-164838095D01*
X174363143Y-164552381D02*
X173744095Y-164552381D01*
X174077429Y-164933333D01*
X173934571Y-164933333D01*
X173839333Y-164980952D01*
X173791714Y-165028571D01*
X173744095Y-165123810D01*
X173744095Y-165361905D01*
X173791714Y-165457143D01*
X173839333Y-165504762D01*
X173934571Y-165552381D01*
X174220286Y-165552381D01*
X174315524Y-165504762D01*
X174363143Y-165457143D01*
X167520857Y-165457143D02*
X167568476Y-165504762D01*
X167711333Y-165552381D01*
X167806571Y-165552381D01*
X167949429Y-165504762D01*
X168044667Y-165409524D01*
X168092286Y-165314286D01*
X168139905Y-165123810D01*
X168139905Y-164980952D01*
X168092286Y-164790476D01*
X168044667Y-164695238D01*
X167949429Y-164600000D01*
X167806571Y-164552381D01*
X167711333Y-164552381D01*
X167568476Y-164600000D01*
X167520857Y-164647619D01*
X166568476Y-165552381D02*
X167139905Y-165552381D01*
X166854191Y-165552381D02*
X166854191Y-164552381D01*
X166949429Y-164695238D01*
X167044667Y-164790476D01*
X167139905Y-164838095D01*
X166187524Y-164647619D02*
X166139905Y-164600000D01*
X166044667Y-164552381D01*
X165806571Y-164552381D01*
X165711333Y-164600000D01*
X165663714Y-164647619D01*
X165616095Y-164742857D01*
X165616095Y-164838095D01*
X165663714Y-164980952D01*
X166235143Y-165552381D01*
X165616095Y-165552381D01*
X219336857Y-173331143D02*
X219384476Y-173378762D01*
X219527333Y-173426381D01*
X219622571Y-173426381D01*
X219765429Y-173378762D01*
X219860667Y-173283524D01*
X219908286Y-173188286D01*
X219955905Y-172997810D01*
X219955905Y-172854952D01*
X219908286Y-172664476D01*
X219860667Y-172569238D01*
X219765429Y-172474000D01*
X219622571Y-172426381D01*
X219527333Y-172426381D01*
X219384476Y-172474000D01*
X219336857Y-172521619D01*
X218384476Y-173426381D02*
X218955905Y-173426381D01*
X218670191Y-173426381D02*
X218670191Y-172426381D01*
X218765429Y-172569238D01*
X218860667Y-172664476D01*
X218955905Y-172712095D01*
X217765429Y-172426381D02*
X217670190Y-172426381D01*
X217574952Y-172474000D01*
X217527333Y-172521619D01*
X217479714Y-172616857D01*
X217432095Y-172807333D01*
X217432095Y-173045429D01*
X217479714Y-173235905D01*
X217527333Y-173331143D01*
X217574952Y-173378762D01*
X217670190Y-173426381D01*
X217765429Y-173426381D01*
X217860667Y-173378762D01*
X217908286Y-173331143D01*
X217955905Y-173235905D01*
X218003524Y-173045429D01*
X218003524Y-172807333D01*
X217955905Y-172616857D01*
X217908286Y-172521619D01*
X217860667Y-172474000D01*
X217765429Y-172426381D01*
X232005143Y-166711334D02*
X232052762Y-166663715D01*
X232100381Y-166520858D01*
X232100381Y-166425620D01*
X232052762Y-166282762D01*
X231957524Y-166187524D01*
X231862286Y-166139905D01*
X231671810Y-166092286D01*
X231528952Y-166092286D01*
X231338476Y-166139905D01*
X231243238Y-166187524D01*
X231148000Y-166282762D01*
X231100381Y-166425620D01*
X231100381Y-166520858D01*
X231148000Y-166663715D01*
X231195619Y-166711334D01*
X232100381Y-167187524D02*
X232100381Y-167378000D01*
X232052762Y-167473239D01*
X232005143Y-167520858D01*
X231862286Y-167616096D01*
X231671810Y-167663715D01*
X231290857Y-167663715D01*
X231195619Y-167616096D01*
X231148000Y-167568477D01*
X231100381Y-167473239D01*
X231100381Y-167282762D01*
X231148000Y-167187524D01*
X231195619Y-167139905D01*
X231290857Y-167092286D01*
X231528952Y-167092286D01*
X231624190Y-167139905D01*
X231671810Y-167187524D01*
X231719429Y-167282762D01*
X231719429Y-167473239D01*
X231671810Y-167568477D01*
X231624190Y-167616096D01*
X231528952Y-167663715D01*
X173585143Y-179411334D02*
X173632762Y-179363715D01*
X173680381Y-179220858D01*
X173680381Y-179125620D01*
X173632762Y-178982762D01*
X173537524Y-178887524D01*
X173442286Y-178839905D01*
X173251810Y-178792286D01*
X173108952Y-178792286D01*
X172918476Y-178839905D01*
X172823238Y-178887524D01*
X172728000Y-178982762D01*
X172680381Y-179125620D01*
X172680381Y-179220858D01*
X172728000Y-179363715D01*
X172775619Y-179411334D01*
X173108952Y-179982762D02*
X173061333Y-179887524D01*
X173013714Y-179839905D01*
X172918476Y-179792286D01*
X172870857Y-179792286D01*
X172775619Y-179839905D01*
X172728000Y-179887524D01*
X172680381Y-179982762D01*
X172680381Y-180173239D01*
X172728000Y-180268477D01*
X172775619Y-180316096D01*
X172870857Y-180363715D01*
X172918476Y-180363715D01*
X173013714Y-180316096D01*
X173061333Y-180268477D01*
X173108952Y-180173239D01*
X173108952Y-179982762D01*
X173156571Y-179887524D01*
X173204190Y-179839905D01*
X173299429Y-179792286D01*
X173489905Y-179792286D01*
X173585143Y-179839905D01*
X173632762Y-179887524D01*
X173680381Y-179982762D01*
X173680381Y-180173239D01*
X173632762Y-180268477D01*
X173585143Y-180316096D01*
X173489905Y-180363715D01*
X173299429Y-180363715D01*
X173204190Y-180316096D01*
X173156571Y-180268477D01*
X173108952Y-180173239D01*
X218289143Y-159599334D02*
X218336762Y-159551715D01*
X218384381Y-159408858D01*
X218384381Y-159313620D01*
X218336762Y-159170762D01*
X218241524Y-159075524D01*
X218146286Y-159027905D01*
X217955810Y-158980286D01*
X217812952Y-158980286D01*
X217622476Y-159027905D01*
X217527238Y-159075524D01*
X217432000Y-159170762D01*
X217384381Y-159313620D01*
X217384381Y-159408858D01*
X217432000Y-159551715D01*
X217479619Y-159599334D01*
X217384381Y-159932667D02*
X217384381Y-160599334D01*
X218384381Y-160170762D01*
X226417143Y-162647334D02*
X226464762Y-162599715D01*
X226512381Y-162456858D01*
X226512381Y-162361620D01*
X226464762Y-162218762D01*
X226369524Y-162123524D01*
X226274286Y-162075905D01*
X226083810Y-162028286D01*
X225940952Y-162028286D01*
X225750476Y-162075905D01*
X225655238Y-162123524D01*
X225560000Y-162218762D01*
X225512381Y-162361620D01*
X225512381Y-162456858D01*
X225560000Y-162599715D01*
X225607619Y-162647334D01*
X225512381Y-163504477D02*
X225512381Y-163314000D01*
X225560000Y-163218762D01*
X225607619Y-163171143D01*
X225750476Y-163075905D01*
X225940952Y-163028286D01*
X226321905Y-163028286D01*
X226417143Y-163075905D01*
X226464762Y-163123524D01*
X226512381Y-163218762D01*
X226512381Y-163409239D01*
X226464762Y-163504477D01*
X226417143Y-163552096D01*
X226321905Y-163599715D01*
X226083810Y-163599715D01*
X225988571Y-163552096D01*
X225940952Y-163504477D01*
X225893333Y-163409239D01*
X225893333Y-163218762D01*
X225940952Y-163123524D01*
X225988571Y-163075905D01*
X226083810Y-163028286D01*
X232005143Y-168743334D02*
X232052762Y-168695715D01*
X232100381Y-168552858D01*
X232100381Y-168457620D01*
X232052762Y-168314762D01*
X231957524Y-168219524D01*
X231862286Y-168171905D01*
X231671810Y-168124286D01*
X231528952Y-168124286D01*
X231338476Y-168171905D01*
X231243238Y-168219524D01*
X231148000Y-168314762D01*
X231100381Y-168457620D01*
X231100381Y-168552858D01*
X231148000Y-168695715D01*
X231195619Y-168743334D01*
X231100381Y-169648096D02*
X231100381Y-169171905D01*
X231576571Y-169124286D01*
X231528952Y-169171905D01*
X231481333Y-169267143D01*
X231481333Y-169505239D01*
X231528952Y-169600477D01*
X231576571Y-169648096D01*
X231671810Y-169695715D01*
X231909905Y-169695715D01*
X232005143Y-169648096D01*
X232052762Y-169600477D01*
X232100381Y-169505239D01*
X232100381Y-169267143D01*
X232052762Y-169171905D01*
X232005143Y-169124286D01*
X166473143Y-172299334D02*
X166520762Y-172251715D01*
X166568381Y-172108858D01*
X166568381Y-172013620D01*
X166520762Y-171870762D01*
X166425524Y-171775524D01*
X166330286Y-171727905D01*
X166139810Y-171680286D01*
X165996952Y-171680286D01*
X165806476Y-171727905D01*
X165711238Y-171775524D01*
X165616000Y-171870762D01*
X165568381Y-172013620D01*
X165568381Y-172108858D01*
X165616000Y-172251715D01*
X165663619Y-172299334D01*
X165901714Y-173156477D02*
X166568381Y-173156477D01*
X165520762Y-172918381D02*
X166235048Y-172680286D01*
X166235048Y-173299334D01*
X177966666Y-173077143D02*
X178014285Y-173124762D01*
X178157142Y-173172381D01*
X178252380Y-173172381D01*
X178395238Y-173124762D01*
X178490476Y-173029524D01*
X178538095Y-172934286D01*
X178585714Y-172743810D01*
X178585714Y-172600952D01*
X178538095Y-172410476D01*
X178490476Y-172315238D01*
X178395238Y-172220000D01*
X178252380Y-172172381D01*
X178157142Y-172172381D01*
X178014285Y-172220000D01*
X177966666Y-172267619D01*
X177585714Y-172267619D02*
X177538095Y-172220000D01*
X177442857Y-172172381D01*
X177204761Y-172172381D01*
X177109523Y-172220000D01*
X177061904Y-172267619D01*
X177014285Y-172362857D01*
X177014285Y-172458095D01*
X177061904Y-172600952D01*
X177633333Y-173172381D01*
X177014285Y-173172381D01*
X201017143Y-177887334D02*
X201064762Y-177839715D01*
X201112381Y-177696858D01*
X201112381Y-177601620D01*
X201064762Y-177458762D01*
X200969524Y-177363524D01*
X200874286Y-177315905D01*
X200683810Y-177268286D01*
X200540952Y-177268286D01*
X200350476Y-177315905D01*
X200255238Y-177363524D01*
X200160000Y-177458762D01*
X200112381Y-177601620D01*
X200112381Y-177696858D01*
X200160000Y-177839715D01*
X200207619Y-177887334D01*
X201112381Y-178839715D02*
X201112381Y-178268286D01*
X201112381Y-178554000D02*
X200112381Y-178554000D01*
X200255238Y-178458762D01*
X200350476Y-178363524D01*
X200398095Y-178268286D01*
M02*
