G04 #@! TF.FileFunction,Soldermask,Bot*
%FSLAX46Y46*%
G04 Gerber Fmt 4.6, Leading zero omitted, Abs format (unit mm)*
G04 Created by KiCad (PCBNEW (after 2015-mar-04 BZR unknown)-product) date Wed 25 Mar 2015 12:35:45 AM CDT*
%MOMM*%
G01*
G04 APERTURE LIST*
%ADD10C,0.150000*%
%ADD11C,1.524000*%
%ADD12R,1.500000X1.600000*%
%ADD13C,2.000000*%
%ADD14R,0.900000X0.600000*%
%ADD15R,1.400000X0.300000*%
%ADD16R,1.600000X0.400000*%
%ADD17R,1.600000X1.500000*%
%ADD18R,0.600000X0.900000*%
%ADD19R,1.250000X1.250000*%
%ADD20C,1.250000*%
%ADD21C,4.064000*%
%ADD22R,1.397000X1.397000*%
%ADD23C,1.397000*%
G04 APERTURE END LIST*
D10*
D11*
X229108000Y-161798000D03*
X171958000Y-168148000D03*
D12*
X228346000Y-174468000D03*
X228346000Y-177068000D03*
D13*
X233934000Y-172974000D03*
X233934000Y-166878000D03*
D14*
X172596000Y-161356000D03*
X169796000Y-162306000D03*
X172596000Y-163256000D03*
X169796000Y-161356000D03*
X169796000Y-163256000D03*
X163706000Y-161356000D03*
X160906000Y-162306000D03*
X163706000Y-163256000D03*
X160906000Y-161356000D03*
X160906000Y-163256000D03*
X174882000Y-176088000D03*
X172082000Y-177038000D03*
X174882000Y-177988000D03*
X172082000Y-176088000D03*
X172082000Y-177988000D03*
X174882000Y-177038000D03*
D15*
X224521000Y-166862000D03*
X224521000Y-166362000D03*
X224521000Y-165862000D03*
X224521000Y-165362000D03*
X224521000Y-164862000D03*
X219471000Y-164862000D03*
X219471000Y-165362000D03*
X219471000Y-165862000D03*
X219471000Y-166362000D03*
X219471000Y-166862000D03*
D16*
X194558000Y-176407000D03*
X194558000Y-175757000D03*
X194558000Y-175107000D03*
X194558000Y-174457000D03*
X194558000Y-173807000D03*
X194558000Y-173157000D03*
X194558000Y-172507000D03*
X194558000Y-171857000D03*
X194558000Y-171207000D03*
X194558000Y-170557000D03*
X200158000Y-170557000D03*
X200158000Y-171207000D03*
X200158000Y-171857000D03*
X200158000Y-172507000D03*
X200158000Y-173157000D03*
X200158000Y-173807000D03*
X200158000Y-174457000D03*
X200158000Y-175107000D03*
X200158000Y-175757000D03*
X200158000Y-176407000D03*
D14*
X172082000Y-174432000D03*
X174882000Y-173482000D03*
X172082000Y-172532000D03*
X174882000Y-174432000D03*
X174882000Y-172532000D03*
X172082000Y-173482000D03*
D17*
X209012000Y-177038000D03*
X211612000Y-177038000D03*
X181834000Y-179324000D03*
X184434000Y-179324000D03*
D12*
X216408000Y-171226000D03*
X216408000Y-168626000D03*
D17*
X227300000Y-164846000D03*
X229900000Y-164846000D03*
D12*
X215392000Y-165130000D03*
X215392000Y-162530000D03*
D17*
X220696000Y-170942000D03*
X223296000Y-170942000D03*
X223296000Y-168910000D03*
X220696000Y-168910000D03*
D12*
X217424000Y-165130000D03*
X217424000Y-162530000D03*
D17*
X162784000Y-176022000D03*
X165384000Y-176022000D03*
X221839000Y-159893000D03*
X224439000Y-159893000D03*
D12*
X226314000Y-174468000D03*
X226314000Y-177068000D03*
X224282000Y-174468000D03*
X224282000Y-177068000D03*
X214376000Y-177068000D03*
X214376000Y-174468000D03*
X179832000Y-177068000D03*
X179832000Y-174468000D03*
D17*
X162784000Y-179070000D03*
X165384000Y-179070000D03*
D18*
X221234000Y-177168000D03*
X222184000Y-174368000D03*
X220284000Y-174368000D03*
D19*
X177848000Y-167894000D03*
D20*
X179848000Y-167894000D03*
X181848000Y-167894000D03*
X183848000Y-167894000D03*
D14*
X182496000Y-164846000D03*
X185296000Y-165796000D03*
X185296000Y-163896000D03*
D18*
X217424000Y-177168000D03*
X218374000Y-174368000D03*
X216474000Y-174368000D03*
D12*
X175006000Y-163352000D03*
X175006000Y-160752000D03*
X166878000Y-163352000D03*
X166878000Y-160752000D03*
X218440000Y-168626000D03*
X218440000Y-171226000D03*
D17*
X227300000Y-166878000D03*
X229900000Y-166878000D03*
X174976000Y-179578000D03*
X177576000Y-179578000D03*
D12*
X219583000Y-159863000D03*
X219583000Y-162463000D03*
D17*
X224439000Y-162433000D03*
X221839000Y-162433000D03*
X227300000Y-168910000D03*
X229900000Y-168910000D03*
X170210000Y-172466000D03*
X167610000Y-172466000D03*
D12*
X177800000Y-174468000D03*
X177800000Y-177068000D03*
D17*
X196058000Y-178054000D03*
X198658000Y-178054000D03*
D21*
X155448000Y-177673000D03*
X155448000Y-162179000D03*
X235077000Y-161417000D03*
X235077000Y-178435000D03*
D22*
X189738000Y-176276000D03*
D23*
X189738000Y-178816000D03*
X210312000Y-179638960D03*
X212852000Y-179517040D03*
D22*
X207772000Y-179517040D03*
D23*
X215392000Y-179638960D03*
D22*
X219456000Y-179638960D03*
D23*
X221996000Y-179517040D03*
X224536000Y-179638960D03*
M02*
